G04 #@! TF.GenerationSoftware,KiCad,Pcbnew,8.0.4*
G04 #@! TF.CreationDate,2025-02-18T09:49:29-03:00*
G04 #@! TF.ProjectId,XT Prototype Board,58542050-726f-4746-9f74-79706520426f,rev?*
G04 #@! TF.SameCoordinates,Original*
G04 #@! TF.FileFunction,Soldermask,Bot*
G04 #@! TF.FilePolarity,Negative*
%FSLAX46Y46*%
G04 Gerber Fmt 4.6, Leading zero omitted, Abs format (unit mm)*
G04 Created by KiCad (PCBNEW 8.0.4) date 2025-02-18 09:49:29*
%MOMM*%
%LPD*%
G01*
G04 APERTURE LIST*
%ADD10C,0.100000*%
%ADD11R,1.778000X7.620000*%
%ADD12C,1.700000*%
%ADD13R,1.700000X1.700000*%
%ADD14O,1.700000X1.700000*%
G04 APERTURE END LIST*
D10*
X155575000Y-139065000D02*
X72898000Y-139065000D01*
X72898000Y-131445000D01*
X155575000Y-131445000D01*
X155575000Y-139065000D01*
G36*
X155575000Y-139065000D02*
G01*
X72898000Y-139065000D01*
X72898000Y-131445000D01*
X155575000Y-131445000D01*
X155575000Y-139065000D01*
G37*
D11*
X153035000Y-135255000D03*
X150495000Y-135255000D03*
X147955000Y-135255000D03*
X145415000Y-135255000D03*
X142875000Y-135255000D03*
X140335000Y-135255000D03*
X137795000Y-135255000D03*
X135255000Y-135255000D03*
X132715000Y-135255000D03*
X130175000Y-135255000D03*
X127635000Y-135255000D03*
X125095000Y-135255000D03*
X122555000Y-135255000D03*
X120015000Y-135255000D03*
X117475000Y-135255000D03*
X114935000Y-135255000D03*
X112395000Y-135255000D03*
X109855000Y-135255000D03*
X107315000Y-135255000D03*
X104775000Y-135255000D03*
X102235000Y-135255000D03*
X99695000Y-135255000D03*
X97155000Y-135255000D03*
X94615000Y-135255000D03*
X92075000Y-135255000D03*
X89535000Y-135255000D03*
X86995000Y-135255000D03*
X84455000Y-135255000D03*
X81915000Y-135255000D03*
X79375000Y-135255000D03*
X76835000Y-135255000D03*
D12*
X59029600Y-40513000D03*
X59029600Y-45593000D03*
X59029600Y-50673000D03*
X59029600Y-55753000D03*
X59029600Y-60833000D03*
X59029600Y-65913000D03*
X59029600Y-70993000D03*
X59029600Y-76073000D03*
X59029600Y-81153000D03*
X59029600Y-86233000D03*
X59029600Y-91313000D03*
X59029600Y-96393000D03*
X59029600Y-101473000D03*
X59029600Y-106553000D03*
X59039974Y-43053000D03*
X59039974Y-48133000D03*
X59039974Y-53213000D03*
X59039974Y-58293000D03*
X59039974Y-63373000D03*
X59039974Y-68453000D03*
X59039974Y-73533000D03*
X59039974Y-78613000D03*
X59039974Y-83693000D03*
X59039974Y-88773000D03*
X59039974Y-93853000D03*
X59039974Y-98933000D03*
X59039974Y-104013000D03*
X59039974Y-109093000D03*
X61569600Y-40513000D03*
X61569600Y-45593000D03*
X61569600Y-50673000D03*
X61569600Y-55753000D03*
X61569600Y-60833000D03*
X61569600Y-65913000D03*
X61569600Y-70993000D03*
X61569600Y-76073000D03*
X61569600Y-81153000D03*
X61569600Y-86233000D03*
X61569600Y-91313000D03*
X61569600Y-96393000D03*
X61569600Y-101473000D03*
X61569600Y-106553000D03*
X61579974Y-43053000D03*
X61579974Y-48133000D03*
X61579974Y-53213000D03*
X61579974Y-58293000D03*
X61579974Y-63373000D03*
X61579974Y-68453000D03*
X61579974Y-73533000D03*
X61579974Y-78613000D03*
X61579974Y-83693000D03*
X61579974Y-88773000D03*
X61579974Y-93853000D03*
X61579974Y-98933000D03*
X61579974Y-104013000D03*
X61579974Y-109093000D03*
X64109600Y-40513000D03*
X64109600Y-45593000D03*
X64109600Y-50673000D03*
X64109600Y-55753000D03*
X64109600Y-60833000D03*
X64109600Y-65913000D03*
X64109600Y-70993000D03*
X64109600Y-76073000D03*
X64109600Y-81153000D03*
X64109600Y-86233000D03*
X64109600Y-91313000D03*
X64109600Y-96393000D03*
X64109600Y-101473000D03*
X64109600Y-106553000D03*
X64119974Y-43053000D03*
X64119974Y-48133000D03*
X64119974Y-53213000D03*
X64119974Y-58293000D03*
X64119974Y-63373000D03*
X64119974Y-68453000D03*
X64119974Y-73533000D03*
X64119974Y-78613000D03*
X64119974Y-83693000D03*
X64119974Y-88773000D03*
X64119974Y-93853000D03*
X64119974Y-98933000D03*
X64119974Y-104013000D03*
X64119974Y-109093000D03*
X66649600Y-40513000D03*
X66649600Y-45593000D03*
X66649600Y-50673000D03*
X66649600Y-55753000D03*
X66649600Y-60833000D03*
X66649600Y-65913000D03*
X66649600Y-70993000D03*
X66649600Y-76073000D03*
X66649600Y-81153000D03*
X66649600Y-86233000D03*
X66649600Y-91313000D03*
X66649600Y-96393000D03*
X66649600Y-101473000D03*
X66649600Y-106553000D03*
X66659974Y-43053000D03*
X66659974Y-48133000D03*
X66659974Y-53213000D03*
X66659974Y-58293000D03*
X66659974Y-63373000D03*
X66659974Y-68453000D03*
X66659974Y-73533000D03*
X66659974Y-78613000D03*
X66659974Y-83693000D03*
X66659974Y-88773000D03*
X66659974Y-93853000D03*
X66659974Y-98933000D03*
X66659974Y-104013000D03*
X66659974Y-109093000D03*
X69189600Y-40513000D03*
X69189600Y-45593000D03*
X69189600Y-50673000D03*
X69189600Y-55753000D03*
X69189600Y-60833000D03*
X69189600Y-65913000D03*
X69189600Y-70993000D03*
X69189600Y-76073000D03*
X69189600Y-81153000D03*
X69189600Y-86233000D03*
X69189600Y-91313000D03*
X69189600Y-96393000D03*
X69189600Y-101473000D03*
X69189600Y-106553000D03*
X69199974Y-43053000D03*
X69199974Y-48133000D03*
X69199974Y-53213000D03*
X69199974Y-58293000D03*
X69199974Y-63373000D03*
X69199974Y-68453000D03*
X69199974Y-73533000D03*
X69199974Y-78613000D03*
X69199974Y-83693000D03*
X69199974Y-88773000D03*
X69199974Y-93853000D03*
X69199974Y-98933000D03*
X69199974Y-104013000D03*
X69199974Y-109093000D03*
X71729600Y-40513000D03*
X71729600Y-45593000D03*
X71729600Y-50673000D03*
X71729600Y-55753000D03*
X71729600Y-60833000D03*
X71729600Y-65913000D03*
X71729600Y-70993000D03*
X71729600Y-76073000D03*
X71729600Y-81153000D03*
X71729600Y-86233000D03*
X71729600Y-91313000D03*
X71729600Y-96393000D03*
X71729600Y-101473000D03*
X71729600Y-106553000D03*
X71739974Y-43053000D03*
X71739974Y-48133000D03*
X71739974Y-53213000D03*
X71739974Y-58293000D03*
X71739974Y-63373000D03*
X71739974Y-68453000D03*
X71739974Y-73533000D03*
X71739974Y-78613000D03*
X71739974Y-83693000D03*
X71739974Y-88773000D03*
X71739974Y-93853000D03*
X71739974Y-98933000D03*
X71739974Y-104013000D03*
X71739974Y-109093000D03*
X74269600Y-40513000D03*
X74269600Y-45593000D03*
X74269600Y-50673000D03*
X74269600Y-55753000D03*
X74269600Y-60833000D03*
X74269600Y-65913000D03*
X74269600Y-70993000D03*
X74269600Y-76073000D03*
X74269600Y-81153000D03*
X74269600Y-86233000D03*
X74269600Y-91313000D03*
X74269600Y-96393000D03*
X74269600Y-101473000D03*
X74269600Y-106553000D03*
X74279974Y-43053000D03*
X74279974Y-48133000D03*
X74279974Y-53213000D03*
X74279974Y-58293000D03*
X74279974Y-63373000D03*
X74279974Y-68453000D03*
X74279974Y-73533000D03*
X74279974Y-78613000D03*
X74279974Y-83693000D03*
X74279974Y-88773000D03*
X74279974Y-93853000D03*
X74279974Y-98933000D03*
X74279974Y-104013000D03*
X74279974Y-109093000D03*
X76809600Y-40513000D03*
X76809600Y-45593000D03*
X76809600Y-50673000D03*
X76809600Y-55753000D03*
X76809600Y-60833000D03*
X76809600Y-65913000D03*
X76809600Y-70993000D03*
X76809600Y-76073000D03*
X76809600Y-81153000D03*
X76809600Y-86233000D03*
X76809600Y-91313000D03*
X76809600Y-96393000D03*
X76809600Y-101473000D03*
X76809600Y-106553000D03*
X76819974Y-43053000D03*
X76819974Y-48133000D03*
X76819974Y-53213000D03*
X76819974Y-58293000D03*
X76819974Y-63373000D03*
X76819974Y-68453000D03*
X76819974Y-73533000D03*
X76819974Y-78613000D03*
X76819974Y-83693000D03*
X76819974Y-88773000D03*
X76819974Y-93853000D03*
X76819974Y-98933000D03*
X76819974Y-104013000D03*
X76819974Y-109093000D03*
X79349600Y-40513000D03*
X79349600Y-45593000D03*
X79349600Y-50673000D03*
X79349600Y-55753000D03*
X79349600Y-60833000D03*
X79349600Y-65913000D03*
X79349600Y-70993000D03*
X79349600Y-76073000D03*
X79349600Y-81153000D03*
X79349600Y-86233000D03*
X79349600Y-91313000D03*
X79349600Y-96393000D03*
X79349600Y-101473000D03*
X79349600Y-106553000D03*
X79359974Y-43053000D03*
X79359974Y-48133000D03*
X79359974Y-53213000D03*
X79359974Y-58293000D03*
X79359974Y-63373000D03*
X79359974Y-68453000D03*
X79359974Y-73533000D03*
X79359974Y-78613000D03*
X79359974Y-83693000D03*
X79359974Y-88773000D03*
X79359974Y-93853000D03*
X79359974Y-98933000D03*
X79359974Y-104013000D03*
X79359974Y-109093000D03*
X81889600Y-40513000D03*
X81889600Y-45593000D03*
X81889600Y-50673000D03*
X81889600Y-55753000D03*
X81889600Y-60833000D03*
X81889600Y-65913000D03*
X81889600Y-70993000D03*
X81889600Y-76073000D03*
X81889600Y-81153000D03*
X81889600Y-86233000D03*
X81889600Y-91313000D03*
X81889600Y-96393000D03*
X81889600Y-101473000D03*
X81889600Y-106553000D03*
X81899974Y-43053000D03*
X81899974Y-48133000D03*
X81899974Y-53213000D03*
X81899974Y-58293000D03*
X81899974Y-63373000D03*
X81899974Y-68453000D03*
X81899974Y-73533000D03*
X81899974Y-78613000D03*
X81899974Y-83693000D03*
X81899974Y-88773000D03*
X81899974Y-93853000D03*
X81899974Y-98933000D03*
X81899974Y-104013000D03*
X81899974Y-109093000D03*
X84429600Y-40513000D03*
X84429600Y-45593000D03*
X84429600Y-50673000D03*
X84429600Y-55753000D03*
X84429600Y-60833000D03*
X84429600Y-65913000D03*
X84429600Y-70993000D03*
X84429600Y-76073000D03*
X84429600Y-81153000D03*
X84429600Y-86233000D03*
X84429600Y-91313000D03*
X84429600Y-96393000D03*
X84429600Y-101473000D03*
X84429600Y-106553000D03*
X84439974Y-43053000D03*
X84439974Y-48133000D03*
X84439974Y-53213000D03*
X84439974Y-58293000D03*
X84439974Y-63373000D03*
X84439974Y-68453000D03*
X84439974Y-73533000D03*
X84439974Y-78613000D03*
X84439974Y-83693000D03*
X84439974Y-88773000D03*
X84439974Y-93853000D03*
X84439974Y-98933000D03*
X84439974Y-104013000D03*
X84439974Y-109093000D03*
X86969600Y-40513000D03*
X86969600Y-45593000D03*
X86969600Y-50673000D03*
X86969600Y-55753000D03*
X86969600Y-60833000D03*
X86969600Y-65913000D03*
X86969600Y-70993000D03*
X86969600Y-76073000D03*
X86969600Y-81153000D03*
X86969600Y-86233000D03*
X86969600Y-91313000D03*
X86969600Y-96393000D03*
X86969600Y-101473000D03*
X86969600Y-106553000D03*
X86979974Y-43053000D03*
X86979974Y-48133000D03*
X86979974Y-53213000D03*
X86979974Y-58293000D03*
X86979974Y-63373000D03*
X86979974Y-68453000D03*
X86979974Y-73533000D03*
X86979974Y-78613000D03*
X86979974Y-83693000D03*
X86979974Y-88773000D03*
X86979974Y-93853000D03*
X86979974Y-98933000D03*
X86979974Y-104013000D03*
X86979974Y-109093000D03*
X89509600Y-40513000D03*
X89509600Y-45593000D03*
X89509600Y-50673000D03*
X89509600Y-55753000D03*
X89509600Y-60833000D03*
X89509600Y-65913000D03*
X89509600Y-70993000D03*
X89509600Y-76073000D03*
X89509600Y-81153000D03*
X89509600Y-86233000D03*
X89509600Y-91313000D03*
X89509600Y-96393000D03*
X89509600Y-101473000D03*
X89509600Y-106553000D03*
X89519974Y-43053000D03*
X89519974Y-48133000D03*
X89519974Y-53213000D03*
X89519974Y-58293000D03*
X89519974Y-63373000D03*
X89519974Y-68453000D03*
X89519974Y-73533000D03*
X89519974Y-78613000D03*
X89519974Y-83693000D03*
X89519974Y-88773000D03*
X89519974Y-93853000D03*
X89519974Y-98933000D03*
X89519974Y-104013000D03*
X89519974Y-109093000D03*
X92049600Y-40513000D03*
X92049600Y-45593000D03*
X92049600Y-50673000D03*
X92049600Y-55753000D03*
X92049600Y-60833000D03*
X92049600Y-65913000D03*
X92049600Y-70993000D03*
X92049600Y-76073000D03*
X92049600Y-81153000D03*
X92049600Y-86233000D03*
X92049600Y-91313000D03*
X92049600Y-96393000D03*
X92049600Y-101473000D03*
X92049600Y-106553000D03*
X92059974Y-43053000D03*
X92059974Y-48133000D03*
X92059974Y-53213000D03*
X92059974Y-58293000D03*
X92059974Y-63373000D03*
X92059974Y-68453000D03*
X92059974Y-73533000D03*
X92059974Y-78613000D03*
X92059974Y-83693000D03*
X92059974Y-88773000D03*
X92059974Y-93853000D03*
X92059974Y-98933000D03*
X92059974Y-104013000D03*
X92059974Y-109093000D03*
X94589600Y-40513000D03*
X94589600Y-45593000D03*
X94589600Y-50673000D03*
X94589600Y-55753000D03*
X94589600Y-60833000D03*
X94589600Y-65913000D03*
X94589600Y-70993000D03*
X94589600Y-76073000D03*
X94589600Y-81153000D03*
X94589600Y-86233000D03*
X94589600Y-91313000D03*
X94589600Y-96393000D03*
X94589600Y-101473000D03*
X94589600Y-106553000D03*
X94599974Y-43053000D03*
X94599974Y-48133000D03*
X94599974Y-53213000D03*
X94599974Y-58293000D03*
X94599974Y-63373000D03*
X94599974Y-68453000D03*
X94599974Y-73533000D03*
X94599974Y-78613000D03*
X94599974Y-83693000D03*
X94599974Y-88773000D03*
X94599974Y-93853000D03*
X94599974Y-98933000D03*
X94599974Y-104013000D03*
X94599974Y-109093000D03*
X97129600Y-40513000D03*
X97129600Y-45593000D03*
X97129600Y-50673000D03*
X97129600Y-55753000D03*
X97129600Y-60833000D03*
X97129600Y-65913000D03*
X97129600Y-70993000D03*
X97129600Y-76073000D03*
X97129600Y-81153000D03*
X97129600Y-86233000D03*
X97129600Y-91313000D03*
X97129600Y-96393000D03*
X97129600Y-101473000D03*
X97129600Y-106553000D03*
X97139974Y-43053000D03*
X97139974Y-48133000D03*
X97139974Y-53213000D03*
X97139974Y-58293000D03*
X97139974Y-63373000D03*
X97139974Y-68453000D03*
X97139974Y-73533000D03*
X97139974Y-78613000D03*
X97139974Y-83693000D03*
X97139974Y-88773000D03*
X97139974Y-93853000D03*
X97139974Y-98933000D03*
X97139974Y-104013000D03*
X97139974Y-109093000D03*
X99669600Y-40513000D03*
X99669600Y-45593000D03*
X99669600Y-50673000D03*
X99669600Y-55753000D03*
X99669600Y-60833000D03*
X99669600Y-65913000D03*
X99669600Y-70993000D03*
X99669600Y-76073000D03*
X99669600Y-81153000D03*
X99669600Y-86233000D03*
X99669600Y-91313000D03*
X99669600Y-96393000D03*
X99669600Y-101473000D03*
X99669600Y-106553000D03*
X99679974Y-43053000D03*
X99679974Y-48133000D03*
X99679974Y-53213000D03*
X99679974Y-58293000D03*
X99679974Y-63373000D03*
X99679974Y-68453000D03*
X99679974Y-73533000D03*
X99679974Y-78613000D03*
X99679974Y-83693000D03*
X99679974Y-88773000D03*
X99679974Y-93853000D03*
X99679974Y-98933000D03*
X99679974Y-104013000D03*
X99679974Y-109093000D03*
X102209600Y-40513000D03*
X102209600Y-45593000D03*
X102209600Y-50673000D03*
X102209600Y-55753000D03*
X102209600Y-60833000D03*
X102209600Y-65913000D03*
X102209600Y-70993000D03*
X102209600Y-76073000D03*
X102209600Y-81153000D03*
X102209600Y-86233000D03*
X102209600Y-91313000D03*
X102209600Y-96393000D03*
X102209600Y-101473000D03*
X102209600Y-106553000D03*
X102219974Y-43053000D03*
X102219974Y-48133000D03*
X102219974Y-53213000D03*
X102219974Y-58293000D03*
X102219974Y-63373000D03*
X102219974Y-68453000D03*
X102219974Y-73533000D03*
X102219974Y-78613000D03*
X102219974Y-83693000D03*
X102219974Y-88773000D03*
X102219974Y-93853000D03*
X102219974Y-98933000D03*
X102219974Y-104013000D03*
X102219974Y-109093000D03*
X104749600Y-40513000D03*
X104749600Y-45593000D03*
X104749600Y-50673000D03*
X104749600Y-55753000D03*
X104749600Y-60833000D03*
X104749600Y-65913000D03*
X104749600Y-70993000D03*
X104749600Y-76073000D03*
X104749600Y-81153000D03*
X104749600Y-86233000D03*
X104749600Y-91313000D03*
X104749600Y-96393000D03*
X104749600Y-101473000D03*
X104749600Y-106553000D03*
X104759974Y-43053000D03*
X104759974Y-48133000D03*
X104759974Y-53213000D03*
X104759974Y-58293000D03*
X104759974Y-63373000D03*
X104759974Y-68453000D03*
X104759974Y-73533000D03*
X104759974Y-78613000D03*
X104759974Y-83693000D03*
X104759974Y-88773000D03*
X104759974Y-93853000D03*
X104759974Y-98933000D03*
X104759974Y-104013000D03*
X104759974Y-109093000D03*
X107289600Y-40513000D03*
X107289600Y-45593000D03*
X107289600Y-50673000D03*
X107289600Y-55753000D03*
X107289600Y-60833000D03*
X107289600Y-65913000D03*
X107289600Y-70993000D03*
X107289600Y-76073000D03*
X107289600Y-81153000D03*
X107289600Y-86233000D03*
X107289600Y-91313000D03*
X107289600Y-96393000D03*
X107289600Y-101473000D03*
X107289600Y-106553000D03*
X107299974Y-43053000D03*
X107299974Y-48133000D03*
X107299974Y-53213000D03*
X107299974Y-58293000D03*
X107299974Y-63373000D03*
X107299974Y-68453000D03*
X107299974Y-73533000D03*
X107299974Y-78613000D03*
X107299974Y-83693000D03*
X107299974Y-88773000D03*
X107299974Y-93853000D03*
X107299974Y-98933000D03*
X107299974Y-104013000D03*
X107299974Y-109093000D03*
X109829600Y-40513000D03*
X109829600Y-45593000D03*
X109829600Y-50673000D03*
X109829600Y-55753000D03*
X109829600Y-60833000D03*
X109829600Y-65913000D03*
X109829600Y-70993000D03*
X109829600Y-76073000D03*
X109829600Y-81153000D03*
X109829600Y-86233000D03*
X109829600Y-91313000D03*
X109829600Y-96393000D03*
X109829600Y-101473000D03*
X109829600Y-106553000D03*
X109839974Y-43053000D03*
X109839974Y-48133000D03*
X109839974Y-53213000D03*
X109839974Y-58293000D03*
X109839974Y-63373000D03*
X109839974Y-68453000D03*
X109839974Y-73533000D03*
X109839974Y-78613000D03*
X109839974Y-83693000D03*
X109839974Y-88773000D03*
X109839974Y-93853000D03*
X109839974Y-98933000D03*
X109839974Y-104013000D03*
X109839974Y-109093000D03*
X112369600Y-40513000D03*
X112369600Y-45593000D03*
X112369600Y-50673000D03*
X112369600Y-55753000D03*
X112369600Y-60833000D03*
X112369600Y-65913000D03*
X112369600Y-70993000D03*
X112369600Y-76073000D03*
X112369600Y-81153000D03*
X112369600Y-86233000D03*
X112369600Y-91313000D03*
X112369600Y-96393000D03*
X112369600Y-101473000D03*
X112369600Y-106553000D03*
X112379974Y-43053000D03*
X112379974Y-48133000D03*
X112379974Y-53213000D03*
X112379974Y-58293000D03*
X112379974Y-63373000D03*
X112379974Y-68453000D03*
X112379974Y-73533000D03*
X112379974Y-78613000D03*
X112379974Y-83693000D03*
X112379974Y-88773000D03*
X112379974Y-93853000D03*
X112379974Y-98933000D03*
X112379974Y-104013000D03*
X112379974Y-109093000D03*
X114909600Y-40513000D03*
X114909600Y-45593000D03*
X114909600Y-50673000D03*
X114909600Y-55753000D03*
X114909600Y-60833000D03*
X114909600Y-65913000D03*
X114909600Y-70993000D03*
X114909600Y-76073000D03*
X114909600Y-81153000D03*
X114909600Y-86233000D03*
X114909600Y-91313000D03*
X114909600Y-96393000D03*
X114909600Y-101473000D03*
X114909600Y-106553000D03*
X114919974Y-43053000D03*
X114919974Y-48133000D03*
X114919974Y-53213000D03*
X114919974Y-58293000D03*
X114919974Y-63373000D03*
X114919974Y-68453000D03*
X114919974Y-73533000D03*
X114919974Y-78613000D03*
X114919974Y-83693000D03*
X114919974Y-88773000D03*
X114919974Y-93853000D03*
X114919974Y-98933000D03*
X114919974Y-104013000D03*
X114919974Y-109093000D03*
X117449600Y-40513000D03*
X117449600Y-45593000D03*
X117449600Y-50673000D03*
X117449600Y-55753000D03*
X117449600Y-60833000D03*
X117449600Y-65913000D03*
X117449600Y-70993000D03*
X117449600Y-76073000D03*
X117449600Y-81153000D03*
X117449600Y-86233000D03*
X117449600Y-91313000D03*
X117449600Y-96393000D03*
X117449600Y-101473000D03*
X117449600Y-106553000D03*
X117459974Y-43053000D03*
X117459974Y-48133000D03*
X117459974Y-53213000D03*
X117459974Y-58293000D03*
X117459974Y-63373000D03*
X117459974Y-68453000D03*
X117459974Y-73533000D03*
X117459974Y-78613000D03*
X117459974Y-83693000D03*
X117459974Y-88773000D03*
X117459974Y-93853000D03*
X117459974Y-98933000D03*
X117459974Y-104013000D03*
X117459974Y-109093000D03*
X119989600Y-40513000D03*
X119989600Y-45593000D03*
X119989600Y-50673000D03*
X119989600Y-55753000D03*
X119989600Y-60833000D03*
X119989600Y-65913000D03*
X119989600Y-70993000D03*
X119989600Y-76073000D03*
X119989600Y-81153000D03*
X119989600Y-86233000D03*
X119989600Y-91313000D03*
X119989600Y-96393000D03*
X119989600Y-101473000D03*
X119989600Y-106553000D03*
X119999974Y-43053000D03*
X119999974Y-48133000D03*
X119999974Y-53213000D03*
X119999974Y-58293000D03*
X119999974Y-63373000D03*
X119999974Y-68453000D03*
X119999974Y-73533000D03*
X119999974Y-78613000D03*
X119999974Y-83693000D03*
X119999974Y-88773000D03*
X119999974Y-93853000D03*
X119999974Y-98933000D03*
X119999974Y-104013000D03*
X119999974Y-109093000D03*
X122529600Y-40513000D03*
X122529600Y-45593000D03*
X122529600Y-50673000D03*
X122529600Y-55753000D03*
X122529600Y-60833000D03*
X122529600Y-65913000D03*
X122529600Y-70993000D03*
X122529600Y-76073000D03*
X122529600Y-81153000D03*
X122529600Y-86233000D03*
X122529600Y-91313000D03*
X122529600Y-96393000D03*
X122529600Y-101473000D03*
X122529600Y-106553000D03*
X122539974Y-43053000D03*
X122539974Y-48133000D03*
X122539974Y-53213000D03*
X122539974Y-58293000D03*
X122539974Y-63373000D03*
X122539974Y-68453000D03*
X122539974Y-73533000D03*
X122539974Y-78613000D03*
X122539974Y-83693000D03*
X122539974Y-88773000D03*
X122539974Y-93853000D03*
X122539974Y-98933000D03*
X122539974Y-104013000D03*
X122539974Y-109093000D03*
X125069600Y-40513000D03*
X125069600Y-45593000D03*
X125069600Y-50673000D03*
X125069600Y-55753000D03*
X125069600Y-60833000D03*
X125069600Y-65913000D03*
X125069600Y-70993000D03*
X125069600Y-76073000D03*
X125069600Y-81153000D03*
X125069600Y-86233000D03*
X125069600Y-91313000D03*
X125069600Y-96393000D03*
X125069600Y-101473000D03*
X125069600Y-106553000D03*
X125079974Y-43053000D03*
X125079974Y-48133000D03*
X125079974Y-53213000D03*
X125079974Y-58293000D03*
X125079974Y-63373000D03*
X125079974Y-68453000D03*
X125079974Y-73533000D03*
X125079974Y-78613000D03*
X125079974Y-83693000D03*
X125079974Y-88773000D03*
X125079974Y-93853000D03*
X125079974Y-98933000D03*
X125079974Y-104013000D03*
X125079974Y-109093000D03*
X127609600Y-40513000D03*
X127609600Y-45593000D03*
X127609600Y-50673000D03*
X127609600Y-55753000D03*
X127609600Y-60833000D03*
X127609600Y-65913000D03*
X127609600Y-70993000D03*
X127609600Y-76073000D03*
X127609600Y-81153000D03*
X127609600Y-86233000D03*
X127609600Y-91313000D03*
X127609600Y-96393000D03*
X127609600Y-101473000D03*
X127609600Y-106553000D03*
X127619974Y-43053000D03*
X127619974Y-48133000D03*
X127619974Y-53213000D03*
X127619974Y-58293000D03*
X127619974Y-63373000D03*
X127619974Y-68453000D03*
X127619974Y-73533000D03*
X127619974Y-78613000D03*
X127619974Y-83693000D03*
X127619974Y-88773000D03*
X127619974Y-93853000D03*
X127619974Y-98933000D03*
X127619974Y-104013000D03*
X127619974Y-109093000D03*
X130149600Y-40513000D03*
X130149600Y-45593000D03*
X130149600Y-50673000D03*
X130149600Y-55753000D03*
X130149600Y-60833000D03*
X130149600Y-65913000D03*
X130149600Y-70993000D03*
X130149600Y-76073000D03*
X130149600Y-81153000D03*
X130149600Y-86233000D03*
X130149600Y-91313000D03*
X130149600Y-96393000D03*
X130149600Y-101473000D03*
X130149600Y-106553000D03*
X130159974Y-43053000D03*
X130159974Y-48133000D03*
X130159974Y-53213000D03*
X130159974Y-58293000D03*
X130159974Y-63373000D03*
X130159974Y-68453000D03*
X130159974Y-73533000D03*
X130159974Y-78613000D03*
X130159974Y-83693000D03*
X130159974Y-88773000D03*
X130159974Y-93853000D03*
X130159974Y-98933000D03*
X130159974Y-104013000D03*
X130159974Y-109093000D03*
X132689600Y-40513000D03*
X132689600Y-45593000D03*
X132689600Y-50673000D03*
X132689600Y-55753000D03*
X132689600Y-60833000D03*
X132689600Y-65913000D03*
X132689600Y-70993000D03*
X132689600Y-76073000D03*
X132689600Y-81153000D03*
X132689600Y-86233000D03*
X132689600Y-91313000D03*
X132689600Y-96393000D03*
X132689600Y-101473000D03*
X132689600Y-106553000D03*
X132699974Y-43053000D03*
X132699974Y-48133000D03*
X132699974Y-53213000D03*
X132699974Y-58293000D03*
X132699974Y-63373000D03*
X132699974Y-68453000D03*
X132699974Y-73533000D03*
X132699974Y-78613000D03*
X132699974Y-83693000D03*
X132699974Y-88773000D03*
X132699974Y-93853000D03*
X132699974Y-98933000D03*
X132699974Y-104013000D03*
X132699974Y-109093000D03*
X135229600Y-40513000D03*
X135229600Y-45593000D03*
X135229600Y-50673000D03*
X135229600Y-55753000D03*
X135229600Y-60833000D03*
X135229600Y-65913000D03*
X135229600Y-70993000D03*
X135229600Y-76073000D03*
X135229600Y-81153000D03*
X135229600Y-86233000D03*
X135229600Y-91313000D03*
X135229600Y-96393000D03*
X135229600Y-101473000D03*
X135229600Y-106553000D03*
X135239974Y-43053000D03*
X135239974Y-48133000D03*
X135239974Y-53213000D03*
X135239974Y-58293000D03*
X135239974Y-63373000D03*
X135239974Y-68453000D03*
X135239974Y-73533000D03*
X135239974Y-78613000D03*
X135239974Y-83693000D03*
X135239974Y-88773000D03*
X135239974Y-93853000D03*
X135239974Y-98933000D03*
X135239974Y-104013000D03*
X135239974Y-109093000D03*
X137769600Y-40513000D03*
X137769600Y-45593000D03*
X137769600Y-50673000D03*
X137769600Y-55753000D03*
X137769600Y-60833000D03*
X137769600Y-65913000D03*
X137769600Y-70993000D03*
X137769600Y-76073000D03*
X137769600Y-81153000D03*
X137769600Y-86233000D03*
X137769600Y-91313000D03*
X137769600Y-96393000D03*
X137769600Y-101473000D03*
X137769600Y-106553000D03*
X137779974Y-43053000D03*
X137779974Y-48133000D03*
X137779974Y-53213000D03*
X137779974Y-58293000D03*
X137779974Y-63373000D03*
X137779974Y-68453000D03*
X137779974Y-73533000D03*
X137779974Y-78613000D03*
X137779974Y-83693000D03*
X137779974Y-88773000D03*
X137779974Y-93853000D03*
X137779974Y-98933000D03*
X137779974Y-104013000D03*
X137779974Y-109093000D03*
X140309600Y-40513000D03*
X140309600Y-45593000D03*
X140309600Y-50673000D03*
X140309600Y-55753000D03*
X140309600Y-60833000D03*
X140309600Y-65913000D03*
X140309600Y-70993000D03*
X140309600Y-76073000D03*
X140309600Y-81153000D03*
X140309600Y-86233000D03*
X140309600Y-91313000D03*
X140309600Y-96393000D03*
X140309600Y-101473000D03*
X140309600Y-106553000D03*
X140319974Y-43053000D03*
X140319974Y-48133000D03*
X140319974Y-53213000D03*
X140319974Y-58293000D03*
X140319974Y-63373000D03*
X140319974Y-68453000D03*
X140319974Y-73533000D03*
X140319974Y-78613000D03*
X140319974Y-83693000D03*
X140319974Y-88773000D03*
X140319974Y-93853000D03*
X140319974Y-98933000D03*
X140319974Y-104013000D03*
X140319974Y-109093000D03*
X142849600Y-40513000D03*
X142849600Y-45593000D03*
X142849600Y-50673000D03*
X142849600Y-55753000D03*
X142849600Y-60833000D03*
X142849600Y-65913000D03*
X142849600Y-70993000D03*
X142849600Y-76073000D03*
X142849600Y-81153000D03*
X142849600Y-86233000D03*
X142849600Y-91313000D03*
X142849600Y-96393000D03*
X142849600Y-101473000D03*
X142849600Y-106553000D03*
X142859974Y-43053000D03*
X142859974Y-48133000D03*
X142859974Y-53213000D03*
X142859974Y-58293000D03*
X142859974Y-63373000D03*
X142859974Y-68453000D03*
X142859974Y-73533000D03*
X142859974Y-78613000D03*
X142859974Y-83693000D03*
X142859974Y-88773000D03*
X142859974Y-93853000D03*
X142859974Y-98933000D03*
X142859974Y-104013000D03*
X142859974Y-109093000D03*
X145389600Y-40513000D03*
X145389600Y-45593000D03*
X145389600Y-50673000D03*
X145389600Y-55753000D03*
X145389600Y-60833000D03*
X145389600Y-65913000D03*
X145389600Y-70993000D03*
X145389600Y-76073000D03*
X145389600Y-81153000D03*
X145389600Y-86233000D03*
X145389600Y-91313000D03*
X145389600Y-96393000D03*
X145389600Y-101473000D03*
X145389600Y-106553000D03*
X145399974Y-43053000D03*
X145399974Y-48133000D03*
X145399974Y-53213000D03*
X145399974Y-58293000D03*
X145399974Y-63373000D03*
X145399974Y-68453000D03*
X145399974Y-73533000D03*
X145399974Y-78613000D03*
X145399974Y-83693000D03*
X145399974Y-88773000D03*
X145399974Y-93853000D03*
X145399974Y-98933000D03*
X145399974Y-104013000D03*
X145399974Y-109093000D03*
X147929600Y-40513000D03*
X147929600Y-45593000D03*
X147929600Y-50673000D03*
X147929600Y-55753000D03*
X147929600Y-60833000D03*
X147929600Y-65913000D03*
X147929600Y-70993000D03*
X147929600Y-76073000D03*
X147929600Y-81153000D03*
X147929600Y-86233000D03*
X147929600Y-91313000D03*
X147929600Y-96393000D03*
X147929600Y-101473000D03*
X147929600Y-106553000D03*
X147939974Y-43053000D03*
X147939974Y-48133000D03*
X147939974Y-53213000D03*
X147939974Y-58293000D03*
X147939974Y-63373000D03*
X147939974Y-68453000D03*
X147939974Y-73533000D03*
X147939974Y-78613000D03*
X147939974Y-83693000D03*
X147939974Y-88773000D03*
X147939974Y-93853000D03*
X147939974Y-98933000D03*
X147939974Y-104013000D03*
X147939974Y-109093000D03*
X150469600Y-40513000D03*
X150469600Y-45593000D03*
X150469600Y-50673000D03*
X150469600Y-55753000D03*
X150469600Y-60833000D03*
X150469600Y-65913000D03*
X150469600Y-70993000D03*
X150469600Y-76073000D03*
X150469600Y-81153000D03*
X150469600Y-86233000D03*
X150469600Y-91313000D03*
X150469600Y-96393000D03*
X150469600Y-101473000D03*
X150469600Y-106553000D03*
X150479974Y-43053000D03*
X150479974Y-48133000D03*
X150479974Y-53213000D03*
X150479974Y-58293000D03*
X150479974Y-63373000D03*
X150479974Y-68453000D03*
X150479974Y-73533000D03*
X150479974Y-78613000D03*
X150479974Y-83693000D03*
X150479974Y-88773000D03*
X150479974Y-93853000D03*
X150479974Y-98933000D03*
X150479974Y-104013000D03*
X150479974Y-109093000D03*
X153009600Y-40513000D03*
X153009600Y-45593000D03*
X153009600Y-50673000D03*
X153009600Y-55753000D03*
X153009600Y-60833000D03*
X153009600Y-65913000D03*
X153009600Y-70993000D03*
X153009600Y-76073000D03*
X153009600Y-81153000D03*
X153009600Y-86233000D03*
X153009600Y-91313000D03*
X153009600Y-96393000D03*
X153009600Y-101473000D03*
X153009600Y-106553000D03*
X153019974Y-43053000D03*
X153019974Y-48133000D03*
X153019974Y-53213000D03*
X153019974Y-58293000D03*
X153019974Y-63373000D03*
X153019974Y-68453000D03*
X153019974Y-73533000D03*
X153019974Y-78613000D03*
X153019974Y-83693000D03*
X153019974Y-88773000D03*
X153019974Y-93853000D03*
X153019974Y-98933000D03*
X153019974Y-104013000D03*
X153019974Y-109093000D03*
D13*
X153035000Y-119507000D03*
D14*
X153035000Y-122047000D03*
X150495000Y-119507000D03*
X150495000Y-122047000D03*
X147955000Y-119507000D03*
X147955000Y-122047000D03*
X145415000Y-119507000D03*
X145415000Y-122047000D03*
X142875000Y-119507000D03*
X142875000Y-122047000D03*
X140335000Y-119507000D03*
X140335000Y-122047000D03*
X137795000Y-119507000D03*
X137795000Y-122047000D03*
X135255000Y-119507000D03*
X135255000Y-122047000D03*
X132715000Y-119507000D03*
X132715000Y-122047000D03*
X130175000Y-119507000D03*
X130175000Y-122047000D03*
X127635000Y-119507000D03*
X127635000Y-122047000D03*
X125095000Y-119507000D03*
X125095000Y-122047000D03*
X122555000Y-119507000D03*
X122555000Y-122047000D03*
X120015000Y-119507000D03*
X120015000Y-122047000D03*
X117475000Y-119507000D03*
X117475000Y-122047000D03*
X114935000Y-119507000D03*
X114935000Y-122047000D03*
X112395000Y-119507000D03*
X112395000Y-122047000D03*
X109855000Y-119507000D03*
X109855000Y-122047000D03*
X107315000Y-119507000D03*
X107315000Y-122047000D03*
X104775000Y-119507000D03*
X104775000Y-122047000D03*
X102235000Y-119507000D03*
X102235000Y-122047000D03*
X99695000Y-119507000D03*
X99695000Y-122047000D03*
X97155000Y-119507000D03*
X97155000Y-122047000D03*
X94615000Y-119507000D03*
X94615000Y-122047000D03*
X92075000Y-119507000D03*
X92075000Y-122047000D03*
X89535000Y-119507000D03*
X89535000Y-122047000D03*
X86995000Y-119507000D03*
X86995000Y-122047000D03*
X84455000Y-119507000D03*
X84455000Y-122047000D03*
X81915000Y-119507000D03*
X81915000Y-122047000D03*
X79375000Y-119507000D03*
X79375000Y-122047000D03*
X76835000Y-119507000D03*
X76835000Y-122047000D03*
M02*
