G04 #@! TF.GenerationSoftware,KiCad,Pcbnew,8.0.4*
G04 #@! TF.CreationDate,2025-02-18T09:49:29-03:00*
G04 #@! TF.ProjectId,XT Prototype Board,58542050-726f-4746-9f74-79706520426f,rev?*
G04 #@! TF.SameCoordinates,Original*
G04 #@! TF.FileFunction,Legend,Bot*
G04 #@! TF.FilePolarity,Positive*
%FSLAX46Y46*%
G04 Gerber Fmt 4.6, Leading zero omitted, Abs format (unit mm)*
G04 Created by KiCad (PCBNEW 8.0.4) date 2025-02-18 09:49:29*
%MOMM*%
%LPD*%
G01*
G04 APERTURE LIST*
%ADD10C,0.150000*%
%ADD11C,0.000000*%
%ADD12C,0.100000*%
%ADD13R,1.778000X7.620000*%
%ADD14C,1.700000*%
%ADD15R,1.700000X1.700000*%
%ADD16O,1.700000X1.700000*%
G04 APERTURE END LIST*
D10*
X129677438Y-124431588D02*
X129629819Y-124336350D01*
X129629819Y-124336350D02*
X129629819Y-124193493D01*
X129629819Y-124193493D02*
X129677438Y-124050636D01*
X129677438Y-124050636D02*
X129772676Y-123955398D01*
X129772676Y-123955398D02*
X129867914Y-123907779D01*
X129867914Y-123907779D02*
X130058390Y-123860160D01*
X130058390Y-123860160D02*
X130201247Y-123860160D01*
X130201247Y-123860160D02*
X130391723Y-123907779D01*
X130391723Y-123907779D02*
X130486961Y-123955398D01*
X130486961Y-123955398D02*
X130582200Y-124050636D01*
X130582200Y-124050636D02*
X130629819Y-124193493D01*
X130629819Y-124193493D02*
X130629819Y-124288731D01*
X130629819Y-124288731D02*
X130582200Y-124431588D01*
X130582200Y-124431588D02*
X130534580Y-124479207D01*
X130534580Y-124479207D02*
X130201247Y-124479207D01*
X130201247Y-124479207D02*
X130201247Y-124288731D01*
X130629819Y-124907779D02*
X129629819Y-124907779D01*
X129629819Y-124907779D02*
X130629819Y-125479207D01*
X130629819Y-125479207D02*
X129629819Y-125479207D01*
X130629819Y-125955398D02*
X129629819Y-125955398D01*
X129629819Y-125955398D02*
X129629819Y-126193493D01*
X129629819Y-126193493D02*
X129677438Y-126336350D01*
X129677438Y-126336350D02*
X129772676Y-126431588D01*
X129772676Y-126431588D02*
X129867914Y-126479207D01*
X129867914Y-126479207D02*
X130058390Y-126526826D01*
X130058390Y-126526826D02*
X130201247Y-126526826D01*
X130201247Y-126526826D02*
X130391723Y-126479207D01*
X130391723Y-126479207D02*
X130486961Y-126431588D01*
X130486961Y-126431588D02*
X130582200Y-126336350D01*
X130582200Y-126336350D02*
X130629819Y-126193493D01*
X130629819Y-126193493D02*
X130629819Y-125955398D01*
X76337438Y-124431588D02*
X76289819Y-124336350D01*
X76289819Y-124336350D02*
X76289819Y-124193493D01*
X76289819Y-124193493D02*
X76337438Y-124050636D01*
X76337438Y-124050636D02*
X76432676Y-123955398D01*
X76432676Y-123955398D02*
X76527914Y-123907779D01*
X76527914Y-123907779D02*
X76718390Y-123860160D01*
X76718390Y-123860160D02*
X76861247Y-123860160D01*
X76861247Y-123860160D02*
X77051723Y-123907779D01*
X77051723Y-123907779D02*
X77146961Y-123955398D01*
X77146961Y-123955398D02*
X77242200Y-124050636D01*
X77242200Y-124050636D02*
X77289819Y-124193493D01*
X77289819Y-124193493D02*
X77289819Y-124288731D01*
X77289819Y-124288731D02*
X77242200Y-124431588D01*
X77242200Y-124431588D02*
X77194580Y-124479207D01*
X77194580Y-124479207D02*
X76861247Y-124479207D01*
X76861247Y-124479207D02*
X76861247Y-124288731D01*
X77289819Y-124907779D02*
X76289819Y-124907779D01*
X76289819Y-124907779D02*
X77289819Y-125479207D01*
X77289819Y-125479207D02*
X76289819Y-125479207D01*
X77289819Y-125955398D02*
X76289819Y-125955398D01*
X76289819Y-125955398D02*
X76289819Y-126193493D01*
X76289819Y-126193493D02*
X76337438Y-126336350D01*
X76337438Y-126336350D02*
X76432676Y-126431588D01*
X76432676Y-126431588D02*
X76527914Y-126479207D01*
X76527914Y-126479207D02*
X76718390Y-126526826D01*
X76718390Y-126526826D02*
X76861247Y-126526826D01*
X76861247Y-126526826D02*
X77051723Y-126479207D01*
X77051723Y-126479207D02*
X77146961Y-126431588D01*
X77146961Y-126431588D02*
X77242200Y-126336350D01*
X77242200Y-126336350D02*
X77289819Y-126193493D01*
X77289819Y-126193493D02*
X77289819Y-125955398D01*
X86576819Y-123764922D02*
X86576819Y-124336350D01*
X87576819Y-124050636D02*
X86576819Y-124050636D01*
X87481580Y-125241112D02*
X87529200Y-125193493D01*
X87529200Y-125193493D02*
X87576819Y-125050636D01*
X87576819Y-125050636D02*
X87576819Y-124955398D01*
X87576819Y-124955398D02*
X87529200Y-124812541D01*
X87529200Y-124812541D02*
X87433961Y-124717303D01*
X87433961Y-124717303D02*
X87338723Y-124669684D01*
X87338723Y-124669684D02*
X87148247Y-124622065D01*
X87148247Y-124622065D02*
X87005390Y-124622065D01*
X87005390Y-124622065D02*
X86814914Y-124669684D01*
X86814914Y-124669684D02*
X86719676Y-124717303D01*
X86719676Y-124717303D02*
X86624438Y-124812541D01*
X86624438Y-124812541D02*
X86576819Y-124955398D01*
X86576819Y-124955398D02*
X86576819Y-125050636D01*
X86576819Y-125050636D02*
X86624438Y-125193493D01*
X86624438Y-125193493D02*
X86672057Y-125241112D01*
X84624104Y-123860160D02*
X84624104Y-124336350D01*
X84909819Y-123764922D02*
X83909819Y-124098255D01*
X83909819Y-124098255D02*
X84909819Y-124431588D01*
X84909819Y-125241112D02*
X84909819Y-124764922D01*
X84909819Y-124764922D02*
X83909819Y-124764922D01*
X84386009Y-125574446D02*
X84386009Y-125907779D01*
X84909819Y-126050636D02*
X84909819Y-125574446D01*
X84909819Y-125574446D02*
X83909819Y-125574446D01*
X83909819Y-125574446D02*
X83909819Y-126050636D01*
X78829819Y-124098255D02*
X78829819Y-124288731D01*
X78829819Y-124288731D02*
X78877438Y-124383969D01*
X78877438Y-124383969D02*
X78972676Y-124479207D01*
X78972676Y-124479207D02*
X79163152Y-124526826D01*
X79163152Y-124526826D02*
X79496485Y-124526826D01*
X79496485Y-124526826D02*
X79686961Y-124479207D01*
X79686961Y-124479207D02*
X79782200Y-124383969D01*
X79782200Y-124383969D02*
X79829819Y-124288731D01*
X79829819Y-124288731D02*
X79829819Y-124098255D01*
X79829819Y-124098255D02*
X79782200Y-124003017D01*
X79782200Y-124003017D02*
X79686961Y-123907779D01*
X79686961Y-123907779D02*
X79496485Y-123860160D01*
X79496485Y-123860160D02*
X79163152Y-123860160D01*
X79163152Y-123860160D02*
X78972676Y-123907779D01*
X78972676Y-123907779D02*
X78877438Y-124003017D01*
X78877438Y-124003017D02*
X78829819Y-124098255D01*
X79782200Y-124907779D02*
X79829819Y-125050636D01*
X79829819Y-125050636D02*
X79829819Y-125288731D01*
X79829819Y-125288731D02*
X79782200Y-125383969D01*
X79782200Y-125383969D02*
X79734580Y-125431588D01*
X79734580Y-125431588D02*
X79639342Y-125479207D01*
X79639342Y-125479207D02*
X79544104Y-125479207D01*
X79544104Y-125479207D02*
X79448866Y-125431588D01*
X79448866Y-125431588D02*
X79401247Y-125383969D01*
X79401247Y-125383969D02*
X79353628Y-125288731D01*
X79353628Y-125288731D02*
X79306009Y-125098255D01*
X79306009Y-125098255D02*
X79258390Y-125003017D01*
X79258390Y-125003017D02*
X79210771Y-124955398D01*
X79210771Y-124955398D02*
X79115533Y-124907779D01*
X79115533Y-124907779D02*
X79020295Y-124907779D01*
X79020295Y-124907779D02*
X78925057Y-124955398D01*
X78925057Y-124955398D02*
X78877438Y-125003017D01*
X78877438Y-125003017D02*
X78829819Y-125098255D01*
X78829819Y-125098255D02*
X78829819Y-125336350D01*
X78829819Y-125336350D02*
X78877438Y-125479207D01*
X79734580Y-126479207D02*
X79782200Y-126431588D01*
X79782200Y-126431588D02*
X79829819Y-126288731D01*
X79829819Y-126288731D02*
X79829819Y-126193493D01*
X79829819Y-126193493D02*
X79782200Y-126050636D01*
X79782200Y-126050636D02*
X79686961Y-125955398D01*
X79686961Y-125955398D02*
X79591723Y-125907779D01*
X79591723Y-125907779D02*
X79401247Y-125860160D01*
X79401247Y-125860160D02*
X79258390Y-125860160D01*
X79258390Y-125860160D02*
X79067914Y-125907779D01*
X79067914Y-125907779D02*
X78972676Y-125955398D01*
X78972676Y-125955398D02*
X78877438Y-126050636D01*
X78877438Y-126050636D02*
X78829819Y-126193493D01*
X78829819Y-126193493D02*
X78829819Y-126288731D01*
X78829819Y-126288731D02*
X78877438Y-126431588D01*
X78877438Y-126431588D02*
X78925057Y-126479207D01*
X123009819Y-123907779D02*
X122009819Y-123907779D01*
X122009819Y-124574445D02*
X122009819Y-124764921D01*
X122009819Y-124764921D02*
X122057438Y-124860159D01*
X122057438Y-124860159D02*
X122152676Y-124955397D01*
X122152676Y-124955397D02*
X122343152Y-125003016D01*
X122343152Y-125003016D02*
X122676485Y-125003016D01*
X122676485Y-125003016D02*
X122866961Y-124955397D01*
X122866961Y-124955397D02*
X122962200Y-124860159D01*
X122962200Y-124860159D02*
X123009819Y-124764921D01*
X123009819Y-124764921D02*
X123009819Y-124574445D01*
X123009819Y-124574445D02*
X122962200Y-124479207D01*
X122962200Y-124479207D02*
X122866961Y-124383969D01*
X122866961Y-124383969D02*
X122676485Y-124336350D01*
X122676485Y-124336350D02*
X122343152Y-124336350D01*
X122343152Y-124336350D02*
X122152676Y-124383969D01*
X122152676Y-124383969D02*
X122057438Y-124479207D01*
X122057438Y-124479207D02*
X122009819Y-124574445D01*
X122009819Y-125336350D02*
X123009819Y-125574445D01*
X123009819Y-125574445D02*
X122295533Y-125764921D01*
X122295533Y-125764921D02*
X123009819Y-125955397D01*
X123009819Y-125955397D02*
X122009819Y-126193493D01*
X121732200Y-123769684D02*
X121732200Y-126236350D01*
X132788866Y-123907779D02*
X132788866Y-124669684D01*
X133169819Y-124288731D02*
X132407914Y-124288731D01*
X133169819Y-125669683D02*
X133169819Y-125098255D01*
X133169819Y-125383969D02*
X132169819Y-125383969D01*
X132169819Y-125383969D02*
X132312676Y-125288731D01*
X132312676Y-125288731D02*
X132407914Y-125193493D01*
X132407914Y-125193493D02*
X132455533Y-125098255D01*
X132265057Y-126050636D02*
X132217438Y-126098255D01*
X132217438Y-126098255D02*
X132169819Y-126193493D01*
X132169819Y-126193493D02*
X132169819Y-126431588D01*
X132169819Y-126431588D02*
X132217438Y-126526826D01*
X132217438Y-126526826D02*
X132265057Y-126574445D01*
X132265057Y-126574445D02*
X132360295Y-126622064D01*
X132360295Y-126622064D02*
X132455533Y-126622064D01*
X132455533Y-126622064D02*
X132598390Y-126574445D01*
X132598390Y-126574445D02*
X133169819Y-126003017D01*
X133169819Y-126003017D02*
X133169819Y-126622064D01*
X132169819Y-126907779D02*
X133169819Y-127241112D01*
X133169819Y-127241112D02*
X132169819Y-127574445D01*
X115389819Y-123907779D02*
X114389819Y-123907779D01*
X114389819Y-123907779D02*
X114389819Y-124145874D01*
X114389819Y-124145874D02*
X114437438Y-124288731D01*
X114437438Y-124288731D02*
X114532676Y-124383969D01*
X114532676Y-124383969D02*
X114627914Y-124431588D01*
X114627914Y-124431588D02*
X114818390Y-124479207D01*
X114818390Y-124479207D02*
X114961247Y-124479207D01*
X114961247Y-124479207D02*
X115151723Y-124431588D01*
X115151723Y-124431588D02*
X115246961Y-124383969D01*
X115246961Y-124383969D02*
X115342200Y-124288731D01*
X115342200Y-124288731D02*
X115389819Y-124145874D01*
X115389819Y-124145874D02*
X115389819Y-123907779D01*
X115389819Y-125479207D02*
X114913628Y-125145874D01*
X115389819Y-124907779D02*
X114389819Y-124907779D01*
X114389819Y-124907779D02*
X114389819Y-125288731D01*
X114389819Y-125288731D02*
X114437438Y-125383969D01*
X114437438Y-125383969D02*
X114485057Y-125431588D01*
X114485057Y-125431588D02*
X114580295Y-125479207D01*
X114580295Y-125479207D02*
X114723152Y-125479207D01*
X114723152Y-125479207D02*
X114818390Y-125431588D01*
X114818390Y-125431588D02*
X114866009Y-125383969D01*
X114866009Y-125383969D02*
X114913628Y-125288731D01*
X114913628Y-125288731D02*
X114913628Y-124907779D01*
X115485057Y-126574445D02*
X115437438Y-126479207D01*
X115437438Y-126479207D02*
X115342200Y-126383969D01*
X115342200Y-126383969D02*
X115199342Y-126241112D01*
X115199342Y-126241112D02*
X115151723Y-126145874D01*
X115151723Y-126145874D02*
X115151723Y-126050636D01*
X115389819Y-126098255D02*
X115342200Y-126003017D01*
X115342200Y-126003017D02*
X115246961Y-125907779D01*
X115246961Y-125907779D02*
X115056485Y-125860160D01*
X115056485Y-125860160D02*
X114723152Y-125860160D01*
X114723152Y-125860160D02*
X114532676Y-125907779D01*
X114532676Y-125907779D02*
X114437438Y-126003017D01*
X114437438Y-126003017D02*
X114389819Y-126098255D01*
X114389819Y-126098255D02*
X114389819Y-126288731D01*
X114389819Y-126288731D02*
X114437438Y-126383969D01*
X114437438Y-126383969D02*
X114532676Y-126479207D01*
X114532676Y-126479207D02*
X114723152Y-126526826D01*
X114723152Y-126526826D02*
X115056485Y-126526826D01*
X115056485Y-126526826D02*
X115246961Y-126479207D01*
X115246961Y-126479207D02*
X115342200Y-126383969D01*
X115342200Y-126383969D02*
X115389819Y-126288731D01*
X115389819Y-126288731D02*
X115389819Y-126098255D01*
X114389819Y-126860160D02*
X114389819Y-127479207D01*
X114389819Y-127479207D02*
X114770771Y-127145874D01*
X114770771Y-127145874D02*
X114770771Y-127288731D01*
X114770771Y-127288731D02*
X114818390Y-127383969D01*
X114818390Y-127383969D02*
X114866009Y-127431588D01*
X114866009Y-127431588D02*
X114961247Y-127479207D01*
X114961247Y-127479207D02*
X115199342Y-127479207D01*
X115199342Y-127479207D02*
X115294580Y-127431588D01*
X115294580Y-127431588D02*
X115342200Y-127383969D01*
X115342200Y-127383969D02*
X115389819Y-127288731D01*
X115389819Y-127288731D02*
X115389819Y-127003017D01*
X115389819Y-127003017D02*
X115342200Y-126907779D01*
X115342200Y-126907779D02*
X115294580Y-126860160D01*
X95069819Y-123907779D02*
X94069819Y-123907779D01*
X95069819Y-124955397D02*
X94593628Y-124622064D01*
X95069819Y-124383969D02*
X94069819Y-124383969D01*
X94069819Y-124383969D02*
X94069819Y-124764921D01*
X94069819Y-124764921D02*
X94117438Y-124860159D01*
X94117438Y-124860159D02*
X94165057Y-124907778D01*
X94165057Y-124907778D02*
X94260295Y-124955397D01*
X94260295Y-124955397D02*
X94403152Y-124955397D01*
X94403152Y-124955397D02*
X94498390Y-124907778D01*
X94498390Y-124907778D02*
X94546009Y-124860159D01*
X94546009Y-124860159D02*
X94593628Y-124764921D01*
X94593628Y-124764921D02*
X94593628Y-124383969D01*
X95165057Y-126050635D02*
X95117438Y-125955397D01*
X95117438Y-125955397D02*
X95022200Y-125860159D01*
X95022200Y-125860159D02*
X94879342Y-125717302D01*
X94879342Y-125717302D02*
X94831723Y-125622064D01*
X94831723Y-125622064D02*
X94831723Y-125526826D01*
X95069819Y-125574445D02*
X95022200Y-125479207D01*
X95022200Y-125479207D02*
X94926961Y-125383969D01*
X94926961Y-125383969D02*
X94736485Y-125336350D01*
X94736485Y-125336350D02*
X94403152Y-125336350D01*
X94403152Y-125336350D02*
X94212676Y-125383969D01*
X94212676Y-125383969D02*
X94117438Y-125479207D01*
X94117438Y-125479207D02*
X94069819Y-125574445D01*
X94069819Y-125574445D02*
X94069819Y-125764921D01*
X94069819Y-125764921D02*
X94117438Y-125860159D01*
X94117438Y-125860159D02*
X94212676Y-125955397D01*
X94212676Y-125955397D02*
X94403152Y-126003016D01*
X94403152Y-126003016D02*
X94736485Y-126003016D01*
X94736485Y-126003016D02*
X94926961Y-125955397D01*
X94926961Y-125955397D02*
X95022200Y-125860159D01*
X95022200Y-125860159D02*
X95069819Y-125764921D01*
X95069819Y-125764921D02*
X95069819Y-125574445D01*
X94403152Y-126860159D02*
X95069819Y-126860159D01*
X94022200Y-126622064D02*
X94736485Y-126383969D01*
X94736485Y-126383969D02*
X94736485Y-127003016D01*
X92529819Y-123907779D02*
X91529819Y-123907779D01*
X92529819Y-124955397D02*
X92053628Y-124622064D01*
X92529819Y-124383969D02*
X91529819Y-124383969D01*
X91529819Y-124383969D02*
X91529819Y-124764921D01*
X91529819Y-124764921D02*
X91577438Y-124860159D01*
X91577438Y-124860159D02*
X91625057Y-124907778D01*
X91625057Y-124907778D02*
X91720295Y-124955397D01*
X91720295Y-124955397D02*
X91863152Y-124955397D01*
X91863152Y-124955397D02*
X91958390Y-124907778D01*
X91958390Y-124907778D02*
X92006009Y-124860159D01*
X92006009Y-124860159D02*
X92053628Y-124764921D01*
X92053628Y-124764921D02*
X92053628Y-124383969D01*
X92625057Y-126050635D02*
X92577438Y-125955397D01*
X92577438Y-125955397D02*
X92482200Y-125860159D01*
X92482200Y-125860159D02*
X92339342Y-125717302D01*
X92339342Y-125717302D02*
X92291723Y-125622064D01*
X92291723Y-125622064D02*
X92291723Y-125526826D01*
X92529819Y-125574445D02*
X92482200Y-125479207D01*
X92482200Y-125479207D02*
X92386961Y-125383969D01*
X92386961Y-125383969D02*
X92196485Y-125336350D01*
X92196485Y-125336350D02*
X91863152Y-125336350D01*
X91863152Y-125336350D02*
X91672676Y-125383969D01*
X91672676Y-125383969D02*
X91577438Y-125479207D01*
X91577438Y-125479207D02*
X91529819Y-125574445D01*
X91529819Y-125574445D02*
X91529819Y-125764921D01*
X91529819Y-125764921D02*
X91577438Y-125860159D01*
X91577438Y-125860159D02*
X91672676Y-125955397D01*
X91672676Y-125955397D02*
X91863152Y-126003016D01*
X91863152Y-126003016D02*
X92196485Y-126003016D01*
X92196485Y-126003016D02*
X92386961Y-125955397D01*
X92386961Y-125955397D02*
X92482200Y-125860159D01*
X92482200Y-125860159D02*
X92529819Y-125764921D01*
X92529819Y-125764921D02*
X92529819Y-125574445D01*
X91529819Y-126336350D02*
X91529819Y-126955397D01*
X91529819Y-126955397D02*
X91910771Y-126622064D01*
X91910771Y-126622064D02*
X91910771Y-126764921D01*
X91910771Y-126764921D02*
X91958390Y-126860159D01*
X91958390Y-126860159D02*
X92006009Y-126907778D01*
X92006009Y-126907778D02*
X92101247Y-126955397D01*
X92101247Y-126955397D02*
X92339342Y-126955397D01*
X92339342Y-126955397D02*
X92434580Y-126907778D01*
X92434580Y-126907778D02*
X92482200Y-126860159D01*
X92482200Y-126860159D02*
X92529819Y-126764921D01*
X92529819Y-126764921D02*
X92529819Y-126479207D01*
X92529819Y-126479207D02*
X92482200Y-126383969D01*
X92482200Y-126383969D02*
X92434580Y-126336350D01*
X81988866Y-123907779D02*
X81988866Y-124669684D01*
X82369819Y-124288731D02*
X81607914Y-124288731D01*
X81369819Y-125622064D02*
X81369819Y-125145874D01*
X81369819Y-125145874D02*
X81846009Y-125098255D01*
X81846009Y-125098255D02*
X81798390Y-125145874D01*
X81798390Y-125145874D02*
X81750771Y-125241112D01*
X81750771Y-125241112D02*
X81750771Y-125479207D01*
X81750771Y-125479207D02*
X81798390Y-125574445D01*
X81798390Y-125574445D02*
X81846009Y-125622064D01*
X81846009Y-125622064D02*
X81941247Y-125669683D01*
X81941247Y-125669683D02*
X82179342Y-125669683D01*
X82179342Y-125669683D02*
X82274580Y-125622064D01*
X82274580Y-125622064D02*
X82322200Y-125574445D01*
X82322200Y-125574445D02*
X82369819Y-125479207D01*
X82369819Y-125479207D02*
X82369819Y-125241112D01*
X82369819Y-125241112D02*
X82322200Y-125145874D01*
X82322200Y-125145874D02*
X82274580Y-125098255D01*
X81369819Y-125955398D02*
X82369819Y-126288731D01*
X82369819Y-126288731D02*
X81369819Y-126622064D01*
X97609819Y-123907779D02*
X96609819Y-123907779D01*
X97609819Y-124955397D02*
X97133628Y-124622064D01*
X97609819Y-124383969D02*
X96609819Y-124383969D01*
X96609819Y-124383969D02*
X96609819Y-124764921D01*
X96609819Y-124764921D02*
X96657438Y-124860159D01*
X96657438Y-124860159D02*
X96705057Y-124907778D01*
X96705057Y-124907778D02*
X96800295Y-124955397D01*
X96800295Y-124955397D02*
X96943152Y-124955397D01*
X96943152Y-124955397D02*
X97038390Y-124907778D01*
X97038390Y-124907778D02*
X97086009Y-124860159D01*
X97086009Y-124860159D02*
X97133628Y-124764921D01*
X97133628Y-124764921D02*
X97133628Y-124383969D01*
X97705057Y-126050635D02*
X97657438Y-125955397D01*
X97657438Y-125955397D02*
X97562200Y-125860159D01*
X97562200Y-125860159D02*
X97419342Y-125717302D01*
X97419342Y-125717302D02*
X97371723Y-125622064D01*
X97371723Y-125622064D02*
X97371723Y-125526826D01*
X97609819Y-125574445D02*
X97562200Y-125479207D01*
X97562200Y-125479207D02*
X97466961Y-125383969D01*
X97466961Y-125383969D02*
X97276485Y-125336350D01*
X97276485Y-125336350D02*
X96943152Y-125336350D01*
X96943152Y-125336350D02*
X96752676Y-125383969D01*
X96752676Y-125383969D02*
X96657438Y-125479207D01*
X96657438Y-125479207D02*
X96609819Y-125574445D01*
X96609819Y-125574445D02*
X96609819Y-125764921D01*
X96609819Y-125764921D02*
X96657438Y-125860159D01*
X96657438Y-125860159D02*
X96752676Y-125955397D01*
X96752676Y-125955397D02*
X96943152Y-126003016D01*
X96943152Y-126003016D02*
X97276485Y-126003016D01*
X97276485Y-126003016D02*
X97466961Y-125955397D01*
X97466961Y-125955397D02*
X97562200Y-125860159D01*
X97562200Y-125860159D02*
X97609819Y-125764921D01*
X97609819Y-125764921D02*
X97609819Y-125574445D01*
X96609819Y-126907778D02*
X96609819Y-126431588D01*
X96609819Y-126431588D02*
X97086009Y-126383969D01*
X97086009Y-126383969D02*
X97038390Y-126431588D01*
X97038390Y-126431588D02*
X96990771Y-126526826D01*
X96990771Y-126526826D02*
X96990771Y-126764921D01*
X96990771Y-126764921D02*
X97038390Y-126860159D01*
X97038390Y-126860159D02*
X97086009Y-126907778D01*
X97086009Y-126907778D02*
X97181247Y-126955397D01*
X97181247Y-126955397D02*
X97419342Y-126955397D01*
X97419342Y-126955397D02*
X97514580Y-126907778D01*
X97514580Y-126907778D02*
X97562200Y-126860159D01*
X97562200Y-126860159D02*
X97609819Y-126764921D01*
X97609819Y-126764921D02*
X97609819Y-126526826D01*
X97609819Y-126526826D02*
X97562200Y-126431588D01*
X97562200Y-126431588D02*
X97514580Y-126383969D01*
X128089819Y-123907779D02*
X127089819Y-123907779D01*
X127089819Y-123907779D02*
X127804104Y-124241112D01*
X127804104Y-124241112D02*
X127089819Y-124574445D01*
X127089819Y-124574445D02*
X128089819Y-124574445D01*
X127566009Y-125050636D02*
X127566009Y-125383969D01*
X128089819Y-125526826D02*
X128089819Y-125050636D01*
X128089819Y-125050636D02*
X127089819Y-125050636D01*
X127089819Y-125050636D02*
X127089819Y-125526826D01*
X128089819Y-125955398D02*
X127089819Y-125955398D01*
X127089819Y-125955398D02*
X127804104Y-126288731D01*
X127804104Y-126288731D02*
X127089819Y-126622064D01*
X127089819Y-126622064D02*
X128089819Y-126622064D01*
X127089819Y-127003017D02*
X128089819Y-127241112D01*
X128089819Y-127241112D02*
X127375533Y-127431588D01*
X127375533Y-127431588D02*
X128089819Y-127622064D01*
X128089819Y-127622064D02*
X127089819Y-127860160D01*
X126812200Y-123769684D02*
X126812200Y-127903017D01*
X89989819Y-123907779D02*
X88989819Y-123907779D01*
X88989819Y-123907779D02*
X88989819Y-124145874D01*
X88989819Y-124145874D02*
X89037438Y-124288731D01*
X89037438Y-124288731D02*
X89132676Y-124383969D01*
X89132676Y-124383969D02*
X89227914Y-124431588D01*
X89227914Y-124431588D02*
X89418390Y-124479207D01*
X89418390Y-124479207D02*
X89561247Y-124479207D01*
X89561247Y-124479207D02*
X89751723Y-124431588D01*
X89751723Y-124431588D02*
X89846961Y-124383969D01*
X89846961Y-124383969D02*
X89942200Y-124288731D01*
X89942200Y-124288731D02*
X89989819Y-124145874D01*
X89989819Y-124145874D02*
X89989819Y-123907779D01*
X89704104Y-124860160D02*
X89704104Y-125336350D01*
X89989819Y-124764922D02*
X88989819Y-125098255D01*
X88989819Y-125098255D02*
X89989819Y-125431588D01*
X89894580Y-126336350D02*
X89942200Y-126288731D01*
X89942200Y-126288731D02*
X89989819Y-126145874D01*
X89989819Y-126145874D02*
X89989819Y-126050636D01*
X89989819Y-126050636D02*
X89942200Y-125907779D01*
X89942200Y-125907779D02*
X89846961Y-125812541D01*
X89846961Y-125812541D02*
X89751723Y-125764922D01*
X89751723Y-125764922D02*
X89561247Y-125717303D01*
X89561247Y-125717303D02*
X89418390Y-125717303D01*
X89418390Y-125717303D02*
X89227914Y-125764922D01*
X89227914Y-125764922D02*
X89132676Y-125812541D01*
X89132676Y-125812541D02*
X89037438Y-125907779D01*
X89037438Y-125907779D02*
X88989819Y-126050636D01*
X88989819Y-126050636D02*
X88989819Y-126145874D01*
X88989819Y-126145874D02*
X89037438Y-126288731D01*
X89037438Y-126288731D02*
X89085057Y-126336350D01*
X89989819Y-126764922D02*
X88989819Y-126764922D01*
X89989819Y-127336350D02*
X89418390Y-126907779D01*
X88989819Y-127336350D02*
X89561247Y-126764922D01*
X89085057Y-127717303D02*
X89037438Y-127764922D01*
X89037438Y-127764922D02*
X88989819Y-127860160D01*
X88989819Y-127860160D02*
X88989819Y-128098255D01*
X88989819Y-128098255D02*
X89037438Y-128193493D01*
X89037438Y-128193493D02*
X89085057Y-128241112D01*
X89085057Y-128241112D02*
X89180295Y-128288731D01*
X89180295Y-128288731D02*
X89275533Y-128288731D01*
X89275533Y-128288731D02*
X89418390Y-128241112D01*
X89418390Y-128241112D02*
X89989819Y-127669684D01*
X89989819Y-127669684D02*
X89989819Y-128288731D01*
X88712200Y-123769684D02*
X88712200Y-128379208D01*
X135614580Y-124479207D02*
X135662200Y-124431588D01*
X135662200Y-124431588D02*
X135709819Y-124288731D01*
X135709819Y-124288731D02*
X135709819Y-124193493D01*
X135709819Y-124193493D02*
X135662200Y-124050636D01*
X135662200Y-124050636D02*
X135566961Y-123955398D01*
X135566961Y-123955398D02*
X135471723Y-123907779D01*
X135471723Y-123907779D02*
X135281247Y-123860160D01*
X135281247Y-123860160D02*
X135138390Y-123860160D01*
X135138390Y-123860160D02*
X134947914Y-123907779D01*
X134947914Y-123907779D02*
X134852676Y-123955398D01*
X134852676Y-123955398D02*
X134757438Y-124050636D01*
X134757438Y-124050636D02*
X134709819Y-124193493D01*
X134709819Y-124193493D02*
X134709819Y-124288731D01*
X134709819Y-124288731D02*
X134757438Y-124431588D01*
X134757438Y-124431588D02*
X134805057Y-124479207D01*
X135424104Y-124860160D02*
X135424104Y-125336350D01*
X135709819Y-124764922D02*
X134709819Y-125098255D01*
X134709819Y-125098255D02*
X135709819Y-125431588D01*
X135709819Y-126336350D02*
X135233628Y-126003017D01*
X135709819Y-125764922D02*
X134709819Y-125764922D01*
X134709819Y-125764922D02*
X134709819Y-126145874D01*
X134709819Y-126145874D02*
X134757438Y-126241112D01*
X134757438Y-126241112D02*
X134805057Y-126288731D01*
X134805057Y-126288731D02*
X134900295Y-126336350D01*
X134900295Y-126336350D02*
X135043152Y-126336350D01*
X135043152Y-126336350D02*
X135138390Y-126288731D01*
X135138390Y-126288731D02*
X135186009Y-126241112D01*
X135186009Y-126241112D02*
X135233628Y-126145874D01*
X135233628Y-126145874D02*
X135233628Y-125764922D01*
X135709819Y-126764922D02*
X134709819Y-126764922D01*
X134709819Y-126764922D02*
X134709819Y-127003017D01*
X134709819Y-127003017D02*
X134757438Y-127145874D01*
X134757438Y-127145874D02*
X134852676Y-127241112D01*
X134852676Y-127241112D02*
X134947914Y-127288731D01*
X134947914Y-127288731D02*
X135138390Y-127336350D01*
X135138390Y-127336350D02*
X135281247Y-127336350D01*
X135281247Y-127336350D02*
X135471723Y-127288731D01*
X135471723Y-127288731D02*
X135566961Y-127241112D01*
X135566961Y-127241112D02*
X135662200Y-127145874D01*
X135662200Y-127145874D02*
X135709819Y-127003017D01*
X135709819Y-127003017D02*
X135709819Y-126764922D01*
X135662200Y-127717303D02*
X135709819Y-127860160D01*
X135709819Y-127860160D02*
X135709819Y-128098255D01*
X135709819Y-128098255D02*
X135662200Y-128193493D01*
X135662200Y-128193493D02*
X135614580Y-128241112D01*
X135614580Y-128241112D02*
X135519342Y-128288731D01*
X135519342Y-128288731D02*
X135424104Y-128288731D01*
X135424104Y-128288731D02*
X135328866Y-128241112D01*
X135328866Y-128241112D02*
X135281247Y-128193493D01*
X135281247Y-128193493D02*
X135233628Y-128098255D01*
X135233628Y-128098255D02*
X135186009Y-127907779D01*
X135186009Y-127907779D02*
X135138390Y-127812541D01*
X135138390Y-127812541D02*
X135090771Y-127764922D01*
X135090771Y-127764922D02*
X134995533Y-127717303D01*
X134995533Y-127717303D02*
X134900295Y-127717303D01*
X134900295Y-127717303D02*
X134805057Y-127764922D01*
X134805057Y-127764922D02*
X134757438Y-127812541D01*
X134757438Y-127812541D02*
X134709819Y-127907779D01*
X134709819Y-127907779D02*
X134709819Y-128145874D01*
X134709819Y-128145874D02*
X134757438Y-128288731D01*
X135186009Y-128717303D02*
X135186009Y-129050636D01*
X135709819Y-129193493D02*
X135709819Y-128717303D01*
X135709819Y-128717303D02*
X134709819Y-128717303D01*
X134709819Y-128717303D02*
X134709819Y-129193493D01*
X135709819Y-130098255D02*
X135709819Y-129622065D01*
X135709819Y-129622065D02*
X134709819Y-129622065D01*
X77004104Y-116392268D02*
X77004104Y-116868458D01*
X77289819Y-116297030D02*
X76289819Y-116630363D01*
X76289819Y-116630363D02*
X77289819Y-116963696D01*
X76289819Y-117487506D02*
X76289819Y-117582744D01*
X76289819Y-117582744D02*
X76337438Y-117677982D01*
X76337438Y-117677982D02*
X76385057Y-117725601D01*
X76385057Y-117725601D02*
X76480295Y-117773220D01*
X76480295Y-117773220D02*
X76670771Y-117820839D01*
X76670771Y-117820839D02*
X76908866Y-117820839D01*
X76908866Y-117820839D02*
X77099342Y-117773220D01*
X77099342Y-117773220D02*
X77194580Y-117725601D01*
X77194580Y-117725601D02*
X77242200Y-117677982D01*
X77242200Y-117677982D02*
X77289819Y-117582744D01*
X77289819Y-117582744D02*
X77289819Y-117487506D01*
X77289819Y-117487506D02*
X77242200Y-117392268D01*
X77242200Y-117392268D02*
X77194580Y-117344649D01*
X77194580Y-117344649D02*
X77099342Y-117297030D01*
X77099342Y-117297030D02*
X76908866Y-117249411D01*
X76908866Y-117249411D02*
X76670771Y-117249411D01*
X76670771Y-117249411D02*
X76480295Y-117297030D01*
X76480295Y-117297030D02*
X76385057Y-117344649D01*
X76385057Y-117344649D02*
X76337438Y-117392268D01*
X76337438Y-117392268D02*
X76289819Y-117487506D01*
X110309819Y-123907779D02*
X109309819Y-123907779D01*
X109309819Y-123907779D02*
X109309819Y-124145874D01*
X109309819Y-124145874D02*
X109357438Y-124288731D01*
X109357438Y-124288731D02*
X109452676Y-124383969D01*
X109452676Y-124383969D02*
X109547914Y-124431588D01*
X109547914Y-124431588D02*
X109738390Y-124479207D01*
X109738390Y-124479207D02*
X109881247Y-124479207D01*
X109881247Y-124479207D02*
X110071723Y-124431588D01*
X110071723Y-124431588D02*
X110166961Y-124383969D01*
X110166961Y-124383969D02*
X110262200Y-124288731D01*
X110262200Y-124288731D02*
X110309819Y-124145874D01*
X110309819Y-124145874D02*
X110309819Y-123907779D01*
X110309819Y-125479207D02*
X109833628Y-125145874D01*
X110309819Y-124907779D02*
X109309819Y-124907779D01*
X109309819Y-124907779D02*
X109309819Y-125288731D01*
X109309819Y-125288731D02*
X109357438Y-125383969D01*
X109357438Y-125383969D02*
X109405057Y-125431588D01*
X109405057Y-125431588D02*
X109500295Y-125479207D01*
X109500295Y-125479207D02*
X109643152Y-125479207D01*
X109643152Y-125479207D02*
X109738390Y-125431588D01*
X109738390Y-125431588D02*
X109786009Y-125383969D01*
X109786009Y-125383969D02*
X109833628Y-125288731D01*
X109833628Y-125288731D02*
X109833628Y-124907779D01*
X110405057Y-126574445D02*
X110357438Y-126479207D01*
X110357438Y-126479207D02*
X110262200Y-126383969D01*
X110262200Y-126383969D02*
X110119342Y-126241112D01*
X110119342Y-126241112D02*
X110071723Y-126145874D01*
X110071723Y-126145874D02*
X110071723Y-126050636D01*
X110309819Y-126098255D02*
X110262200Y-126003017D01*
X110262200Y-126003017D02*
X110166961Y-125907779D01*
X110166961Y-125907779D02*
X109976485Y-125860160D01*
X109976485Y-125860160D02*
X109643152Y-125860160D01*
X109643152Y-125860160D02*
X109452676Y-125907779D01*
X109452676Y-125907779D02*
X109357438Y-126003017D01*
X109357438Y-126003017D02*
X109309819Y-126098255D01*
X109309819Y-126098255D02*
X109309819Y-126288731D01*
X109309819Y-126288731D02*
X109357438Y-126383969D01*
X109357438Y-126383969D02*
X109452676Y-126479207D01*
X109452676Y-126479207D02*
X109643152Y-126526826D01*
X109643152Y-126526826D02*
X109976485Y-126526826D01*
X109976485Y-126526826D02*
X110166961Y-126479207D01*
X110166961Y-126479207D02*
X110262200Y-126383969D01*
X110262200Y-126383969D02*
X110309819Y-126288731D01*
X110309819Y-126288731D02*
X110309819Y-126098255D01*
X110309819Y-127479207D02*
X110309819Y-126907779D01*
X110309819Y-127193493D02*
X109309819Y-127193493D01*
X109309819Y-127193493D02*
X109452676Y-127098255D01*
X109452676Y-127098255D02*
X109547914Y-127003017D01*
X109547914Y-127003017D02*
X109595533Y-126907779D01*
X117929819Y-123907779D02*
X116929819Y-123907779D01*
X116929819Y-123907779D02*
X116929819Y-124145874D01*
X116929819Y-124145874D02*
X116977438Y-124288731D01*
X116977438Y-124288731D02*
X117072676Y-124383969D01*
X117072676Y-124383969D02*
X117167914Y-124431588D01*
X117167914Y-124431588D02*
X117358390Y-124479207D01*
X117358390Y-124479207D02*
X117501247Y-124479207D01*
X117501247Y-124479207D02*
X117691723Y-124431588D01*
X117691723Y-124431588D02*
X117786961Y-124383969D01*
X117786961Y-124383969D02*
X117882200Y-124288731D01*
X117882200Y-124288731D02*
X117929819Y-124145874D01*
X117929819Y-124145874D02*
X117929819Y-123907779D01*
X117644104Y-124860160D02*
X117644104Y-125336350D01*
X117929819Y-124764922D02*
X116929819Y-125098255D01*
X116929819Y-125098255D02*
X117929819Y-125431588D01*
X117834580Y-126336350D02*
X117882200Y-126288731D01*
X117882200Y-126288731D02*
X117929819Y-126145874D01*
X117929819Y-126145874D02*
X117929819Y-126050636D01*
X117929819Y-126050636D02*
X117882200Y-125907779D01*
X117882200Y-125907779D02*
X117786961Y-125812541D01*
X117786961Y-125812541D02*
X117691723Y-125764922D01*
X117691723Y-125764922D02*
X117501247Y-125717303D01*
X117501247Y-125717303D02*
X117358390Y-125717303D01*
X117358390Y-125717303D02*
X117167914Y-125764922D01*
X117167914Y-125764922D02*
X117072676Y-125812541D01*
X117072676Y-125812541D02*
X116977438Y-125907779D01*
X116977438Y-125907779D02*
X116929819Y-126050636D01*
X116929819Y-126050636D02*
X116929819Y-126145874D01*
X116929819Y-126145874D02*
X116977438Y-126288731D01*
X116977438Y-126288731D02*
X117025057Y-126336350D01*
X117929819Y-126764922D02*
X116929819Y-126764922D01*
X117929819Y-127336350D02*
X117358390Y-126907779D01*
X116929819Y-127336350D02*
X117501247Y-126764922D01*
X116929819Y-127669684D02*
X116929819Y-128288731D01*
X116929819Y-128288731D02*
X117310771Y-127955398D01*
X117310771Y-127955398D02*
X117310771Y-128098255D01*
X117310771Y-128098255D02*
X117358390Y-128193493D01*
X117358390Y-128193493D02*
X117406009Y-128241112D01*
X117406009Y-128241112D02*
X117501247Y-128288731D01*
X117501247Y-128288731D02*
X117739342Y-128288731D01*
X117739342Y-128288731D02*
X117834580Y-128241112D01*
X117834580Y-128241112D02*
X117882200Y-128193493D01*
X117882200Y-128193493D02*
X117929819Y-128098255D01*
X117929819Y-128098255D02*
X117929819Y-127812541D01*
X117929819Y-127812541D02*
X117882200Y-127717303D01*
X117882200Y-127717303D02*
X117834580Y-127669684D01*
X116652200Y-123769684D02*
X116652200Y-128379208D01*
X79544104Y-116392268D02*
X79544104Y-116868458D01*
X79829819Y-116297030D02*
X78829819Y-116630363D01*
X78829819Y-116630363D02*
X79829819Y-116963696D01*
X79829819Y-117820839D02*
X79829819Y-117249411D01*
X79829819Y-117535125D02*
X78829819Y-117535125D01*
X78829819Y-117535125D02*
X78972676Y-117439887D01*
X78972676Y-117439887D02*
X79067914Y-117344649D01*
X79067914Y-117344649D02*
X79115533Y-117249411D01*
X125549819Y-123907779D02*
X124549819Y-123907779D01*
X124549819Y-123907779D02*
X125264104Y-124241112D01*
X125264104Y-124241112D02*
X124549819Y-124574445D01*
X124549819Y-124574445D02*
X125549819Y-124574445D01*
X125026009Y-125050636D02*
X125026009Y-125383969D01*
X125549819Y-125526826D02*
X125549819Y-125050636D01*
X125549819Y-125050636D02*
X124549819Y-125050636D01*
X124549819Y-125050636D02*
X124549819Y-125526826D01*
X125549819Y-125955398D02*
X124549819Y-125955398D01*
X124549819Y-125955398D02*
X125264104Y-126288731D01*
X125264104Y-126288731D02*
X124549819Y-126622064D01*
X124549819Y-126622064D02*
X125549819Y-126622064D01*
X125549819Y-127669683D02*
X125073628Y-127336350D01*
X125549819Y-127098255D02*
X124549819Y-127098255D01*
X124549819Y-127098255D02*
X124549819Y-127479207D01*
X124549819Y-127479207D02*
X124597438Y-127574445D01*
X124597438Y-127574445D02*
X124645057Y-127622064D01*
X124645057Y-127622064D02*
X124740295Y-127669683D01*
X124740295Y-127669683D02*
X124883152Y-127669683D01*
X124883152Y-127669683D02*
X124978390Y-127622064D01*
X124978390Y-127622064D02*
X125026009Y-127574445D01*
X125026009Y-127574445D02*
X125073628Y-127479207D01*
X125073628Y-127479207D02*
X125073628Y-127098255D01*
X124272200Y-123769684D02*
X124272200Y-127760160D01*
X137868866Y-123907779D02*
X137868866Y-124669684D01*
X138249819Y-125669683D02*
X138249819Y-125098255D01*
X138249819Y-125383969D02*
X137249819Y-125383969D01*
X137249819Y-125383969D02*
X137392676Y-125288731D01*
X137392676Y-125288731D02*
X137487914Y-125193493D01*
X137487914Y-125193493D02*
X137535533Y-125098255D01*
X137345057Y-126050636D02*
X137297438Y-126098255D01*
X137297438Y-126098255D02*
X137249819Y-126193493D01*
X137249819Y-126193493D02*
X137249819Y-126431588D01*
X137249819Y-126431588D02*
X137297438Y-126526826D01*
X137297438Y-126526826D02*
X137345057Y-126574445D01*
X137345057Y-126574445D02*
X137440295Y-126622064D01*
X137440295Y-126622064D02*
X137535533Y-126622064D01*
X137535533Y-126622064D02*
X137678390Y-126574445D01*
X137678390Y-126574445D02*
X138249819Y-126003017D01*
X138249819Y-126003017D02*
X138249819Y-126622064D01*
X137249819Y-126907779D02*
X138249819Y-127241112D01*
X138249819Y-127241112D02*
X137249819Y-127574445D01*
X107769819Y-123907779D02*
X106769819Y-123907779D01*
X106769819Y-123907779D02*
X106769819Y-124145874D01*
X106769819Y-124145874D02*
X106817438Y-124288731D01*
X106817438Y-124288731D02*
X106912676Y-124383969D01*
X106912676Y-124383969D02*
X107007914Y-124431588D01*
X107007914Y-124431588D02*
X107198390Y-124479207D01*
X107198390Y-124479207D02*
X107341247Y-124479207D01*
X107341247Y-124479207D02*
X107531723Y-124431588D01*
X107531723Y-124431588D02*
X107626961Y-124383969D01*
X107626961Y-124383969D02*
X107722200Y-124288731D01*
X107722200Y-124288731D02*
X107769819Y-124145874D01*
X107769819Y-124145874D02*
X107769819Y-123907779D01*
X107484104Y-124860160D02*
X107484104Y-125336350D01*
X107769819Y-124764922D02*
X106769819Y-125098255D01*
X106769819Y-125098255D02*
X107769819Y-125431588D01*
X107674580Y-126336350D02*
X107722200Y-126288731D01*
X107722200Y-126288731D02*
X107769819Y-126145874D01*
X107769819Y-126145874D02*
X107769819Y-126050636D01*
X107769819Y-126050636D02*
X107722200Y-125907779D01*
X107722200Y-125907779D02*
X107626961Y-125812541D01*
X107626961Y-125812541D02*
X107531723Y-125764922D01*
X107531723Y-125764922D02*
X107341247Y-125717303D01*
X107341247Y-125717303D02*
X107198390Y-125717303D01*
X107198390Y-125717303D02*
X107007914Y-125764922D01*
X107007914Y-125764922D02*
X106912676Y-125812541D01*
X106912676Y-125812541D02*
X106817438Y-125907779D01*
X106817438Y-125907779D02*
X106769819Y-126050636D01*
X106769819Y-126050636D02*
X106769819Y-126145874D01*
X106769819Y-126145874D02*
X106817438Y-126288731D01*
X106817438Y-126288731D02*
X106865057Y-126336350D01*
X107769819Y-126764922D02*
X106769819Y-126764922D01*
X107769819Y-127336350D02*
X107198390Y-126907779D01*
X106769819Y-127336350D02*
X107341247Y-126764922D01*
X106769819Y-127955398D02*
X106769819Y-128050636D01*
X106769819Y-128050636D02*
X106817438Y-128145874D01*
X106817438Y-128145874D02*
X106865057Y-128193493D01*
X106865057Y-128193493D02*
X106960295Y-128241112D01*
X106960295Y-128241112D02*
X107150771Y-128288731D01*
X107150771Y-128288731D02*
X107388866Y-128288731D01*
X107388866Y-128288731D02*
X107579342Y-128241112D01*
X107579342Y-128241112D02*
X107674580Y-128193493D01*
X107674580Y-128193493D02*
X107722200Y-128145874D01*
X107722200Y-128145874D02*
X107769819Y-128050636D01*
X107769819Y-128050636D02*
X107769819Y-127955398D01*
X107769819Y-127955398D02*
X107722200Y-127860160D01*
X107722200Y-127860160D02*
X107674580Y-127812541D01*
X107674580Y-127812541D02*
X107579342Y-127764922D01*
X107579342Y-127764922D02*
X107388866Y-127717303D01*
X107388866Y-127717303D02*
X107150771Y-127717303D01*
X107150771Y-127717303D02*
X106960295Y-127764922D01*
X106960295Y-127764922D02*
X106865057Y-127812541D01*
X106865057Y-127812541D02*
X106817438Y-127860160D01*
X106817438Y-127860160D02*
X106769819Y-127955398D01*
X106492200Y-123769684D02*
X106492200Y-128379208D01*
X120469819Y-123907779D02*
X119469819Y-123907779D01*
X119469819Y-124574445D02*
X119469819Y-124764921D01*
X119469819Y-124764921D02*
X119517438Y-124860159D01*
X119517438Y-124860159D02*
X119612676Y-124955397D01*
X119612676Y-124955397D02*
X119803152Y-125003016D01*
X119803152Y-125003016D02*
X120136485Y-125003016D01*
X120136485Y-125003016D02*
X120326961Y-124955397D01*
X120326961Y-124955397D02*
X120422200Y-124860159D01*
X120422200Y-124860159D02*
X120469819Y-124764921D01*
X120469819Y-124764921D02*
X120469819Y-124574445D01*
X120469819Y-124574445D02*
X120422200Y-124479207D01*
X120422200Y-124479207D02*
X120326961Y-124383969D01*
X120326961Y-124383969D02*
X120136485Y-124336350D01*
X120136485Y-124336350D02*
X119803152Y-124336350D01*
X119803152Y-124336350D02*
X119612676Y-124383969D01*
X119612676Y-124383969D02*
X119517438Y-124479207D01*
X119517438Y-124479207D02*
X119469819Y-124574445D01*
X120469819Y-126003016D02*
X119993628Y-125669683D01*
X120469819Y-125431588D02*
X119469819Y-125431588D01*
X119469819Y-125431588D02*
X119469819Y-125812540D01*
X119469819Y-125812540D02*
X119517438Y-125907778D01*
X119517438Y-125907778D02*
X119565057Y-125955397D01*
X119565057Y-125955397D02*
X119660295Y-126003016D01*
X119660295Y-126003016D02*
X119803152Y-126003016D01*
X119803152Y-126003016D02*
X119898390Y-125955397D01*
X119898390Y-125955397D02*
X119946009Y-125907778D01*
X119946009Y-125907778D02*
X119993628Y-125812540D01*
X119993628Y-125812540D02*
X119993628Y-125431588D01*
X119192200Y-123769684D02*
X119192200Y-126093493D01*
X112849819Y-123907779D02*
X111849819Y-123907779D01*
X111849819Y-123907779D02*
X111849819Y-124145874D01*
X111849819Y-124145874D02*
X111897438Y-124288731D01*
X111897438Y-124288731D02*
X111992676Y-124383969D01*
X111992676Y-124383969D02*
X112087914Y-124431588D01*
X112087914Y-124431588D02*
X112278390Y-124479207D01*
X112278390Y-124479207D02*
X112421247Y-124479207D01*
X112421247Y-124479207D02*
X112611723Y-124431588D01*
X112611723Y-124431588D02*
X112706961Y-124383969D01*
X112706961Y-124383969D02*
X112802200Y-124288731D01*
X112802200Y-124288731D02*
X112849819Y-124145874D01*
X112849819Y-124145874D02*
X112849819Y-123907779D01*
X112564104Y-124860160D02*
X112564104Y-125336350D01*
X112849819Y-124764922D02*
X111849819Y-125098255D01*
X111849819Y-125098255D02*
X112849819Y-125431588D01*
X112754580Y-126336350D02*
X112802200Y-126288731D01*
X112802200Y-126288731D02*
X112849819Y-126145874D01*
X112849819Y-126145874D02*
X112849819Y-126050636D01*
X112849819Y-126050636D02*
X112802200Y-125907779D01*
X112802200Y-125907779D02*
X112706961Y-125812541D01*
X112706961Y-125812541D02*
X112611723Y-125764922D01*
X112611723Y-125764922D02*
X112421247Y-125717303D01*
X112421247Y-125717303D02*
X112278390Y-125717303D01*
X112278390Y-125717303D02*
X112087914Y-125764922D01*
X112087914Y-125764922D02*
X111992676Y-125812541D01*
X111992676Y-125812541D02*
X111897438Y-125907779D01*
X111897438Y-125907779D02*
X111849819Y-126050636D01*
X111849819Y-126050636D02*
X111849819Y-126145874D01*
X111849819Y-126145874D02*
X111897438Y-126288731D01*
X111897438Y-126288731D02*
X111945057Y-126336350D01*
X112849819Y-126764922D02*
X111849819Y-126764922D01*
X112849819Y-127336350D02*
X112278390Y-126907779D01*
X111849819Y-127336350D02*
X112421247Y-126764922D01*
X112849819Y-128288731D02*
X112849819Y-127717303D01*
X112849819Y-128003017D02*
X111849819Y-128003017D01*
X111849819Y-128003017D02*
X111992676Y-127907779D01*
X111992676Y-127907779D02*
X112087914Y-127812541D01*
X112087914Y-127812541D02*
X112135533Y-127717303D01*
X111572200Y-123769684D02*
X111572200Y-128379208D01*
X105134580Y-124479207D02*
X105182200Y-124431588D01*
X105182200Y-124431588D02*
X105229819Y-124288731D01*
X105229819Y-124288731D02*
X105229819Y-124193493D01*
X105229819Y-124193493D02*
X105182200Y-124050636D01*
X105182200Y-124050636D02*
X105086961Y-123955398D01*
X105086961Y-123955398D02*
X104991723Y-123907779D01*
X104991723Y-123907779D02*
X104801247Y-123860160D01*
X104801247Y-123860160D02*
X104658390Y-123860160D01*
X104658390Y-123860160D02*
X104467914Y-123907779D01*
X104467914Y-123907779D02*
X104372676Y-123955398D01*
X104372676Y-123955398D02*
X104277438Y-124050636D01*
X104277438Y-124050636D02*
X104229819Y-124193493D01*
X104229819Y-124193493D02*
X104229819Y-124288731D01*
X104229819Y-124288731D02*
X104277438Y-124431588D01*
X104277438Y-124431588D02*
X104325057Y-124479207D01*
X105229819Y-125383969D02*
X105229819Y-124907779D01*
X105229819Y-124907779D02*
X104229819Y-124907779D01*
X105229819Y-125717303D02*
X104229819Y-125717303D01*
X105229819Y-126288731D02*
X104658390Y-125860160D01*
X104229819Y-126288731D02*
X104801247Y-125717303D01*
X102689819Y-123907779D02*
X101689819Y-123907779D01*
X102689819Y-124955397D02*
X102213628Y-124622064D01*
X102689819Y-124383969D02*
X101689819Y-124383969D01*
X101689819Y-124383969D02*
X101689819Y-124764921D01*
X101689819Y-124764921D02*
X101737438Y-124860159D01*
X101737438Y-124860159D02*
X101785057Y-124907778D01*
X101785057Y-124907778D02*
X101880295Y-124955397D01*
X101880295Y-124955397D02*
X102023152Y-124955397D01*
X102023152Y-124955397D02*
X102118390Y-124907778D01*
X102118390Y-124907778D02*
X102166009Y-124860159D01*
X102166009Y-124860159D02*
X102213628Y-124764921D01*
X102213628Y-124764921D02*
X102213628Y-124383969D01*
X102785057Y-126050635D02*
X102737438Y-125955397D01*
X102737438Y-125955397D02*
X102642200Y-125860159D01*
X102642200Y-125860159D02*
X102499342Y-125717302D01*
X102499342Y-125717302D02*
X102451723Y-125622064D01*
X102451723Y-125622064D02*
X102451723Y-125526826D01*
X102689819Y-125574445D02*
X102642200Y-125479207D01*
X102642200Y-125479207D02*
X102546961Y-125383969D01*
X102546961Y-125383969D02*
X102356485Y-125336350D01*
X102356485Y-125336350D02*
X102023152Y-125336350D01*
X102023152Y-125336350D02*
X101832676Y-125383969D01*
X101832676Y-125383969D02*
X101737438Y-125479207D01*
X101737438Y-125479207D02*
X101689819Y-125574445D01*
X101689819Y-125574445D02*
X101689819Y-125764921D01*
X101689819Y-125764921D02*
X101737438Y-125860159D01*
X101737438Y-125860159D02*
X101832676Y-125955397D01*
X101832676Y-125955397D02*
X102023152Y-126003016D01*
X102023152Y-126003016D02*
X102356485Y-126003016D01*
X102356485Y-126003016D02*
X102546961Y-125955397D01*
X102546961Y-125955397D02*
X102642200Y-125860159D01*
X102642200Y-125860159D02*
X102689819Y-125764921D01*
X102689819Y-125764921D02*
X102689819Y-125574445D01*
X101689819Y-126336350D02*
X101689819Y-127003016D01*
X101689819Y-127003016D02*
X102689819Y-126574445D01*
X100149819Y-123907779D02*
X99149819Y-123907779D01*
X100149819Y-124955397D02*
X99673628Y-124622064D01*
X100149819Y-124383969D02*
X99149819Y-124383969D01*
X99149819Y-124383969D02*
X99149819Y-124764921D01*
X99149819Y-124764921D02*
X99197438Y-124860159D01*
X99197438Y-124860159D02*
X99245057Y-124907778D01*
X99245057Y-124907778D02*
X99340295Y-124955397D01*
X99340295Y-124955397D02*
X99483152Y-124955397D01*
X99483152Y-124955397D02*
X99578390Y-124907778D01*
X99578390Y-124907778D02*
X99626009Y-124860159D01*
X99626009Y-124860159D02*
X99673628Y-124764921D01*
X99673628Y-124764921D02*
X99673628Y-124383969D01*
X100245057Y-126050635D02*
X100197438Y-125955397D01*
X100197438Y-125955397D02*
X100102200Y-125860159D01*
X100102200Y-125860159D02*
X99959342Y-125717302D01*
X99959342Y-125717302D02*
X99911723Y-125622064D01*
X99911723Y-125622064D02*
X99911723Y-125526826D01*
X100149819Y-125574445D02*
X100102200Y-125479207D01*
X100102200Y-125479207D02*
X100006961Y-125383969D01*
X100006961Y-125383969D02*
X99816485Y-125336350D01*
X99816485Y-125336350D02*
X99483152Y-125336350D01*
X99483152Y-125336350D02*
X99292676Y-125383969D01*
X99292676Y-125383969D02*
X99197438Y-125479207D01*
X99197438Y-125479207D02*
X99149819Y-125574445D01*
X99149819Y-125574445D02*
X99149819Y-125764921D01*
X99149819Y-125764921D02*
X99197438Y-125860159D01*
X99197438Y-125860159D02*
X99292676Y-125955397D01*
X99292676Y-125955397D02*
X99483152Y-126003016D01*
X99483152Y-126003016D02*
X99816485Y-126003016D01*
X99816485Y-126003016D02*
X100006961Y-125955397D01*
X100006961Y-125955397D02*
X100102200Y-125860159D01*
X100102200Y-125860159D02*
X100149819Y-125764921D01*
X100149819Y-125764921D02*
X100149819Y-125574445D01*
X99149819Y-126860159D02*
X99149819Y-126669683D01*
X99149819Y-126669683D02*
X99197438Y-126574445D01*
X99197438Y-126574445D02*
X99245057Y-126526826D01*
X99245057Y-126526826D02*
X99387914Y-126431588D01*
X99387914Y-126431588D02*
X99578390Y-126383969D01*
X99578390Y-126383969D02*
X99959342Y-126383969D01*
X99959342Y-126383969D02*
X100054580Y-126431588D01*
X100054580Y-126431588D02*
X100102200Y-126479207D01*
X100102200Y-126479207D02*
X100149819Y-126574445D01*
X100149819Y-126574445D02*
X100149819Y-126764921D01*
X100149819Y-126764921D02*
X100102200Y-126860159D01*
X100102200Y-126860159D02*
X100054580Y-126907778D01*
X100054580Y-126907778D02*
X99959342Y-126955397D01*
X99959342Y-126955397D02*
X99721247Y-126955397D01*
X99721247Y-126955397D02*
X99626009Y-126907778D01*
X99626009Y-126907778D02*
X99578390Y-126860159D01*
X99578390Y-126860159D02*
X99530771Y-126764921D01*
X99530771Y-126764921D02*
X99530771Y-126574445D01*
X99530771Y-126574445D02*
X99578390Y-126479207D01*
X99578390Y-126479207D02*
X99626009Y-126431588D01*
X99626009Y-126431588D02*
X99721247Y-126383969D01*
X138249819Y-116297030D02*
X137249819Y-116297030D01*
X137249819Y-116297030D02*
X137249819Y-116535125D01*
X137249819Y-116535125D02*
X137297438Y-116677982D01*
X137297438Y-116677982D02*
X137392676Y-116773220D01*
X137392676Y-116773220D02*
X137487914Y-116820839D01*
X137487914Y-116820839D02*
X137678390Y-116868458D01*
X137678390Y-116868458D02*
X137821247Y-116868458D01*
X137821247Y-116868458D02*
X138011723Y-116820839D01*
X138011723Y-116820839D02*
X138106961Y-116773220D01*
X138106961Y-116773220D02*
X138202200Y-116677982D01*
X138202200Y-116677982D02*
X138249819Y-116535125D01*
X138249819Y-116535125D02*
X138249819Y-116297030D01*
X137345057Y-117249411D02*
X137297438Y-117297030D01*
X137297438Y-117297030D02*
X137249819Y-117392268D01*
X137249819Y-117392268D02*
X137249819Y-117630363D01*
X137249819Y-117630363D02*
X137297438Y-117725601D01*
X137297438Y-117725601D02*
X137345057Y-117773220D01*
X137345057Y-117773220D02*
X137440295Y-117820839D01*
X137440295Y-117820839D02*
X137535533Y-117820839D01*
X137535533Y-117820839D02*
X137678390Y-117773220D01*
X137678390Y-117773220D02*
X138249819Y-117201792D01*
X138249819Y-117201792D02*
X138249819Y-117820839D01*
X82084104Y-116392268D02*
X82084104Y-116868458D01*
X82369819Y-116297030D02*
X81369819Y-116630363D01*
X81369819Y-116630363D02*
X82369819Y-116963696D01*
X81465057Y-117249411D02*
X81417438Y-117297030D01*
X81417438Y-117297030D02*
X81369819Y-117392268D01*
X81369819Y-117392268D02*
X81369819Y-117630363D01*
X81369819Y-117630363D02*
X81417438Y-117725601D01*
X81417438Y-117725601D02*
X81465057Y-117773220D01*
X81465057Y-117773220D02*
X81560295Y-117820839D01*
X81560295Y-117820839D02*
X81655533Y-117820839D01*
X81655533Y-117820839D02*
X81798390Y-117773220D01*
X81798390Y-117773220D02*
X82369819Y-117201792D01*
X82369819Y-117201792D02*
X82369819Y-117820839D01*
X92244104Y-116392268D02*
X92244104Y-116868458D01*
X92529819Y-116297030D02*
X91529819Y-116630363D01*
X91529819Y-116630363D02*
X92529819Y-116963696D01*
X91529819Y-117725601D02*
X91529819Y-117535125D01*
X91529819Y-117535125D02*
X91577438Y-117439887D01*
X91577438Y-117439887D02*
X91625057Y-117392268D01*
X91625057Y-117392268D02*
X91767914Y-117297030D01*
X91767914Y-117297030D02*
X91958390Y-117249411D01*
X91958390Y-117249411D02*
X92339342Y-117249411D01*
X92339342Y-117249411D02*
X92434580Y-117297030D01*
X92434580Y-117297030D02*
X92482200Y-117344649D01*
X92482200Y-117344649D02*
X92529819Y-117439887D01*
X92529819Y-117439887D02*
X92529819Y-117630363D01*
X92529819Y-117630363D02*
X92482200Y-117725601D01*
X92482200Y-117725601D02*
X92434580Y-117773220D01*
X92434580Y-117773220D02*
X92339342Y-117820839D01*
X92339342Y-117820839D02*
X92101247Y-117820839D01*
X92101247Y-117820839D02*
X92006009Y-117773220D01*
X92006009Y-117773220D02*
X91958390Y-117725601D01*
X91958390Y-117725601D02*
X91910771Y-117630363D01*
X91910771Y-117630363D02*
X91910771Y-117439887D01*
X91910771Y-117439887D02*
X91958390Y-117344649D01*
X91958390Y-117344649D02*
X92006009Y-117297030D01*
X92006009Y-117297030D02*
X92101247Y-117249411D01*
X130629819Y-113868459D02*
X129629819Y-113868459D01*
X129629819Y-114535125D02*
X129629819Y-114725601D01*
X129629819Y-114725601D02*
X129677438Y-114820839D01*
X129677438Y-114820839D02*
X129772676Y-114916077D01*
X129772676Y-114916077D02*
X129963152Y-114963696D01*
X129963152Y-114963696D02*
X130296485Y-114963696D01*
X130296485Y-114963696D02*
X130486961Y-114916077D01*
X130486961Y-114916077D02*
X130582200Y-114820839D01*
X130582200Y-114820839D02*
X130629819Y-114725601D01*
X130629819Y-114725601D02*
X130629819Y-114535125D01*
X130629819Y-114535125D02*
X130582200Y-114439887D01*
X130582200Y-114439887D02*
X130486961Y-114344649D01*
X130486961Y-114344649D02*
X130296485Y-114297030D01*
X130296485Y-114297030D02*
X129963152Y-114297030D01*
X129963152Y-114297030D02*
X129772676Y-114344649D01*
X129772676Y-114344649D02*
X129677438Y-114439887D01*
X129677438Y-114439887D02*
X129629819Y-114535125D01*
X130629819Y-115963696D02*
X130153628Y-115630363D01*
X130629819Y-115392268D02*
X129629819Y-115392268D01*
X129629819Y-115392268D02*
X129629819Y-115773220D01*
X129629819Y-115773220D02*
X129677438Y-115868458D01*
X129677438Y-115868458D02*
X129725057Y-115916077D01*
X129725057Y-115916077D02*
X129820295Y-115963696D01*
X129820295Y-115963696D02*
X129963152Y-115963696D01*
X129963152Y-115963696D02*
X130058390Y-115916077D01*
X130058390Y-115916077D02*
X130106009Y-115868458D01*
X130106009Y-115868458D02*
X130153628Y-115773220D01*
X130153628Y-115773220D02*
X130153628Y-115392268D01*
X130629819Y-116392268D02*
X129629819Y-116392268D01*
X129629819Y-116392268D02*
X129629819Y-116630363D01*
X129629819Y-116630363D02*
X129677438Y-116773220D01*
X129677438Y-116773220D02*
X129772676Y-116868458D01*
X129772676Y-116868458D02*
X129867914Y-116916077D01*
X129867914Y-116916077D02*
X130058390Y-116963696D01*
X130058390Y-116963696D02*
X130201247Y-116963696D01*
X130201247Y-116963696D02*
X130391723Y-116916077D01*
X130391723Y-116916077D02*
X130486961Y-116868458D01*
X130486961Y-116868458D02*
X130582200Y-116773220D01*
X130582200Y-116773220D02*
X130629819Y-116630363D01*
X130629819Y-116630363D02*
X130629819Y-116392268D01*
X130153628Y-117582744D02*
X130629819Y-117582744D01*
X129629819Y-117249411D02*
X130153628Y-117582744D01*
X130153628Y-117582744D02*
X129629819Y-117916077D01*
X84624104Y-116392268D02*
X84624104Y-116868458D01*
X84909819Y-116297030D02*
X83909819Y-116630363D01*
X83909819Y-116630363D02*
X84909819Y-116963696D01*
X83909819Y-117201792D02*
X83909819Y-117820839D01*
X83909819Y-117820839D02*
X84290771Y-117487506D01*
X84290771Y-117487506D02*
X84290771Y-117630363D01*
X84290771Y-117630363D02*
X84338390Y-117725601D01*
X84338390Y-117725601D02*
X84386009Y-117773220D01*
X84386009Y-117773220D02*
X84481247Y-117820839D01*
X84481247Y-117820839D02*
X84719342Y-117820839D01*
X84719342Y-117820839D02*
X84814580Y-117773220D01*
X84814580Y-117773220D02*
X84862200Y-117725601D01*
X84862200Y-117725601D02*
X84909819Y-117630363D01*
X84909819Y-117630363D02*
X84909819Y-117344649D01*
X84909819Y-117344649D02*
X84862200Y-117249411D01*
X84862200Y-117249411D02*
X84814580Y-117201792D01*
X117644104Y-115439887D02*
X117644104Y-115916077D01*
X117929819Y-115344649D02*
X116929819Y-115677982D01*
X116929819Y-115677982D02*
X117929819Y-116011315D01*
X117929819Y-116868458D02*
X117929819Y-116297030D01*
X117929819Y-116582744D02*
X116929819Y-116582744D01*
X116929819Y-116582744D02*
X117072676Y-116487506D01*
X117072676Y-116487506D02*
X117167914Y-116392268D01*
X117167914Y-116392268D02*
X117215533Y-116297030D01*
X116929819Y-117725601D02*
X116929819Y-117535125D01*
X116929819Y-117535125D02*
X116977438Y-117439887D01*
X116977438Y-117439887D02*
X117025057Y-117392268D01*
X117025057Y-117392268D02*
X117167914Y-117297030D01*
X117167914Y-117297030D02*
X117358390Y-117249411D01*
X117358390Y-117249411D02*
X117739342Y-117249411D01*
X117739342Y-117249411D02*
X117834580Y-117297030D01*
X117834580Y-117297030D02*
X117882200Y-117344649D01*
X117882200Y-117344649D02*
X117929819Y-117439887D01*
X117929819Y-117439887D02*
X117929819Y-117630363D01*
X117929819Y-117630363D02*
X117882200Y-117725601D01*
X117882200Y-117725601D02*
X117834580Y-117773220D01*
X117834580Y-117773220D02*
X117739342Y-117820839D01*
X117739342Y-117820839D02*
X117501247Y-117820839D01*
X117501247Y-117820839D02*
X117406009Y-117773220D01*
X117406009Y-117773220D02*
X117358390Y-117725601D01*
X117358390Y-117725601D02*
X117310771Y-117630363D01*
X117310771Y-117630363D02*
X117310771Y-117439887D01*
X117310771Y-117439887D02*
X117358390Y-117344649D01*
X117358390Y-117344649D02*
X117406009Y-117297030D01*
X117406009Y-117297030D02*
X117501247Y-117249411D01*
X94784104Y-116392268D02*
X94784104Y-116868458D01*
X95069819Y-116297030D02*
X94069819Y-116630363D01*
X94069819Y-116630363D02*
X95069819Y-116963696D01*
X94069819Y-117201792D02*
X94069819Y-117868458D01*
X94069819Y-117868458D02*
X95069819Y-117439887D01*
X99864104Y-116392268D02*
X99864104Y-116868458D01*
X100149819Y-116297030D02*
X99149819Y-116630363D01*
X99149819Y-116630363D02*
X100149819Y-116963696D01*
X100149819Y-117344649D02*
X100149819Y-117535125D01*
X100149819Y-117535125D02*
X100102200Y-117630363D01*
X100102200Y-117630363D02*
X100054580Y-117677982D01*
X100054580Y-117677982D02*
X99911723Y-117773220D01*
X99911723Y-117773220D02*
X99721247Y-117820839D01*
X99721247Y-117820839D02*
X99340295Y-117820839D01*
X99340295Y-117820839D02*
X99245057Y-117773220D01*
X99245057Y-117773220D02*
X99197438Y-117725601D01*
X99197438Y-117725601D02*
X99149819Y-117630363D01*
X99149819Y-117630363D02*
X99149819Y-117439887D01*
X99149819Y-117439887D02*
X99197438Y-117344649D01*
X99197438Y-117344649D02*
X99245057Y-117297030D01*
X99245057Y-117297030D02*
X99340295Y-117249411D01*
X99340295Y-117249411D02*
X99578390Y-117249411D01*
X99578390Y-117249411D02*
X99673628Y-117297030D01*
X99673628Y-117297030D02*
X99721247Y-117344649D01*
X99721247Y-117344649D02*
X99768866Y-117439887D01*
X99768866Y-117439887D02*
X99768866Y-117630363D01*
X99768866Y-117630363D02*
X99721247Y-117725601D01*
X99721247Y-117725601D02*
X99673628Y-117773220D01*
X99673628Y-117773220D02*
X99578390Y-117820839D01*
X120184104Y-115439887D02*
X120184104Y-115916077D01*
X120469819Y-115344649D02*
X119469819Y-115677982D01*
X119469819Y-115677982D02*
X120469819Y-116011315D01*
X120469819Y-116868458D02*
X120469819Y-116297030D01*
X120469819Y-116582744D02*
X119469819Y-116582744D01*
X119469819Y-116582744D02*
X119612676Y-116487506D01*
X119612676Y-116487506D02*
X119707914Y-116392268D01*
X119707914Y-116392268D02*
X119755533Y-116297030D01*
X119469819Y-117201792D02*
X119469819Y-117868458D01*
X119469819Y-117868458D02*
X120469819Y-117439887D01*
X153489819Y-113677983D02*
X152489819Y-113677983D01*
X152489819Y-114344649D02*
X152489819Y-114535125D01*
X152489819Y-114535125D02*
X152537438Y-114630363D01*
X152537438Y-114630363D02*
X152632676Y-114725601D01*
X152632676Y-114725601D02*
X152823152Y-114773220D01*
X152823152Y-114773220D02*
X153156485Y-114773220D01*
X153156485Y-114773220D02*
X153346961Y-114725601D01*
X153346961Y-114725601D02*
X153442200Y-114630363D01*
X153442200Y-114630363D02*
X153489819Y-114535125D01*
X153489819Y-114535125D02*
X153489819Y-114344649D01*
X153489819Y-114344649D02*
X153442200Y-114249411D01*
X153442200Y-114249411D02*
X153346961Y-114154173D01*
X153346961Y-114154173D02*
X153156485Y-114106554D01*
X153156485Y-114106554D02*
X152823152Y-114106554D01*
X152823152Y-114106554D02*
X152632676Y-114154173D01*
X152632676Y-114154173D02*
X152537438Y-114249411D01*
X152537438Y-114249411D02*
X152489819Y-114344649D01*
X153394580Y-115773220D02*
X153442200Y-115725601D01*
X153442200Y-115725601D02*
X153489819Y-115582744D01*
X153489819Y-115582744D02*
X153489819Y-115487506D01*
X153489819Y-115487506D02*
X153442200Y-115344649D01*
X153442200Y-115344649D02*
X153346961Y-115249411D01*
X153346961Y-115249411D02*
X153251723Y-115201792D01*
X153251723Y-115201792D02*
X153061247Y-115154173D01*
X153061247Y-115154173D02*
X152918390Y-115154173D01*
X152918390Y-115154173D02*
X152727914Y-115201792D01*
X152727914Y-115201792D02*
X152632676Y-115249411D01*
X152632676Y-115249411D02*
X152537438Y-115344649D01*
X152537438Y-115344649D02*
X152489819Y-115487506D01*
X152489819Y-115487506D02*
X152489819Y-115582744D01*
X152489819Y-115582744D02*
X152537438Y-115725601D01*
X152537438Y-115725601D02*
X152585057Y-115773220D01*
X153489819Y-116201792D02*
X152489819Y-116201792D01*
X152966009Y-116201792D02*
X152966009Y-116773220D01*
X153489819Y-116773220D02*
X152489819Y-116773220D01*
X153489819Y-117249411D02*
X152489819Y-117249411D01*
X153489819Y-117820839D02*
X152918390Y-117392268D01*
X152489819Y-117820839D02*
X153061247Y-117249411D01*
X122724104Y-115439887D02*
X122724104Y-115916077D01*
X123009819Y-115344649D02*
X122009819Y-115677982D01*
X122009819Y-115677982D02*
X123009819Y-116011315D01*
X123009819Y-116868458D02*
X123009819Y-116297030D01*
X123009819Y-116582744D02*
X122009819Y-116582744D01*
X122009819Y-116582744D02*
X122152676Y-116487506D01*
X122152676Y-116487506D02*
X122247914Y-116392268D01*
X122247914Y-116392268D02*
X122295533Y-116297030D01*
X122438390Y-117439887D02*
X122390771Y-117344649D01*
X122390771Y-117344649D02*
X122343152Y-117297030D01*
X122343152Y-117297030D02*
X122247914Y-117249411D01*
X122247914Y-117249411D02*
X122200295Y-117249411D01*
X122200295Y-117249411D02*
X122105057Y-117297030D01*
X122105057Y-117297030D02*
X122057438Y-117344649D01*
X122057438Y-117344649D02*
X122009819Y-117439887D01*
X122009819Y-117439887D02*
X122009819Y-117630363D01*
X122009819Y-117630363D02*
X122057438Y-117725601D01*
X122057438Y-117725601D02*
X122105057Y-117773220D01*
X122105057Y-117773220D02*
X122200295Y-117820839D01*
X122200295Y-117820839D02*
X122247914Y-117820839D01*
X122247914Y-117820839D02*
X122343152Y-117773220D01*
X122343152Y-117773220D02*
X122390771Y-117725601D01*
X122390771Y-117725601D02*
X122438390Y-117630363D01*
X122438390Y-117630363D02*
X122438390Y-117439887D01*
X122438390Y-117439887D02*
X122486009Y-117344649D01*
X122486009Y-117344649D02*
X122533628Y-117297030D01*
X122533628Y-117297030D02*
X122628866Y-117249411D01*
X122628866Y-117249411D02*
X122819342Y-117249411D01*
X122819342Y-117249411D02*
X122914580Y-117297030D01*
X122914580Y-117297030D02*
X122962200Y-117344649D01*
X122962200Y-117344649D02*
X123009819Y-117439887D01*
X123009819Y-117439887D02*
X123009819Y-117630363D01*
X123009819Y-117630363D02*
X122962200Y-117725601D01*
X122962200Y-117725601D02*
X122914580Y-117773220D01*
X122914580Y-117773220D02*
X122819342Y-117820839D01*
X122819342Y-117820839D02*
X122628866Y-117820839D01*
X122628866Y-117820839D02*
X122533628Y-117773220D01*
X122533628Y-117773220D02*
X122486009Y-117725601D01*
X122486009Y-117725601D02*
X122438390Y-117630363D01*
X133169819Y-116297030D02*
X132169819Y-116297030D01*
X132169819Y-116297030D02*
X132169819Y-116535125D01*
X132169819Y-116535125D02*
X132217438Y-116677982D01*
X132217438Y-116677982D02*
X132312676Y-116773220D01*
X132312676Y-116773220D02*
X132407914Y-116820839D01*
X132407914Y-116820839D02*
X132598390Y-116868458D01*
X132598390Y-116868458D02*
X132741247Y-116868458D01*
X132741247Y-116868458D02*
X132931723Y-116820839D01*
X132931723Y-116820839D02*
X133026961Y-116773220D01*
X133026961Y-116773220D02*
X133122200Y-116677982D01*
X133122200Y-116677982D02*
X133169819Y-116535125D01*
X133169819Y-116535125D02*
X133169819Y-116297030D01*
X132169819Y-117487506D02*
X132169819Y-117582744D01*
X132169819Y-117582744D02*
X132217438Y-117677982D01*
X132217438Y-117677982D02*
X132265057Y-117725601D01*
X132265057Y-117725601D02*
X132360295Y-117773220D01*
X132360295Y-117773220D02*
X132550771Y-117820839D01*
X132550771Y-117820839D02*
X132788866Y-117820839D01*
X132788866Y-117820839D02*
X132979342Y-117773220D01*
X132979342Y-117773220D02*
X133074580Y-117725601D01*
X133074580Y-117725601D02*
X133122200Y-117677982D01*
X133122200Y-117677982D02*
X133169819Y-117582744D01*
X133169819Y-117582744D02*
X133169819Y-117487506D01*
X133169819Y-117487506D02*
X133122200Y-117392268D01*
X133122200Y-117392268D02*
X133074580Y-117344649D01*
X133074580Y-117344649D02*
X132979342Y-117297030D01*
X132979342Y-117297030D02*
X132788866Y-117249411D01*
X132788866Y-117249411D02*
X132550771Y-117249411D01*
X132550771Y-117249411D02*
X132360295Y-117297030D01*
X132360295Y-117297030D02*
X132265057Y-117344649D01*
X132265057Y-117344649D02*
X132217438Y-117392268D01*
X132217438Y-117392268D02*
X132169819Y-117487506D01*
X145869819Y-116297030D02*
X144869819Y-116297030D01*
X144869819Y-116297030D02*
X144869819Y-116535125D01*
X144869819Y-116535125D02*
X144917438Y-116677982D01*
X144917438Y-116677982D02*
X145012676Y-116773220D01*
X145012676Y-116773220D02*
X145107914Y-116820839D01*
X145107914Y-116820839D02*
X145298390Y-116868458D01*
X145298390Y-116868458D02*
X145441247Y-116868458D01*
X145441247Y-116868458D02*
X145631723Y-116820839D01*
X145631723Y-116820839D02*
X145726961Y-116773220D01*
X145726961Y-116773220D02*
X145822200Y-116677982D01*
X145822200Y-116677982D02*
X145869819Y-116535125D01*
X145869819Y-116535125D02*
X145869819Y-116297030D01*
X144869819Y-117773220D02*
X144869819Y-117297030D01*
X144869819Y-117297030D02*
X145346009Y-117249411D01*
X145346009Y-117249411D02*
X145298390Y-117297030D01*
X145298390Y-117297030D02*
X145250771Y-117392268D01*
X145250771Y-117392268D02*
X145250771Y-117630363D01*
X145250771Y-117630363D02*
X145298390Y-117725601D01*
X145298390Y-117725601D02*
X145346009Y-117773220D01*
X145346009Y-117773220D02*
X145441247Y-117820839D01*
X145441247Y-117820839D02*
X145679342Y-117820839D01*
X145679342Y-117820839D02*
X145774580Y-117773220D01*
X145774580Y-117773220D02*
X145822200Y-117725601D01*
X145822200Y-117725601D02*
X145869819Y-117630363D01*
X145869819Y-117630363D02*
X145869819Y-117392268D01*
X145869819Y-117392268D02*
X145822200Y-117297030D01*
X145822200Y-117297030D02*
X145774580Y-117249411D01*
X143329819Y-116297030D02*
X142329819Y-116297030D01*
X142329819Y-116297030D02*
X142329819Y-116535125D01*
X142329819Y-116535125D02*
X142377438Y-116677982D01*
X142377438Y-116677982D02*
X142472676Y-116773220D01*
X142472676Y-116773220D02*
X142567914Y-116820839D01*
X142567914Y-116820839D02*
X142758390Y-116868458D01*
X142758390Y-116868458D02*
X142901247Y-116868458D01*
X142901247Y-116868458D02*
X143091723Y-116820839D01*
X143091723Y-116820839D02*
X143186961Y-116773220D01*
X143186961Y-116773220D02*
X143282200Y-116677982D01*
X143282200Y-116677982D02*
X143329819Y-116535125D01*
X143329819Y-116535125D02*
X143329819Y-116297030D01*
X142663152Y-117725601D02*
X143329819Y-117725601D01*
X142282200Y-117487506D02*
X142996485Y-117249411D01*
X142996485Y-117249411D02*
X142996485Y-117868458D01*
X112564104Y-115439887D02*
X112564104Y-115916077D01*
X112849819Y-115344649D02*
X111849819Y-115677982D01*
X111849819Y-115677982D02*
X112849819Y-116011315D01*
X112849819Y-116868458D02*
X112849819Y-116297030D01*
X112849819Y-116582744D02*
X111849819Y-116582744D01*
X111849819Y-116582744D02*
X111992676Y-116487506D01*
X111992676Y-116487506D02*
X112087914Y-116392268D01*
X112087914Y-116392268D02*
X112135533Y-116297030D01*
X112183152Y-117725601D02*
X112849819Y-117725601D01*
X111802200Y-117487506D02*
X112516485Y-117249411D01*
X112516485Y-117249411D02*
X112516485Y-117868458D01*
X127804104Y-115392268D02*
X127804104Y-115868458D01*
X128089819Y-115297030D02*
X127089819Y-115630363D01*
X127089819Y-115630363D02*
X128089819Y-115963696D01*
X127566009Y-116297030D02*
X127566009Y-116630363D01*
X128089819Y-116773220D02*
X128089819Y-116297030D01*
X128089819Y-116297030D02*
X127089819Y-116297030D01*
X127089819Y-116297030D02*
X127089819Y-116773220D01*
X128089819Y-117201792D02*
X127089819Y-117201792D01*
X127089819Y-117201792D02*
X128089819Y-117773220D01*
X128089819Y-117773220D02*
X127089819Y-117773220D01*
X140789819Y-116297030D02*
X139789819Y-116297030D01*
X139789819Y-116297030D02*
X139789819Y-116535125D01*
X139789819Y-116535125D02*
X139837438Y-116677982D01*
X139837438Y-116677982D02*
X139932676Y-116773220D01*
X139932676Y-116773220D02*
X140027914Y-116820839D01*
X140027914Y-116820839D02*
X140218390Y-116868458D01*
X140218390Y-116868458D02*
X140361247Y-116868458D01*
X140361247Y-116868458D02*
X140551723Y-116820839D01*
X140551723Y-116820839D02*
X140646961Y-116773220D01*
X140646961Y-116773220D02*
X140742200Y-116677982D01*
X140742200Y-116677982D02*
X140789819Y-116535125D01*
X140789819Y-116535125D02*
X140789819Y-116297030D01*
X139789819Y-117201792D02*
X139789819Y-117820839D01*
X139789819Y-117820839D02*
X140170771Y-117487506D01*
X140170771Y-117487506D02*
X140170771Y-117630363D01*
X140170771Y-117630363D02*
X140218390Y-117725601D01*
X140218390Y-117725601D02*
X140266009Y-117773220D01*
X140266009Y-117773220D02*
X140361247Y-117820839D01*
X140361247Y-117820839D02*
X140599342Y-117820839D01*
X140599342Y-117820839D02*
X140694580Y-117773220D01*
X140694580Y-117773220D02*
X140742200Y-117725601D01*
X140742200Y-117725601D02*
X140789819Y-117630363D01*
X140789819Y-117630363D02*
X140789819Y-117344649D01*
X140789819Y-117344649D02*
X140742200Y-117249411D01*
X140742200Y-117249411D02*
X140694580Y-117201792D01*
X148409819Y-116297030D02*
X147409819Y-116297030D01*
X147409819Y-116297030D02*
X147409819Y-116535125D01*
X147409819Y-116535125D02*
X147457438Y-116677982D01*
X147457438Y-116677982D02*
X147552676Y-116773220D01*
X147552676Y-116773220D02*
X147647914Y-116820839D01*
X147647914Y-116820839D02*
X147838390Y-116868458D01*
X147838390Y-116868458D02*
X147981247Y-116868458D01*
X147981247Y-116868458D02*
X148171723Y-116820839D01*
X148171723Y-116820839D02*
X148266961Y-116773220D01*
X148266961Y-116773220D02*
X148362200Y-116677982D01*
X148362200Y-116677982D02*
X148409819Y-116535125D01*
X148409819Y-116535125D02*
X148409819Y-116297030D01*
X147409819Y-117725601D02*
X147409819Y-117535125D01*
X147409819Y-117535125D02*
X147457438Y-117439887D01*
X147457438Y-117439887D02*
X147505057Y-117392268D01*
X147505057Y-117392268D02*
X147647914Y-117297030D01*
X147647914Y-117297030D02*
X147838390Y-117249411D01*
X147838390Y-117249411D02*
X148219342Y-117249411D01*
X148219342Y-117249411D02*
X148314580Y-117297030D01*
X148314580Y-117297030D02*
X148362200Y-117344649D01*
X148362200Y-117344649D02*
X148409819Y-117439887D01*
X148409819Y-117439887D02*
X148409819Y-117630363D01*
X148409819Y-117630363D02*
X148362200Y-117725601D01*
X148362200Y-117725601D02*
X148314580Y-117773220D01*
X148314580Y-117773220D02*
X148219342Y-117820839D01*
X148219342Y-117820839D02*
X147981247Y-117820839D01*
X147981247Y-117820839D02*
X147886009Y-117773220D01*
X147886009Y-117773220D02*
X147838390Y-117725601D01*
X147838390Y-117725601D02*
X147790771Y-117630363D01*
X147790771Y-117630363D02*
X147790771Y-117439887D01*
X147790771Y-117439887D02*
X147838390Y-117344649D01*
X147838390Y-117344649D02*
X147886009Y-117297030D01*
X147886009Y-117297030D02*
X147981247Y-117249411D01*
X115104104Y-115439887D02*
X115104104Y-115916077D01*
X115389819Y-115344649D02*
X114389819Y-115677982D01*
X114389819Y-115677982D02*
X115389819Y-116011315D01*
X115389819Y-116868458D02*
X115389819Y-116297030D01*
X115389819Y-116582744D02*
X114389819Y-116582744D01*
X114389819Y-116582744D02*
X114532676Y-116487506D01*
X114532676Y-116487506D02*
X114627914Y-116392268D01*
X114627914Y-116392268D02*
X114675533Y-116297030D01*
X114389819Y-117773220D02*
X114389819Y-117297030D01*
X114389819Y-117297030D02*
X114866009Y-117249411D01*
X114866009Y-117249411D02*
X114818390Y-117297030D01*
X114818390Y-117297030D02*
X114770771Y-117392268D01*
X114770771Y-117392268D02*
X114770771Y-117630363D01*
X114770771Y-117630363D02*
X114818390Y-117725601D01*
X114818390Y-117725601D02*
X114866009Y-117773220D01*
X114866009Y-117773220D02*
X114961247Y-117820839D01*
X114961247Y-117820839D02*
X115199342Y-117820839D01*
X115199342Y-117820839D02*
X115294580Y-117773220D01*
X115294580Y-117773220D02*
X115342200Y-117725601D01*
X115342200Y-117725601D02*
X115389819Y-117630363D01*
X115389819Y-117630363D02*
X115389819Y-117392268D01*
X115389819Y-117392268D02*
X115342200Y-117297030D01*
X115342200Y-117297030D02*
X115294580Y-117249411D01*
X107484104Y-115439887D02*
X107484104Y-115916077D01*
X107769819Y-115344649D02*
X106769819Y-115677982D01*
X106769819Y-115677982D02*
X107769819Y-116011315D01*
X107769819Y-116868458D02*
X107769819Y-116297030D01*
X107769819Y-116582744D02*
X106769819Y-116582744D01*
X106769819Y-116582744D02*
X106912676Y-116487506D01*
X106912676Y-116487506D02*
X107007914Y-116392268D01*
X107007914Y-116392268D02*
X107055533Y-116297030D01*
X106865057Y-117249411D02*
X106817438Y-117297030D01*
X106817438Y-117297030D02*
X106769819Y-117392268D01*
X106769819Y-117392268D02*
X106769819Y-117630363D01*
X106769819Y-117630363D02*
X106817438Y-117725601D01*
X106817438Y-117725601D02*
X106865057Y-117773220D01*
X106865057Y-117773220D02*
X106960295Y-117820839D01*
X106960295Y-117820839D02*
X107055533Y-117820839D01*
X107055533Y-117820839D02*
X107198390Y-117773220D01*
X107198390Y-117773220D02*
X107769819Y-117201792D01*
X107769819Y-117201792D02*
X107769819Y-117820839D01*
X125264104Y-115439887D02*
X125264104Y-115916077D01*
X125549819Y-115344649D02*
X124549819Y-115677982D01*
X124549819Y-115677982D02*
X125549819Y-116011315D01*
X125549819Y-116868458D02*
X125549819Y-116297030D01*
X125549819Y-116582744D02*
X124549819Y-116582744D01*
X124549819Y-116582744D02*
X124692676Y-116487506D01*
X124692676Y-116487506D02*
X124787914Y-116392268D01*
X124787914Y-116392268D02*
X124835533Y-116297030D01*
X125549819Y-117344649D02*
X125549819Y-117535125D01*
X125549819Y-117535125D02*
X125502200Y-117630363D01*
X125502200Y-117630363D02*
X125454580Y-117677982D01*
X125454580Y-117677982D02*
X125311723Y-117773220D01*
X125311723Y-117773220D02*
X125121247Y-117820839D01*
X125121247Y-117820839D02*
X124740295Y-117820839D01*
X124740295Y-117820839D02*
X124645057Y-117773220D01*
X124645057Y-117773220D02*
X124597438Y-117725601D01*
X124597438Y-117725601D02*
X124549819Y-117630363D01*
X124549819Y-117630363D02*
X124549819Y-117439887D01*
X124549819Y-117439887D02*
X124597438Y-117344649D01*
X124597438Y-117344649D02*
X124645057Y-117297030D01*
X124645057Y-117297030D02*
X124740295Y-117249411D01*
X124740295Y-117249411D02*
X124978390Y-117249411D01*
X124978390Y-117249411D02*
X125073628Y-117297030D01*
X125073628Y-117297030D02*
X125121247Y-117344649D01*
X125121247Y-117344649D02*
X125168866Y-117439887D01*
X125168866Y-117439887D02*
X125168866Y-117630363D01*
X125168866Y-117630363D02*
X125121247Y-117725601D01*
X125121247Y-117725601D02*
X125073628Y-117773220D01*
X125073628Y-117773220D02*
X124978390Y-117820839D01*
X102404104Y-115439887D02*
X102404104Y-115916077D01*
X102689819Y-115344649D02*
X101689819Y-115677982D01*
X101689819Y-115677982D02*
X102689819Y-116011315D01*
X102689819Y-116868458D02*
X102689819Y-116297030D01*
X102689819Y-116582744D02*
X101689819Y-116582744D01*
X101689819Y-116582744D02*
X101832676Y-116487506D01*
X101832676Y-116487506D02*
X101927914Y-116392268D01*
X101927914Y-116392268D02*
X101975533Y-116297030D01*
X101689819Y-117487506D02*
X101689819Y-117582744D01*
X101689819Y-117582744D02*
X101737438Y-117677982D01*
X101737438Y-117677982D02*
X101785057Y-117725601D01*
X101785057Y-117725601D02*
X101880295Y-117773220D01*
X101880295Y-117773220D02*
X102070771Y-117820839D01*
X102070771Y-117820839D02*
X102308866Y-117820839D01*
X102308866Y-117820839D02*
X102499342Y-117773220D01*
X102499342Y-117773220D02*
X102594580Y-117725601D01*
X102594580Y-117725601D02*
X102642200Y-117677982D01*
X102642200Y-117677982D02*
X102689819Y-117582744D01*
X102689819Y-117582744D02*
X102689819Y-117487506D01*
X102689819Y-117487506D02*
X102642200Y-117392268D01*
X102642200Y-117392268D02*
X102594580Y-117344649D01*
X102594580Y-117344649D02*
X102499342Y-117297030D01*
X102499342Y-117297030D02*
X102308866Y-117249411D01*
X102308866Y-117249411D02*
X102070771Y-117249411D01*
X102070771Y-117249411D02*
X101880295Y-117297030D01*
X101880295Y-117297030D02*
X101785057Y-117344649D01*
X101785057Y-117344649D02*
X101737438Y-117392268D01*
X101737438Y-117392268D02*
X101689819Y-117487506D01*
X97324104Y-116392268D02*
X97324104Y-116868458D01*
X97609819Y-116297030D02*
X96609819Y-116630363D01*
X96609819Y-116630363D02*
X97609819Y-116963696D01*
X97038390Y-117439887D02*
X96990771Y-117344649D01*
X96990771Y-117344649D02*
X96943152Y-117297030D01*
X96943152Y-117297030D02*
X96847914Y-117249411D01*
X96847914Y-117249411D02*
X96800295Y-117249411D01*
X96800295Y-117249411D02*
X96705057Y-117297030D01*
X96705057Y-117297030D02*
X96657438Y-117344649D01*
X96657438Y-117344649D02*
X96609819Y-117439887D01*
X96609819Y-117439887D02*
X96609819Y-117630363D01*
X96609819Y-117630363D02*
X96657438Y-117725601D01*
X96657438Y-117725601D02*
X96705057Y-117773220D01*
X96705057Y-117773220D02*
X96800295Y-117820839D01*
X96800295Y-117820839D02*
X96847914Y-117820839D01*
X96847914Y-117820839D02*
X96943152Y-117773220D01*
X96943152Y-117773220D02*
X96990771Y-117725601D01*
X96990771Y-117725601D02*
X97038390Y-117630363D01*
X97038390Y-117630363D02*
X97038390Y-117439887D01*
X97038390Y-117439887D02*
X97086009Y-117344649D01*
X97086009Y-117344649D02*
X97133628Y-117297030D01*
X97133628Y-117297030D02*
X97228866Y-117249411D01*
X97228866Y-117249411D02*
X97419342Y-117249411D01*
X97419342Y-117249411D02*
X97514580Y-117297030D01*
X97514580Y-117297030D02*
X97562200Y-117344649D01*
X97562200Y-117344649D02*
X97609819Y-117439887D01*
X97609819Y-117439887D02*
X97609819Y-117630363D01*
X97609819Y-117630363D02*
X97562200Y-117725601D01*
X97562200Y-117725601D02*
X97514580Y-117773220D01*
X97514580Y-117773220D02*
X97419342Y-117820839D01*
X97419342Y-117820839D02*
X97228866Y-117820839D01*
X97228866Y-117820839D02*
X97133628Y-117773220D01*
X97133628Y-117773220D02*
X97086009Y-117725601D01*
X97086009Y-117725601D02*
X97038390Y-117630363D01*
X110024104Y-115439887D02*
X110024104Y-115916077D01*
X110309819Y-115344649D02*
X109309819Y-115677982D01*
X109309819Y-115677982D02*
X110309819Y-116011315D01*
X110309819Y-116868458D02*
X110309819Y-116297030D01*
X110309819Y-116582744D02*
X109309819Y-116582744D01*
X109309819Y-116582744D02*
X109452676Y-116487506D01*
X109452676Y-116487506D02*
X109547914Y-116392268D01*
X109547914Y-116392268D02*
X109595533Y-116297030D01*
X109309819Y-117201792D02*
X109309819Y-117820839D01*
X109309819Y-117820839D02*
X109690771Y-117487506D01*
X109690771Y-117487506D02*
X109690771Y-117630363D01*
X109690771Y-117630363D02*
X109738390Y-117725601D01*
X109738390Y-117725601D02*
X109786009Y-117773220D01*
X109786009Y-117773220D02*
X109881247Y-117820839D01*
X109881247Y-117820839D02*
X110119342Y-117820839D01*
X110119342Y-117820839D02*
X110214580Y-117773220D01*
X110214580Y-117773220D02*
X110262200Y-117725601D01*
X110262200Y-117725601D02*
X110309819Y-117630363D01*
X110309819Y-117630363D02*
X110309819Y-117344649D01*
X110309819Y-117344649D02*
X110262200Y-117249411D01*
X110262200Y-117249411D02*
X110214580Y-117201792D01*
X87164104Y-116392268D02*
X87164104Y-116868458D01*
X87449819Y-116297030D02*
X86449819Y-116630363D01*
X86449819Y-116630363D02*
X87449819Y-116963696D01*
X86783152Y-117725601D02*
X87449819Y-117725601D01*
X86402200Y-117487506D02*
X87116485Y-117249411D01*
X87116485Y-117249411D02*
X87116485Y-117868458D01*
X89704104Y-116392268D02*
X89704104Y-116868458D01*
X89989819Y-116297030D02*
X88989819Y-116630363D01*
X88989819Y-116630363D02*
X89989819Y-116963696D01*
X88989819Y-117773220D02*
X88989819Y-117297030D01*
X88989819Y-117297030D02*
X89466009Y-117249411D01*
X89466009Y-117249411D02*
X89418390Y-117297030D01*
X89418390Y-117297030D02*
X89370771Y-117392268D01*
X89370771Y-117392268D02*
X89370771Y-117630363D01*
X89370771Y-117630363D02*
X89418390Y-117725601D01*
X89418390Y-117725601D02*
X89466009Y-117773220D01*
X89466009Y-117773220D02*
X89561247Y-117820839D01*
X89561247Y-117820839D02*
X89799342Y-117820839D01*
X89799342Y-117820839D02*
X89894580Y-117773220D01*
X89894580Y-117773220D02*
X89942200Y-117725601D01*
X89942200Y-117725601D02*
X89989819Y-117630363D01*
X89989819Y-117630363D02*
X89989819Y-117392268D01*
X89989819Y-117392268D02*
X89942200Y-117297030D01*
X89942200Y-117297030D02*
X89894580Y-117249411D01*
X150949819Y-116297030D02*
X149949819Y-116297030D01*
X149949819Y-116297030D02*
X149949819Y-116535125D01*
X149949819Y-116535125D02*
X149997438Y-116677982D01*
X149997438Y-116677982D02*
X150092676Y-116773220D01*
X150092676Y-116773220D02*
X150187914Y-116820839D01*
X150187914Y-116820839D02*
X150378390Y-116868458D01*
X150378390Y-116868458D02*
X150521247Y-116868458D01*
X150521247Y-116868458D02*
X150711723Y-116820839D01*
X150711723Y-116820839D02*
X150806961Y-116773220D01*
X150806961Y-116773220D02*
X150902200Y-116677982D01*
X150902200Y-116677982D02*
X150949819Y-116535125D01*
X150949819Y-116535125D02*
X150949819Y-116297030D01*
X149949819Y-117201792D02*
X149949819Y-117868458D01*
X149949819Y-117868458D02*
X150949819Y-117439887D01*
X135709819Y-116297030D02*
X134709819Y-116297030D01*
X134709819Y-116297030D02*
X134709819Y-116535125D01*
X134709819Y-116535125D02*
X134757438Y-116677982D01*
X134757438Y-116677982D02*
X134852676Y-116773220D01*
X134852676Y-116773220D02*
X134947914Y-116820839D01*
X134947914Y-116820839D02*
X135138390Y-116868458D01*
X135138390Y-116868458D02*
X135281247Y-116868458D01*
X135281247Y-116868458D02*
X135471723Y-116820839D01*
X135471723Y-116820839D02*
X135566961Y-116773220D01*
X135566961Y-116773220D02*
X135662200Y-116677982D01*
X135662200Y-116677982D02*
X135709819Y-116535125D01*
X135709819Y-116535125D02*
X135709819Y-116297030D01*
X135709819Y-117820839D02*
X135709819Y-117249411D01*
X135709819Y-117535125D02*
X134709819Y-117535125D01*
X134709819Y-117535125D02*
X134852676Y-117439887D01*
X134852676Y-117439887D02*
X134947914Y-117344649D01*
X134947914Y-117344649D02*
X134995533Y-117249411D01*
X104944104Y-115439887D02*
X104944104Y-115916077D01*
X105229819Y-115344649D02*
X104229819Y-115677982D01*
X104229819Y-115677982D02*
X105229819Y-116011315D01*
X105229819Y-116868458D02*
X105229819Y-116297030D01*
X105229819Y-116582744D02*
X104229819Y-116582744D01*
X104229819Y-116582744D02*
X104372676Y-116487506D01*
X104372676Y-116487506D02*
X104467914Y-116392268D01*
X104467914Y-116392268D02*
X104515533Y-116297030D01*
X105229819Y-117820839D02*
X105229819Y-117249411D01*
X105229819Y-117535125D02*
X104229819Y-117535125D01*
X104229819Y-117535125D02*
X104372676Y-117439887D01*
X104372676Y-117439887D02*
X104467914Y-117344649D01*
X104467914Y-117344649D02*
X104515533Y-117249411D01*
X142948866Y-123907779D02*
X142948866Y-124669684D01*
X142329819Y-125622064D02*
X142329819Y-125145874D01*
X142329819Y-125145874D02*
X142806009Y-125098255D01*
X142806009Y-125098255D02*
X142758390Y-125145874D01*
X142758390Y-125145874D02*
X142710771Y-125241112D01*
X142710771Y-125241112D02*
X142710771Y-125479207D01*
X142710771Y-125479207D02*
X142758390Y-125574445D01*
X142758390Y-125574445D02*
X142806009Y-125622064D01*
X142806009Y-125622064D02*
X142901247Y-125669683D01*
X142901247Y-125669683D02*
X143139342Y-125669683D01*
X143139342Y-125669683D02*
X143234580Y-125622064D01*
X143234580Y-125622064D02*
X143282200Y-125574445D01*
X143282200Y-125574445D02*
X143329819Y-125479207D01*
X143329819Y-125479207D02*
X143329819Y-125241112D01*
X143329819Y-125241112D02*
X143282200Y-125145874D01*
X143282200Y-125145874D02*
X143234580Y-125098255D01*
X142329819Y-125955398D02*
X143329819Y-126288731D01*
X143329819Y-126288731D02*
X142329819Y-126622064D01*
X148028866Y-123907779D02*
X148028866Y-124669684D01*
X148409819Y-124288731D02*
X147647914Y-124288731D01*
X147409819Y-125622064D02*
X147409819Y-125145874D01*
X147409819Y-125145874D02*
X147886009Y-125098255D01*
X147886009Y-125098255D02*
X147838390Y-125145874D01*
X147838390Y-125145874D02*
X147790771Y-125241112D01*
X147790771Y-125241112D02*
X147790771Y-125479207D01*
X147790771Y-125479207D02*
X147838390Y-125574445D01*
X147838390Y-125574445D02*
X147886009Y-125622064D01*
X147886009Y-125622064D02*
X147981247Y-125669683D01*
X147981247Y-125669683D02*
X148219342Y-125669683D01*
X148219342Y-125669683D02*
X148314580Y-125622064D01*
X148314580Y-125622064D02*
X148362200Y-125574445D01*
X148362200Y-125574445D02*
X148409819Y-125479207D01*
X148409819Y-125479207D02*
X148409819Y-125241112D01*
X148409819Y-125241112D02*
X148362200Y-125145874D01*
X148362200Y-125145874D02*
X148314580Y-125098255D01*
X147409819Y-125955398D02*
X148409819Y-126288731D01*
X148409819Y-126288731D02*
X147409819Y-126622064D01*
X152537438Y-124431588D02*
X152489819Y-124336350D01*
X152489819Y-124336350D02*
X152489819Y-124193493D01*
X152489819Y-124193493D02*
X152537438Y-124050636D01*
X152537438Y-124050636D02*
X152632676Y-123955398D01*
X152632676Y-123955398D02*
X152727914Y-123907779D01*
X152727914Y-123907779D02*
X152918390Y-123860160D01*
X152918390Y-123860160D02*
X153061247Y-123860160D01*
X153061247Y-123860160D02*
X153251723Y-123907779D01*
X153251723Y-123907779D02*
X153346961Y-123955398D01*
X153346961Y-123955398D02*
X153442200Y-124050636D01*
X153442200Y-124050636D02*
X153489819Y-124193493D01*
X153489819Y-124193493D02*
X153489819Y-124288731D01*
X153489819Y-124288731D02*
X153442200Y-124431588D01*
X153442200Y-124431588D02*
X153394580Y-124479207D01*
X153394580Y-124479207D02*
X153061247Y-124479207D01*
X153061247Y-124479207D02*
X153061247Y-124288731D01*
X153489819Y-124907779D02*
X152489819Y-124907779D01*
X152489819Y-124907779D02*
X153489819Y-125479207D01*
X153489819Y-125479207D02*
X152489819Y-125479207D01*
X153489819Y-125955398D02*
X152489819Y-125955398D01*
X152489819Y-125955398D02*
X152489819Y-126193493D01*
X152489819Y-126193493D02*
X152537438Y-126336350D01*
X152537438Y-126336350D02*
X152632676Y-126431588D01*
X152632676Y-126431588D02*
X152727914Y-126479207D01*
X152727914Y-126479207D02*
X152918390Y-126526826D01*
X152918390Y-126526826D02*
X153061247Y-126526826D01*
X153061247Y-126526826D02*
X153251723Y-126479207D01*
X153251723Y-126479207D02*
X153346961Y-126431588D01*
X153346961Y-126431588D02*
X153442200Y-126336350D01*
X153442200Y-126336350D02*
X153489819Y-126193493D01*
X153489819Y-126193493D02*
X153489819Y-125955398D01*
X140789819Y-123907779D02*
X139789819Y-123907779D01*
X139789819Y-123907779D02*
X139789819Y-124145874D01*
X139789819Y-124145874D02*
X139837438Y-124288731D01*
X139837438Y-124288731D02*
X139932676Y-124383969D01*
X139932676Y-124383969D02*
X140027914Y-124431588D01*
X140027914Y-124431588D02*
X140218390Y-124479207D01*
X140218390Y-124479207D02*
X140361247Y-124479207D01*
X140361247Y-124479207D02*
X140551723Y-124431588D01*
X140551723Y-124431588D02*
X140646961Y-124383969D01*
X140646961Y-124383969D02*
X140742200Y-124288731D01*
X140742200Y-124288731D02*
X140789819Y-124145874D01*
X140789819Y-124145874D02*
X140789819Y-123907779D01*
X140789819Y-125479207D02*
X140313628Y-125145874D01*
X140789819Y-124907779D02*
X139789819Y-124907779D01*
X139789819Y-124907779D02*
X139789819Y-125288731D01*
X139789819Y-125288731D02*
X139837438Y-125383969D01*
X139837438Y-125383969D02*
X139885057Y-125431588D01*
X139885057Y-125431588D02*
X139980295Y-125479207D01*
X139980295Y-125479207D02*
X140123152Y-125479207D01*
X140123152Y-125479207D02*
X140218390Y-125431588D01*
X140218390Y-125431588D02*
X140266009Y-125383969D01*
X140266009Y-125383969D02*
X140313628Y-125288731D01*
X140313628Y-125288731D02*
X140313628Y-124907779D01*
X140885057Y-126574445D02*
X140837438Y-126479207D01*
X140837438Y-126479207D02*
X140742200Y-126383969D01*
X140742200Y-126383969D02*
X140599342Y-126241112D01*
X140599342Y-126241112D02*
X140551723Y-126145874D01*
X140551723Y-126145874D02*
X140551723Y-126050636D01*
X140789819Y-126098255D02*
X140742200Y-126003017D01*
X140742200Y-126003017D02*
X140646961Y-125907779D01*
X140646961Y-125907779D02*
X140456485Y-125860160D01*
X140456485Y-125860160D02*
X140123152Y-125860160D01*
X140123152Y-125860160D02*
X139932676Y-125907779D01*
X139932676Y-125907779D02*
X139837438Y-126003017D01*
X139837438Y-126003017D02*
X139789819Y-126098255D01*
X139789819Y-126098255D02*
X139789819Y-126288731D01*
X139789819Y-126288731D02*
X139837438Y-126383969D01*
X139837438Y-126383969D02*
X139932676Y-126479207D01*
X139932676Y-126479207D02*
X140123152Y-126526826D01*
X140123152Y-126526826D02*
X140456485Y-126526826D01*
X140456485Y-126526826D02*
X140646961Y-126479207D01*
X140646961Y-126479207D02*
X140742200Y-126383969D01*
X140742200Y-126383969D02*
X140789819Y-126288731D01*
X140789819Y-126288731D02*
X140789819Y-126098255D01*
X139885057Y-126907779D02*
X139837438Y-126955398D01*
X139837438Y-126955398D02*
X139789819Y-127050636D01*
X139789819Y-127050636D02*
X139789819Y-127288731D01*
X139789819Y-127288731D02*
X139837438Y-127383969D01*
X139837438Y-127383969D02*
X139885057Y-127431588D01*
X139885057Y-127431588D02*
X139980295Y-127479207D01*
X139980295Y-127479207D02*
X140075533Y-127479207D01*
X140075533Y-127479207D02*
X140218390Y-127431588D01*
X140218390Y-127431588D02*
X140789819Y-126860160D01*
X140789819Y-126860160D02*
X140789819Y-127479207D01*
X150949819Y-124479207D02*
X150473628Y-124145874D01*
X150949819Y-123907779D02*
X149949819Y-123907779D01*
X149949819Y-123907779D02*
X149949819Y-124288731D01*
X149949819Y-124288731D02*
X149997438Y-124383969D01*
X149997438Y-124383969D02*
X150045057Y-124431588D01*
X150045057Y-124431588D02*
X150140295Y-124479207D01*
X150140295Y-124479207D02*
X150283152Y-124479207D01*
X150283152Y-124479207D02*
X150378390Y-124431588D01*
X150378390Y-124431588D02*
X150426009Y-124383969D01*
X150426009Y-124383969D02*
X150473628Y-124288731D01*
X150473628Y-124288731D02*
X150473628Y-123907779D01*
X150902200Y-125288731D02*
X150949819Y-125193493D01*
X150949819Y-125193493D02*
X150949819Y-125003017D01*
X150949819Y-125003017D02*
X150902200Y-124907779D01*
X150902200Y-124907779D02*
X150806961Y-124860160D01*
X150806961Y-124860160D02*
X150426009Y-124860160D01*
X150426009Y-124860160D02*
X150330771Y-124907779D01*
X150330771Y-124907779D02*
X150283152Y-125003017D01*
X150283152Y-125003017D02*
X150283152Y-125193493D01*
X150283152Y-125193493D02*
X150330771Y-125288731D01*
X150330771Y-125288731D02*
X150426009Y-125336350D01*
X150426009Y-125336350D02*
X150521247Y-125336350D01*
X150521247Y-125336350D02*
X150616485Y-124860160D01*
X150902200Y-125717303D02*
X150949819Y-125812541D01*
X150949819Y-125812541D02*
X150949819Y-126003017D01*
X150949819Y-126003017D02*
X150902200Y-126098255D01*
X150902200Y-126098255D02*
X150806961Y-126145874D01*
X150806961Y-126145874D02*
X150759342Y-126145874D01*
X150759342Y-126145874D02*
X150664104Y-126098255D01*
X150664104Y-126098255D02*
X150616485Y-126003017D01*
X150616485Y-126003017D02*
X150616485Y-125860160D01*
X150616485Y-125860160D02*
X150568866Y-125764922D01*
X150568866Y-125764922D02*
X150473628Y-125717303D01*
X150473628Y-125717303D02*
X150426009Y-125717303D01*
X150426009Y-125717303D02*
X150330771Y-125764922D01*
X150330771Y-125764922D02*
X150283152Y-125860160D01*
X150283152Y-125860160D02*
X150283152Y-126003017D01*
X150283152Y-126003017D02*
X150330771Y-126098255D01*
X150902200Y-126955398D02*
X150949819Y-126860160D01*
X150949819Y-126860160D02*
X150949819Y-126669684D01*
X150949819Y-126669684D02*
X150902200Y-126574446D01*
X150902200Y-126574446D02*
X150806961Y-126526827D01*
X150806961Y-126526827D02*
X150426009Y-126526827D01*
X150426009Y-126526827D02*
X150330771Y-126574446D01*
X150330771Y-126574446D02*
X150283152Y-126669684D01*
X150283152Y-126669684D02*
X150283152Y-126860160D01*
X150283152Y-126860160D02*
X150330771Y-126955398D01*
X150330771Y-126955398D02*
X150426009Y-127003017D01*
X150426009Y-127003017D02*
X150521247Y-127003017D01*
X150521247Y-127003017D02*
X150616485Y-126526827D01*
X150283152Y-127288732D02*
X150283152Y-127669684D01*
X149949819Y-127431589D02*
X150806961Y-127431589D01*
X150806961Y-127431589D02*
X150902200Y-127479208D01*
X150902200Y-127479208D02*
X150949819Y-127574446D01*
X150949819Y-127574446D02*
X150949819Y-127669684D01*
X145869819Y-123907779D02*
X144869819Y-123907779D01*
X145869819Y-124955397D02*
X145393628Y-124622064D01*
X145869819Y-124383969D02*
X144869819Y-124383969D01*
X144869819Y-124383969D02*
X144869819Y-124764921D01*
X144869819Y-124764921D02*
X144917438Y-124860159D01*
X144917438Y-124860159D02*
X144965057Y-124907778D01*
X144965057Y-124907778D02*
X145060295Y-124955397D01*
X145060295Y-124955397D02*
X145203152Y-124955397D01*
X145203152Y-124955397D02*
X145298390Y-124907778D01*
X145298390Y-124907778D02*
X145346009Y-124860159D01*
X145346009Y-124860159D02*
X145393628Y-124764921D01*
X145393628Y-124764921D02*
X145393628Y-124383969D01*
X145965057Y-126050635D02*
X145917438Y-125955397D01*
X145917438Y-125955397D02*
X145822200Y-125860159D01*
X145822200Y-125860159D02*
X145679342Y-125717302D01*
X145679342Y-125717302D02*
X145631723Y-125622064D01*
X145631723Y-125622064D02*
X145631723Y-125526826D01*
X145869819Y-125574445D02*
X145822200Y-125479207D01*
X145822200Y-125479207D02*
X145726961Y-125383969D01*
X145726961Y-125383969D02*
X145536485Y-125336350D01*
X145536485Y-125336350D02*
X145203152Y-125336350D01*
X145203152Y-125336350D02*
X145012676Y-125383969D01*
X145012676Y-125383969D02*
X144917438Y-125479207D01*
X144917438Y-125479207D02*
X144869819Y-125574445D01*
X144869819Y-125574445D02*
X144869819Y-125764921D01*
X144869819Y-125764921D02*
X144917438Y-125860159D01*
X144917438Y-125860159D02*
X145012676Y-125955397D01*
X145012676Y-125955397D02*
X145203152Y-126003016D01*
X145203152Y-126003016D02*
X145536485Y-126003016D01*
X145536485Y-126003016D02*
X145726961Y-125955397D01*
X145726961Y-125955397D02*
X145822200Y-125860159D01*
X145822200Y-125860159D02*
X145869819Y-125764921D01*
X145869819Y-125764921D02*
X145869819Y-125574445D01*
X144965057Y-126383969D02*
X144917438Y-126431588D01*
X144917438Y-126431588D02*
X144869819Y-126526826D01*
X144869819Y-126526826D02*
X144869819Y-126764921D01*
X144869819Y-126764921D02*
X144917438Y-126860159D01*
X144917438Y-126860159D02*
X144965057Y-126907778D01*
X144965057Y-126907778D02*
X145060295Y-126955397D01*
X145060295Y-126955397D02*
X145155533Y-126955397D01*
X145155533Y-126955397D02*
X145298390Y-126907778D01*
X145298390Y-126907778D02*
X145869819Y-126336350D01*
X145869819Y-126336350D02*
X145869819Y-126955397D01*
X74742779Y-118961819D02*
X74933255Y-118961819D01*
X74933255Y-118961819D02*
X75028493Y-119009438D01*
X75028493Y-119009438D02*
X75076112Y-119057057D01*
X75076112Y-119057057D02*
X75171350Y-119199914D01*
X75171350Y-119199914D02*
X75218969Y-119390390D01*
X75218969Y-119390390D02*
X75218969Y-119771342D01*
X75218969Y-119771342D02*
X75171350Y-119866580D01*
X75171350Y-119866580D02*
X75123731Y-119914200D01*
X75123731Y-119914200D02*
X75028493Y-119961819D01*
X75028493Y-119961819D02*
X74838017Y-119961819D01*
X74838017Y-119961819D02*
X74742779Y-119914200D01*
X74742779Y-119914200D02*
X74695160Y-119866580D01*
X74695160Y-119866580D02*
X74647541Y-119771342D01*
X74647541Y-119771342D02*
X74647541Y-119533247D01*
X74647541Y-119533247D02*
X74695160Y-119438009D01*
X74695160Y-119438009D02*
X74742779Y-119390390D01*
X74742779Y-119390390D02*
X74838017Y-119342771D01*
X74838017Y-119342771D02*
X75028493Y-119342771D01*
X75028493Y-119342771D02*
X75123731Y-119390390D01*
X75123731Y-119390390D02*
X75171350Y-119438009D01*
X75171350Y-119438009D02*
X75218969Y-119533247D01*
X73695160Y-119961819D02*
X74266588Y-119961819D01*
X73980874Y-119961819D02*
X73980874Y-118961819D01*
X73980874Y-118961819D02*
X74076112Y-119104676D01*
X74076112Y-119104676D02*
X74171350Y-119199914D01*
X74171350Y-119199914D02*
X74266588Y-119247533D01*
X155158839Y-121597057D02*
X155111220Y-121549438D01*
X155111220Y-121549438D02*
X155015982Y-121501819D01*
X155015982Y-121501819D02*
X154777887Y-121501819D01*
X154777887Y-121501819D02*
X154682649Y-121549438D01*
X154682649Y-121549438D02*
X154635030Y-121597057D01*
X154635030Y-121597057D02*
X154587411Y-121692295D01*
X154587411Y-121692295D02*
X154587411Y-121787533D01*
X154587411Y-121787533D02*
X154635030Y-121930390D01*
X154635030Y-121930390D02*
X155206458Y-122501819D01*
X155206458Y-122501819D02*
X154587411Y-122501819D01*
X154714411Y-119961819D02*
X155285839Y-119961819D01*
X155000125Y-119961819D02*
X155000125Y-118961819D01*
X155000125Y-118961819D02*
X155095363Y-119104676D01*
X155095363Y-119104676D02*
X155190601Y-119199914D01*
X155190601Y-119199914D02*
X155285839Y-119247533D01*
X74742779Y-121501819D02*
X74933255Y-121501819D01*
X74933255Y-121501819D02*
X75028493Y-121549438D01*
X75028493Y-121549438D02*
X75076112Y-121597057D01*
X75076112Y-121597057D02*
X75171350Y-121739914D01*
X75171350Y-121739914D02*
X75218969Y-121930390D01*
X75218969Y-121930390D02*
X75218969Y-122311342D01*
X75218969Y-122311342D02*
X75171350Y-122406580D01*
X75171350Y-122406580D02*
X75123731Y-122454200D01*
X75123731Y-122454200D02*
X75028493Y-122501819D01*
X75028493Y-122501819D02*
X74838017Y-122501819D01*
X74838017Y-122501819D02*
X74742779Y-122454200D01*
X74742779Y-122454200D02*
X74695160Y-122406580D01*
X74695160Y-122406580D02*
X74647541Y-122311342D01*
X74647541Y-122311342D02*
X74647541Y-122073247D01*
X74647541Y-122073247D02*
X74695160Y-121978009D01*
X74695160Y-121978009D02*
X74742779Y-121930390D01*
X74742779Y-121930390D02*
X74838017Y-121882771D01*
X74838017Y-121882771D02*
X75028493Y-121882771D01*
X75028493Y-121882771D02*
X75123731Y-121930390D01*
X75123731Y-121930390D02*
X75171350Y-121978009D01*
X75171350Y-121978009D02*
X75218969Y-122073247D01*
X74266588Y-121597057D02*
X74218969Y-121549438D01*
X74218969Y-121549438D02*
X74123731Y-121501819D01*
X74123731Y-121501819D02*
X73885636Y-121501819D01*
X73885636Y-121501819D02*
X73790398Y-121549438D01*
X73790398Y-121549438D02*
X73742779Y-121597057D01*
X73742779Y-121597057D02*
X73695160Y-121692295D01*
X73695160Y-121692295D02*
X73695160Y-121787533D01*
X73695160Y-121787533D02*
X73742779Y-121930390D01*
X73742779Y-121930390D02*
X74314207Y-122501819D01*
X74314207Y-122501819D02*
X73695160Y-122501819D01*
X73180952Y-123914819D02*
X72723809Y-123914819D01*
X72952381Y-124914819D02*
X72952381Y-123914819D01*
X72457142Y-124914819D02*
X72457142Y-123914819D01*
X72114285Y-124914819D02*
X72114285Y-124391009D01*
X72114285Y-124391009D02*
X72152380Y-124295771D01*
X72152380Y-124295771D02*
X72228571Y-124248152D01*
X72228571Y-124248152D02*
X72342857Y-124248152D01*
X72342857Y-124248152D02*
X72419047Y-124295771D01*
X72419047Y-124295771D02*
X72457142Y-124343390D01*
X71428570Y-124867200D02*
X71504761Y-124914819D01*
X71504761Y-124914819D02*
X71657142Y-124914819D01*
X71657142Y-124914819D02*
X71733332Y-124867200D01*
X71733332Y-124867200D02*
X71771428Y-124771961D01*
X71771428Y-124771961D02*
X71771428Y-124391009D01*
X71771428Y-124391009D02*
X71733332Y-124295771D01*
X71733332Y-124295771D02*
X71657142Y-124248152D01*
X71657142Y-124248152D02*
X71504761Y-124248152D01*
X71504761Y-124248152D02*
X71428570Y-124295771D01*
X71428570Y-124295771D02*
X71390475Y-124391009D01*
X71390475Y-124391009D02*
X71390475Y-124486247D01*
X71390475Y-124486247D02*
X71771428Y-124581485D01*
X70514285Y-123914819D02*
X70323809Y-124914819D01*
X70323809Y-124914819D02*
X70171428Y-124200533D01*
X70171428Y-124200533D02*
X70019047Y-124914819D01*
X70019047Y-124914819D02*
X69828571Y-123914819D01*
X69523808Y-124914819D02*
X69523808Y-124248152D01*
X69523808Y-123914819D02*
X69561904Y-123962438D01*
X69561904Y-123962438D02*
X69523808Y-124010057D01*
X69523808Y-124010057D02*
X69485713Y-123962438D01*
X69485713Y-123962438D02*
X69523808Y-123914819D01*
X69523808Y-123914819D02*
X69523808Y-124010057D01*
X69219047Y-124248152D02*
X68799999Y-124248152D01*
X68799999Y-124248152D02*
X69219047Y-124914819D01*
X69219047Y-124914819D02*
X68799999Y-124914819D01*
X68152380Y-124914819D02*
X68152380Y-124391009D01*
X68152380Y-124391009D02*
X68190475Y-124295771D01*
X68190475Y-124295771D02*
X68266666Y-124248152D01*
X68266666Y-124248152D02*
X68419047Y-124248152D01*
X68419047Y-124248152D02*
X68495237Y-124295771D01*
X68152380Y-124867200D02*
X68228571Y-124914819D01*
X68228571Y-124914819D02*
X68419047Y-124914819D01*
X68419047Y-124914819D02*
X68495237Y-124867200D01*
X68495237Y-124867200D02*
X68533333Y-124771961D01*
X68533333Y-124771961D02*
X68533333Y-124676723D01*
X68533333Y-124676723D02*
X68495237Y-124581485D01*
X68495237Y-124581485D02*
X68419047Y-124533866D01*
X68419047Y-124533866D02*
X68228571Y-124533866D01*
X68228571Y-124533866D02*
X68152380Y-124486247D01*
X67771427Y-124914819D02*
X67771427Y-124248152D01*
X67771427Y-124438628D02*
X67733332Y-124343390D01*
X67733332Y-124343390D02*
X67695237Y-124295771D01*
X67695237Y-124295771D02*
X67619046Y-124248152D01*
X67619046Y-124248152D02*
X67542856Y-124248152D01*
X66933332Y-124914819D02*
X66933332Y-123914819D01*
X66933332Y-124867200D02*
X67009523Y-124914819D01*
X67009523Y-124914819D02*
X67161904Y-124914819D01*
X67161904Y-124914819D02*
X67238094Y-124867200D01*
X67238094Y-124867200D02*
X67276189Y-124819580D01*
X67276189Y-124819580D02*
X67314285Y-124724342D01*
X67314285Y-124724342D02*
X67314285Y-124438628D01*
X67314285Y-124438628D02*
X67276189Y-124343390D01*
X67276189Y-124343390D02*
X67238094Y-124295771D01*
X67238094Y-124295771D02*
X67161904Y-124248152D01*
X67161904Y-124248152D02*
X67009523Y-124248152D01*
X67009523Y-124248152D02*
X66933332Y-124295771D01*
X72571428Y-126289446D02*
X72647618Y-126241827D01*
X72647618Y-126241827D02*
X72685713Y-126194208D01*
X72685713Y-126194208D02*
X72723809Y-126098970D01*
X72723809Y-126098970D02*
X72723809Y-126051351D01*
X72723809Y-126051351D02*
X72685713Y-125956113D01*
X72685713Y-125956113D02*
X72647618Y-125908494D01*
X72647618Y-125908494D02*
X72571428Y-125860875D01*
X72571428Y-125860875D02*
X72419047Y-125860875D01*
X72419047Y-125860875D02*
X72342856Y-125908494D01*
X72342856Y-125908494D02*
X72304761Y-125956113D01*
X72304761Y-125956113D02*
X72266666Y-126051351D01*
X72266666Y-126051351D02*
X72266666Y-126098970D01*
X72266666Y-126098970D02*
X72304761Y-126194208D01*
X72304761Y-126194208D02*
X72342856Y-126241827D01*
X72342856Y-126241827D02*
X72419047Y-126289446D01*
X72419047Y-126289446D02*
X72571428Y-126289446D01*
X72571428Y-126289446D02*
X72647618Y-126337065D01*
X72647618Y-126337065D02*
X72685713Y-126384684D01*
X72685713Y-126384684D02*
X72723809Y-126479922D01*
X72723809Y-126479922D02*
X72723809Y-126670398D01*
X72723809Y-126670398D02*
X72685713Y-126765636D01*
X72685713Y-126765636D02*
X72647618Y-126813256D01*
X72647618Y-126813256D02*
X72571428Y-126860875D01*
X72571428Y-126860875D02*
X72419047Y-126860875D01*
X72419047Y-126860875D02*
X72342856Y-126813256D01*
X72342856Y-126813256D02*
X72304761Y-126765636D01*
X72304761Y-126765636D02*
X72266666Y-126670398D01*
X72266666Y-126670398D02*
X72266666Y-126479922D01*
X72266666Y-126479922D02*
X72304761Y-126384684D01*
X72304761Y-126384684D02*
X72342856Y-126337065D01*
X72342856Y-126337065D02*
X72419047Y-126289446D01*
X71923808Y-126479922D02*
X71314285Y-126479922D01*
X70933332Y-126860875D02*
X70933332Y-125860875D01*
X70933332Y-126241827D02*
X70857142Y-126194208D01*
X70857142Y-126194208D02*
X70704761Y-126194208D01*
X70704761Y-126194208D02*
X70628570Y-126241827D01*
X70628570Y-126241827D02*
X70590475Y-126289446D01*
X70590475Y-126289446D02*
X70552380Y-126384684D01*
X70552380Y-126384684D02*
X70552380Y-126670398D01*
X70552380Y-126670398D02*
X70590475Y-126765636D01*
X70590475Y-126765636D02*
X70628570Y-126813256D01*
X70628570Y-126813256D02*
X70704761Y-126860875D01*
X70704761Y-126860875D02*
X70857142Y-126860875D01*
X70857142Y-126860875D02*
X70933332Y-126813256D01*
X70209522Y-126860875D02*
X70209522Y-126194208D01*
X70209522Y-125860875D02*
X70247618Y-125908494D01*
X70247618Y-125908494D02*
X70209522Y-125956113D01*
X70209522Y-125956113D02*
X70171427Y-125908494D01*
X70171427Y-125908494D02*
X70209522Y-125860875D01*
X70209522Y-125860875D02*
X70209522Y-125956113D01*
X69942856Y-126194208D02*
X69638094Y-126194208D01*
X69828570Y-125860875D02*
X69828570Y-126718017D01*
X69828570Y-126718017D02*
X69790475Y-126813256D01*
X69790475Y-126813256D02*
X69714285Y-126860875D01*
X69714285Y-126860875D02*
X69638094Y-126860875D01*
X68761903Y-126860875D02*
X68761903Y-125860875D01*
X68419047Y-126813256D02*
X68304761Y-126860875D01*
X68304761Y-126860875D02*
X68114285Y-126860875D01*
X68114285Y-126860875D02*
X68038094Y-126813256D01*
X68038094Y-126813256D02*
X67999999Y-126765636D01*
X67999999Y-126765636D02*
X67961904Y-126670398D01*
X67961904Y-126670398D02*
X67961904Y-126575160D01*
X67961904Y-126575160D02*
X67999999Y-126479922D01*
X67999999Y-126479922D02*
X68038094Y-126432303D01*
X68038094Y-126432303D02*
X68114285Y-126384684D01*
X68114285Y-126384684D02*
X68266666Y-126337065D01*
X68266666Y-126337065D02*
X68342856Y-126289446D01*
X68342856Y-126289446D02*
X68380951Y-126241827D01*
X68380951Y-126241827D02*
X68419047Y-126146589D01*
X68419047Y-126146589D02*
X68419047Y-126051351D01*
X68419047Y-126051351D02*
X68380951Y-125956113D01*
X68380951Y-125956113D02*
X68342856Y-125908494D01*
X68342856Y-125908494D02*
X68266666Y-125860875D01*
X68266666Y-125860875D02*
X68076189Y-125860875D01*
X68076189Y-125860875D02*
X67961904Y-125908494D01*
X67657142Y-126575160D02*
X67276189Y-126575160D01*
X67733332Y-126860875D02*
X67466665Y-125860875D01*
X67466665Y-125860875D02*
X67199999Y-126860875D01*
X72647619Y-128470819D02*
X72647619Y-127470819D01*
X72647619Y-127470819D02*
X72342857Y-127470819D01*
X72342857Y-127470819D02*
X72266667Y-127518438D01*
X72266667Y-127518438D02*
X72228572Y-127566057D01*
X72228572Y-127566057D02*
X72190476Y-127661295D01*
X72190476Y-127661295D02*
X72190476Y-127804152D01*
X72190476Y-127804152D02*
X72228572Y-127899390D01*
X72228572Y-127899390D02*
X72266667Y-127947009D01*
X72266667Y-127947009D02*
X72342857Y-127994628D01*
X72342857Y-127994628D02*
X72647619Y-127994628D01*
X71847619Y-128470819D02*
X71847619Y-127804152D01*
X71847619Y-127994628D02*
X71809524Y-127899390D01*
X71809524Y-127899390D02*
X71771429Y-127851771D01*
X71771429Y-127851771D02*
X71695238Y-127804152D01*
X71695238Y-127804152D02*
X71619048Y-127804152D01*
X71238096Y-128470819D02*
X71314286Y-128423200D01*
X71314286Y-128423200D02*
X71352381Y-128375580D01*
X71352381Y-128375580D02*
X71390477Y-128280342D01*
X71390477Y-128280342D02*
X71390477Y-127994628D01*
X71390477Y-127994628D02*
X71352381Y-127899390D01*
X71352381Y-127899390D02*
X71314286Y-127851771D01*
X71314286Y-127851771D02*
X71238096Y-127804152D01*
X71238096Y-127804152D02*
X71123810Y-127804152D01*
X71123810Y-127804152D02*
X71047619Y-127851771D01*
X71047619Y-127851771D02*
X71009524Y-127899390D01*
X71009524Y-127899390D02*
X70971429Y-127994628D01*
X70971429Y-127994628D02*
X70971429Y-128280342D01*
X70971429Y-128280342D02*
X71009524Y-128375580D01*
X71009524Y-128375580D02*
X71047619Y-128423200D01*
X71047619Y-128423200D02*
X71123810Y-128470819D01*
X71123810Y-128470819D02*
X71238096Y-128470819D01*
X70742857Y-127804152D02*
X70438095Y-127804152D01*
X70628571Y-127470819D02*
X70628571Y-128327961D01*
X70628571Y-128327961D02*
X70590476Y-128423200D01*
X70590476Y-128423200D02*
X70514286Y-128470819D01*
X70514286Y-128470819D02*
X70438095Y-128470819D01*
X70057143Y-128470819D02*
X70133333Y-128423200D01*
X70133333Y-128423200D02*
X70171428Y-128375580D01*
X70171428Y-128375580D02*
X70209524Y-128280342D01*
X70209524Y-128280342D02*
X70209524Y-127994628D01*
X70209524Y-127994628D02*
X70171428Y-127899390D01*
X70171428Y-127899390D02*
X70133333Y-127851771D01*
X70133333Y-127851771D02*
X70057143Y-127804152D01*
X70057143Y-127804152D02*
X69942857Y-127804152D01*
X69942857Y-127804152D02*
X69866666Y-127851771D01*
X69866666Y-127851771D02*
X69828571Y-127899390D01*
X69828571Y-127899390D02*
X69790476Y-127994628D01*
X69790476Y-127994628D02*
X69790476Y-128280342D01*
X69790476Y-128280342D02*
X69828571Y-128375580D01*
X69828571Y-128375580D02*
X69866666Y-128423200D01*
X69866666Y-128423200D02*
X69942857Y-128470819D01*
X69942857Y-128470819D02*
X70057143Y-128470819D01*
X69561904Y-127804152D02*
X69257142Y-127804152D01*
X69447618Y-127470819D02*
X69447618Y-128327961D01*
X69447618Y-128327961D02*
X69409523Y-128423200D01*
X69409523Y-128423200D02*
X69333333Y-128470819D01*
X69333333Y-128470819D02*
X69257142Y-128470819D01*
X69066666Y-127804152D02*
X68876190Y-128470819D01*
X68685713Y-127804152D02*
X68876190Y-128470819D01*
X68876190Y-128470819D02*
X68952380Y-128708914D01*
X68952380Y-128708914D02*
X68990475Y-128756533D01*
X68990475Y-128756533D02*
X69066666Y-128804152D01*
X68380951Y-127804152D02*
X68380951Y-128804152D01*
X68380951Y-127851771D02*
X68304761Y-127804152D01*
X68304761Y-127804152D02*
X68152380Y-127804152D01*
X68152380Y-127804152D02*
X68076189Y-127851771D01*
X68076189Y-127851771D02*
X68038094Y-127899390D01*
X68038094Y-127899390D02*
X67999999Y-127994628D01*
X67999999Y-127994628D02*
X67999999Y-128280342D01*
X67999999Y-128280342D02*
X68038094Y-128375580D01*
X68038094Y-128375580D02*
X68076189Y-128423200D01*
X68076189Y-128423200D02*
X68152380Y-128470819D01*
X68152380Y-128470819D02*
X68304761Y-128470819D01*
X68304761Y-128470819D02*
X68380951Y-128423200D01*
X67352379Y-128423200D02*
X67428570Y-128470819D01*
X67428570Y-128470819D02*
X67580951Y-128470819D01*
X67580951Y-128470819D02*
X67657141Y-128423200D01*
X67657141Y-128423200D02*
X67695237Y-128327961D01*
X67695237Y-128327961D02*
X67695237Y-127947009D01*
X67695237Y-127947009D02*
X67657141Y-127851771D01*
X67657141Y-127851771D02*
X67580951Y-127804152D01*
X67580951Y-127804152D02*
X67428570Y-127804152D01*
X67428570Y-127804152D02*
X67352379Y-127851771D01*
X67352379Y-127851771D02*
X67314284Y-127947009D01*
X67314284Y-127947009D02*
X67314284Y-128042247D01*
X67314284Y-128042247D02*
X67695237Y-128137485D01*
X71276191Y-129556953D02*
X71161905Y-129604572D01*
X71161905Y-129604572D02*
X71123810Y-129652191D01*
X71123810Y-129652191D02*
X71085714Y-129747429D01*
X71085714Y-129747429D02*
X71085714Y-129890286D01*
X71085714Y-129890286D02*
X71123810Y-129985524D01*
X71123810Y-129985524D02*
X71161905Y-130033144D01*
X71161905Y-130033144D02*
X71238095Y-130080763D01*
X71238095Y-130080763D02*
X71542857Y-130080763D01*
X71542857Y-130080763D02*
X71542857Y-129080763D01*
X71542857Y-129080763D02*
X71276191Y-129080763D01*
X71276191Y-129080763D02*
X71200000Y-129128382D01*
X71200000Y-129128382D02*
X71161905Y-129176001D01*
X71161905Y-129176001D02*
X71123810Y-129271239D01*
X71123810Y-129271239D02*
X71123810Y-129366477D01*
X71123810Y-129366477D02*
X71161905Y-129461715D01*
X71161905Y-129461715D02*
X71200000Y-129509334D01*
X71200000Y-129509334D02*
X71276191Y-129556953D01*
X71276191Y-129556953D02*
X71542857Y-129556953D01*
X70628572Y-130080763D02*
X70704762Y-130033144D01*
X70704762Y-130033144D02*
X70742857Y-129985524D01*
X70742857Y-129985524D02*
X70780953Y-129890286D01*
X70780953Y-129890286D02*
X70780953Y-129604572D01*
X70780953Y-129604572D02*
X70742857Y-129509334D01*
X70742857Y-129509334D02*
X70704762Y-129461715D01*
X70704762Y-129461715D02*
X70628572Y-129414096D01*
X70628572Y-129414096D02*
X70514286Y-129414096D01*
X70514286Y-129414096D02*
X70438095Y-129461715D01*
X70438095Y-129461715D02*
X70400000Y-129509334D01*
X70400000Y-129509334D02*
X70361905Y-129604572D01*
X70361905Y-129604572D02*
X70361905Y-129890286D01*
X70361905Y-129890286D02*
X70400000Y-129985524D01*
X70400000Y-129985524D02*
X70438095Y-130033144D01*
X70438095Y-130033144D02*
X70514286Y-130080763D01*
X70514286Y-130080763D02*
X70628572Y-130080763D01*
X69676190Y-130080763D02*
X69676190Y-129556953D01*
X69676190Y-129556953D02*
X69714285Y-129461715D01*
X69714285Y-129461715D02*
X69790476Y-129414096D01*
X69790476Y-129414096D02*
X69942857Y-129414096D01*
X69942857Y-129414096D02*
X70019047Y-129461715D01*
X69676190Y-130033144D02*
X69752381Y-130080763D01*
X69752381Y-130080763D02*
X69942857Y-130080763D01*
X69942857Y-130080763D02*
X70019047Y-130033144D01*
X70019047Y-130033144D02*
X70057143Y-129937905D01*
X70057143Y-129937905D02*
X70057143Y-129842667D01*
X70057143Y-129842667D02*
X70019047Y-129747429D01*
X70019047Y-129747429D02*
X69942857Y-129699810D01*
X69942857Y-129699810D02*
X69752381Y-129699810D01*
X69752381Y-129699810D02*
X69676190Y-129652191D01*
X69295237Y-130080763D02*
X69295237Y-129414096D01*
X69295237Y-129604572D02*
X69257142Y-129509334D01*
X69257142Y-129509334D02*
X69219047Y-129461715D01*
X69219047Y-129461715D02*
X69142856Y-129414096D01*
X69142856Y-129414096D02*
X69066666Y-129414096D01*
X68457142Y-130080763D02*
X68457142Y-129080763D01*
X68457142Y-130033144D02*
X68533333Y-130080763D01*
X68533333Y-130080763D02*
X68685714Y-130080763D01*
X68685714Y-130080763D02*
X68761904Y-130033144D01*
X68761904Y-130033144D02*
X68799999Y-129985524D01*
X68799999Y-129985524D02*
X68838095Y-129890286D01*
X68838095Y-129890286D02*
X68838095Y-129604572D01*
X68838095Y-129604572D02*
X68799999Y-129509334D01*
X68799999Y-129509334D02*
X68761904Y-129461715D01*
X68761904Y-129461715D02*
X68685714Y-129414096D01*
X68685714Y-129414096D02*
X68533333Y-129414096D01*
X68533333Y-129414096D02*
X68457142Y-129461715D01*
D11*
G36*
X63173829Y-125199526D02*
G01*
X63174721Y-125201241D01*
X63170028Y-125203327D01*
X63167010Y-125202916D01*
X63166227Y-125199526D01*
X63167063Y-125198844D01*
X63173829Y-125199526D01*
G37*
G36*
X58976786Y-123729770D02*
G01*
X59000840Y-123730370D01*
X59023424Y-123731743D01*
X59045910Y-123734184D01*
X59069671Y-123737986D01*
X59096078Y-123743441D01*
X59126504Y-123750842D01*
X59162321Y-123760484D01*
X59204901Y-123772658D01*
X59255618Y-123787659D01*
X59315842Y-123805779D01*
X59316573Y-123806000D01*
X59341193Y-123813680D01*
X59356958Y-123819525D01*
X59365944Y-123824731D01*
X59370231Y-123830491D01*
X59371895Y-123838001D01*
X59373785Y-123853852D01*
X59312030Y-123850208D01*
X59289114Y-123849038D01*
X59268755Y-123848722D01*
X59249876Y-123849667D01*
X59229973Y-123852197D01*
X59206544Y-123856634D01*
X59177086Y-123863301D01*
X59139097Y-123872521D01*
X59138987Y-123872548D01*
X59115321Y-123876385D01*
X59084515Y-123878542D01*
X59050724Y-123878726D01*
X59029951Y-123877797D01*
X58993734Y-123873283D01*
X58963055Y-123864142D01*
X58935128Y-123849049D01*
X58907168Y-123826678D01*
X58876390Y-123795701D01*
X58859512Y-123777195D01*
X58844822Y-123760470D01*
X58834876Y-123748424D01*
X58831218Y-123742862D01*
X58831894Y-123741378D01*
X58840998Y-123737461D01*
X58859668Y-123734191D01*
X58886547Y-123731706D01*
X58920277Y-123730148D01*
X58959501Y-123729656D01*
X58976786Y-123729770D01*
G37*
G36*
X59237377Y-123490660D02*
G01*
X59273990Y-123490930D01*
X59302712Y-123491760D01*
X59326248Y-123493390D01*
X59347306Y-123496058D01*
X59368591Y-123500001D01*
X59392812Y-123505458D01*
X59412232Y-123510250D01*
X59441944Y-123518218D01*
X59468661Y-123526076D01*
X59488311Y-123532663D01*
X59490619Y-123533534D01*
X59507718Y-123540502D01*
X59516823Y-123546463D01*
X59520445Y-123553925D01*
X59521095Y-123565392D01*
X59521095Y-123585762D01*
X59482610Y-123582056D01*
X59452662Y-123579290D01*
X59360240Y-123572546D01*
X59277197Y-123569617D01*
X59202430Y-123570659D01*
X59134836Y-123575825D01*
X59073310Y-123585273D01*
X59016751Y-123599158D01*
X58964054Y-123617634D01*
X58914116Y-123640859D01*
X58865834Y-123668986D01*
X58842819Y-123683319D01*
X58778321Y-123718658D01*
X58717605Y-123744312D01*
X58659746Y-123760695D01*
X58640212Y-123763549D01*
X58612233Y-123764655D01*
X58584593Y-123763067D01*
X58560923Y-123759034D01*
X58544857Y-123752806D01*
X58534821Y-123743574D01*
X58524913Y-123728995D01*
X58517988Y-123713270D01*
X58515461Y-123699720D01*
X58518751Y-123691665D01*
X58525019Y-123688438D01*
X58541739Y-123681039D01*
X58566442Y-123670741D01*
X58597560Y-123658150D01*
X58633523Y-123643873D01*
X58672763Y-123628515D01*
X58713712Y-123612681D01*
X58754800Y-123596978D01*
X58794459Y-123582009D01*
X58831120Y-123568383D01*
X58863215Y-123556703D01*
X58889176Y-123547575D01*
X58907432Y-123541606D01*
X58924459Y-123536522D01*
X58981449Y-123520555D01*
X59031729Y-123508547D01*
X59078244Y-123500025D01*
X59123935Y-123494518D01*
X59171746Y-123491551D01*
X59224619Y-123490653D01*
X59237377Y-123490660D01*
G37*
G36*
X64233315Y-119101228D02*
G01*
X64288078Y-119103812D01*
X64342553Y-119108605D01*
X64398325Y-119115806D01*
X64456981Y-119125616D01*
X64520109Y-119138234D01*
X64589294Y-119153860D01*
X64666123Y-119172693D01*
X64752183Y-119194934D01*
X64756979Y-119196198D01*
X64804015Y-119208786D01*
X64841428Y-119219321D01*
X64870566Y-119228340D01*
X64892776Y-119236379D01*
X64909406Y-119243976D01*
X64921804Y-119251667D01*
X64931318Y-119259990D01*
X64939296Y-119269481D01*
X64943454Y-119275322D01*
X64951304Y-119288877D01*
X64957706Y-119304951D01*
X64963306Y-119325752D01*
X64968749Y-119353485D01*
X64974682Y-119390357D01*
X64976089Y-119399432D01*
X64985197Y-119448435D01*
X64996551Y-119492002D01*
X65011610Y-119535038D01*
X65031833Y-119582450D01*
X65047689Y-119619111D01*
X65063023Y-119661335D01*
X65072994Y-119700143D01*
X65078394Y-119738798D01*
X65080017Y-119780564D01*
X65080011Y-119784085D01*
X65079618Y-119804241D01*
X65078386Y-119823499D01*
X65075991Y-119843850D01*
X65072110Y-119867289D01*
X65066419Y-119895808D01*
X65058596Y-119931399D01*
X65048317Y-119976057D01*
X65042684Y-120000012D01*
X65033314Y-120038931D01*
X65024433Y-120074747D01*
X65016550Y-120105455D01*
X65010174Y-120129050D01*
X65005813Y-120143530D01*
X64996918Y-120166969D01*
X64977647Y-120206893D01*
X64955818Y-120240829D01*
X64933033Y-120266078D01*
X64909939Y-120282870D01*
X64871732Y-120301297D01*
X64828333Y-120314200D01*
X64782516Y-120321206D01*
X64737056Y-120321939D01*
X64694728Y-120316027D01*
X64658306Y-120303095D01*
X64634473Y-120289837D01*
X64607899Y-120271313D01*
X64589683Y-120253466D01*
X64581155Y-120237427D01*
X64580451Y-120233352D01*
X64581225Y-120211540D01*
X64588528Y-120183092D01*
X64602590Y-120147280D01*
X64623642Y-120103372D01*
X64641995Y-120065465D01*
X64655370Y-120032052D01*
X64663820Y-120001526D01*
X64668233Y-119970646D01*
X64669498Y-119936170D01*
X64667733Y-119904922D01*
X64660798Y-119861301D01*
X64649442Y-119816141D01*
X64634566Y-119772030D01*
X64617066Y-119731555D01*
X64597842Y-119697306D01*
X64577791Y-119671871D01*
X64569677Y-119664195D01*
X64550159Y-119649413D01*
X64528479Y-119638616D01*
X64503393Y-119631725D01*
X64473656Y-119628661D01*
X64438024Y-119629343D01*
X64395251Y-119633692D01*
X64344092Y-119641629D01*
X64283304Y-119653075D01*
X64151239Y-119678172D01*
X63985349Y-119705915D01*
X63827075Y-119727971D01*
X63677458Y-119744183D01*
X63649678Y-119746837D01*
X63602233Y-119752217D01*
X63563930Y-119758116D01*
X63533266Y-119764991D01*
X63508736Y-119773301D01*
X63488839Y-119783503D01*
X63472070Y-119796057D01*
X63456925Y-119811421D01*
X63456917Y-119811431D01*
X63446063Y-119825072D01*
X63430258Y-119846606D01*
X63410669Y-119874302D01*
X63388462Y-119906430D01*
X63364802Y-119941262D01*
X63340856Y-119977067D01*
X63317788Y-120012116D01*
X63296764Y-120044679D01*
X63278951Y-120073026D01*
X63265514Y-120095428D01*
X63264530Y-120097146D01*
X63251184Y-120121752D01*
X63234774Y-120153836D01*
X63216654Y-120190653D01*
X63198174Y-120229460D01*
X63180689Y-120267515D01*
X63143906Y-120347819D01*
X63097394Y-120444649D01*
X63052588Y-120532094D01*
X63008905Y-120611112D01*
X62965761Y-120682662D01*
X62922571Y-120747701D01*
X62878751Y-120807189D01*
X62833716Y-120862083D01*
X62786883Y-120913341D01*
X62758333Y-120941615D01*
X62705363Y-120987058D01*
X62647038Y-121028185D01*
X62580336Y-121067250D01*
X62552665Y-121082820D01*
X62524408Y-121101193D01*
X62503559Y-121118751D01*
X62488210Y-121137165D01*
X62476453Y-121158101D01*
X62469998Y-121173343D01*
X62463788Y-121195985D01*
X62462961Y-121218452D01*
X62467823Y-121243112D01*
X62478678Y-121272331D01*
X62495831Y-121308480D01*
X62528614Y-121373393D01*
X62528567Y-121513781D01*
X62528519Y-121654169D01*
X62501896Y-121759646D01*
X62492500Y-121797553D01*
X62475275Y-121871916D01*
X62460881Y-121942302D01*
X62449032Y-122010905D01*
X62439442Y-122079917D01*
X62431826Y-122151531D01*
X62425897Y-122227940D01*
X62421371Y-122311335D01*
X62417962Y-122403911D01*
X62417057Y-122437243D01*
X62415862Y-122503871D01*
X62415550Y-122566461D01*
X62416088Y-122623964D01*
X62417444Y-122675329D01*
X62419584Y-122719509D01*
X62422476Y-122755452D01*
X62426086Y-122782111D01*
X62430381Y-122798434D01*
X62431443Y-122800550D01*
X62440229Y-122813382D01*
X62455822Y-122833001D01*
X62477265Y-122858356D01*
X62503606Y-122888393D01*
X62533890Y-122922062D01*
X62567165Y-122958309D01*
X62602475Y-122996082D01*
X62638866Y-123034330D01*
X62675386Y-123072001D01*
X62711080Y-123108041D01*
X62726872Y-123123642D01*
X62812120Y-123202470D01*
X62896225Y-123270912D01*
X62980073Y-123329651D01*
X63064551Y-123379365D01*
X63102967Y-123400571D01*
X63140995Y-123423975D01*
X63173097Y-123447485D01*
X63201472Y-123473121D01*
X63228320Y-123502906D01*
X63255842Y-123538860D01*
X63286238Y-123583004D01*
X63317698Y-123629267D01*
X63350782Y-123675536D01*
X63384590Y-123720083D01*
X63420025Y-123763897D01*
X63457993Y-123807967D01*
X63499398Y-123853280D01*
X63545144Y-123900826D01*
X63596135Y-123951592D01*
X63653277Y-124006567D01*
X63717473Y-124066739D01*
X63789628Y-124133096D01*
X63814856Y-124156353D01*
X63845967Y-124186163D01*
X63869756Y-124210995D01*
X63887147Y-124232167D01*
X63899065Y-124251000D01*
X63906433Y-124268811D01*
X63910176Y-124286922D01*
X63911218Y-124306650D01*
X63910656Y-124321452D01*
X63904730Y-124350450D01*
X63891092Y-124376231D01*
X63868198Y-124402229D01*
X63844092Y-124421882D01*
X63804538Y-124445166D01*
X63756085Y-124466198D01*
X63700096Y-124484405D01*
X63637930Y-124499214D01*
X63625956Y-124501276D01*
X63588913Y-124505089D01*
X63545544Y-124506779D01*
X63499360Y-124506348D01*
X63453871Y-124503796D01*
X63412586Y-124499126D01*
X63391496Y-124495767D01*
X63356020Y-124489690D01*
X63314047Y-124482163D01*
X63268110Y-124473669D01*
X63220743Y-124464689D01*
X63174480Y-124455705D01*
X63131856Y-124447199D01*
X63095403Y-124439653D01*
X63067656Y-124433548D01*
X63021554Y-124420711D01*
X62967775Y-124398490D01*
X62921719Y-124369701D01*
X62882823Y-124333681D01*
X62850524Y-124289767D01*
X62824259Y-124237298D01*
X62803465Y-124175611D01*
X62787579Y-124104043D01*
X62780578Y-124068546D01*
X62772872Y-124039645D01*
X62764351Y-124018983D01*
X62754325Y-124004920D01*
X62742107Y-123995820D01*
X62736619Y-123993373D01*
X62724448Y-123990759D01*
X62708891Y-123991109D01*
X62688524Y-123994713D01*
X62661919Y-124001862D01*
X62627653Y-124012846D01*
X62584299Y-124027955D01*
X62525931Y-124048214D01*
X62464535Y-124067720D01*
X62408662Y-124082958D01*
X62355790Y-124094383D01*
X62303394Y-124102451D01*
X62248948Y-124107617D01*
X62189928Y-124110337D01*
X62123811Y-124111067D01*
X62095003Y-124110773D01*
X62004915Y-124106708D01*
X61912057Y-124097713D01*
X61815467Y-124083592D01*
X61714185Y-124064146D01*
X61607251Y-124039175D01*
X61493705Y-124008483D01*
X61372587Y-123971871D01*
X61242935Y-123929140D01*
X61159290Y-123900591D01*
X61076821Y-123872516D01*
X61003193Y-123847550D01*
X60937395Y-123825367D01*
X60878415Y-123805638D01*
X60825241Y-123788035D01*
X60776862Y-123772232D01*
X60732266Y-123757901D01*
X60690441Y-123744713D01*
X60650377Y-123732342D01*
X60611062Y-123720459D01*
X60571483Y-123708738D01*
X60530631Y-123696850D01*
X60487492Y-123684468D01*
X60431246Y-123668471D01*
X60351432Y-123645949D01*
X60267699Y-123622504D01*
X60180978Y-123598388D01*
X60092200Y-123573850D01*
X60002295Y-123549143D01*
X59912195Y-123524516D01*
X59822831Y-123500220D01*
X59735133Y-123476507D01*
X59650032Y-123453627D01*
X59568460Y-123431831D01*
X59491348Y-123411370D01*
X59419626Y-123392495D01*
X59354225Y-123375456D01*
X59296076Y-123360505D01*
X59246111Y-123347891D01*
X59205260Y-123337867D01*
X59174453Y-123330683D01*
X59080265Y-123310966D01*
X58934730Y-123285648D01*
X58786953Y-123266289D01*
X58634948Y-123252687D01*
X58476734Y-123244638D01*
X58310327Y-123241937D01*
X58252211Y-123241600D01*
X58158216Y-123239584D01*
X58066999Y-123235582D01*
X57976606Y-123229403D01*
X57885081Y-123220855D01*
X57790469Y-123209744D01*
X57690817Y-123195880D01*
X57584168Y-123179069D01*
X57468569Y-123159119D01*
X57458592Y-123157332D01*
X57425671Y-123151396D01*
X57393236Y-123145468D01*
X57360512Y-123139395D01*
X57326721Y-123133021D01*
X57291088Y-123126190D01*
X57252835Y-123118747D01*
X57211185Y-123110536D01*
X57165362Y-123101403D01*
X57114589Y-123091192D01*
X57058089Y-123079748D01*
X56995085Y-123066915D01*
X56924801Y-123052538D01*
X56846460Y-123036462D01*
X56759285Y-123018531D01*
X56662499Y-122998590D01*
X56555326Y-122976483D01*
X56554979Y-122976411D01*
X56546729Y-122973704D01*
X56541740Y-122968047D01*
X56538659Y-122956630D01*
X56536133Y-122936647D01*
X56535182Y-122926875D01*
X56534675Y-122907785D01*
X56537808Y-122893258D01*
X56546027Y-122881695D01*
X56560781Y-122871500D01*
X56583516Y-122861072D01*
X56615680Y-122848816D01*
X56626700Y-122844823D01*
X56657932Y-122834416D01*
X56684829Y-122827451D01*
X56712000Y-122822881D01*
X56744056Y-122819659D01*
X56777839Y-122816567D01*
X56814188Y-122812164D01*
X56849607Y-122806458D01*
X56884929Y-122799118D01*
X56920989Y-122789808D01*
X56958621Y-122778195D01*
X56998658Y-122763946D01*
X57041934Y-122746727D01*
X57089284Y-122726205D01*
X57141542Y-122702045D01*
X57199541Y-122673915D01*
X57264115Y-122641481D01*
X57336098Y-122604408D01*
X57416325Y-122562364D01*
X57505629Y-122515015D01*
X57521144Y-122506765D01*
X57606997Y-122461578D01*
X57684697Y-122421631D01*
X57755605Y-122386343D01*
X57821085Y-122355137D01*
X57882499Y-122327434D01*
X57941209Y-122302654D01*
X57998579Y-122280221D01*
X58055971Y-122259554D01*
X58114748Y-122240075D01*
X58176272Y-122221206D01*
X58241906Y-122202368D01*
X58334408Y-122173756D01*
X58459882Y-122125273D01*
X58579015Y-122067458D01*
X58691532Y-122000434D01*
X58711155Y-121987412D01*
X58757865Y-121955015D01*
X58802396Y-121921838D01*
X58845610Y-121887022D01*
X58888373Y-121849705D01*
X58931549Y-121809024D01*
X58976002Y-121764119D01*
X59022596Y-121714127D01*
X59072196Y-121658188D01*
X59125666Y-121595439D01*
X59183871Y-121525019D01*
X59247675Y-121446066D01*
X59308998Y-121369690D01*
X59424117Y-121227341D01*
X59534140Y-121092686D01*
X59638923Y-120965890D01*
X59738325Y-120847119D01*
X59832203Y-120736540D01*
X59920414Y-120634318D01*
X60002816Y-120540620D01*
X60079265Y-120455611D01*
X60149621Y-120379457D01*
X60213739Y-120312324D01*
X60271477Y-120254379D01*
X60291276Y-120235208D01*
X60403225Y-120133927D01*
X60516464Y-120043615D01*
X60631535Y-119963917D01*
X60748981Y-119894482D01*
X60869346Y-119834956D01*
X60993173Y-119784985D01*
X61031550Y-119772000D01*
X61078101Y-119757740D01*
X61127645Y-119743766D01*
X61176762Y-119731004D01*
X61222033Y-119720378D01*
X61260040Y-119712813D01*
X61310898Y-119703367D01*
X61377986Y-119689416D01*
X61452020Y-119672709D01*
X61530948Y-119653766D01*
X61612715Y-119633107D01*
X61695268Y-119611253D01*
X61776554Y-119588725D01*
X61854519Y-119566043D01*
X61927110Y-119543728D01*
X61957148Y-119534118D01*
X62036792Y-119507650D01*
X62107045Y-119482588D01*
X62169241Y-119458329D01*
X62224713Y-119434274D01*
X62274795Y-119409822D01*
X62320820Y-119384372D01*
X62364121Y-119357325D01*
X62406033Y-119328080D01*
X62444291Y-119300964D01*
X62512726Y-119257792D01*
X62580056Y-119222963D01*
X62648968Y-119195317D01*
X62722149Y-119173693D01*
X62802284Y-119156932D01*
X62818423Y-119154549D01*
X62840627Y-119152127D01*
X62868603Y-119149801D01*
X62902978Y-119147543D01*
X62944375Y-119145325D01*
X62993422Y-119143119D01*
X63050743Y-119140897D01*
X63116964Y-119138631D01*
X63192710Y-119136293D01*
X63278607Y-119133854D01*
X63375281Y-119131288D01*
X63454537Y-119129165D01*
X63561779Y-119125992D01*
X63661841Y-119122630D01*
X63757221Y-119118981D01*
X63850423Y-119114947D01*
X63943946Y-119110430D01*
X64040292Y-119105333D01*
X64051425Y-119104735D01*
X64116575Y-119101889D01*
X64176676Y-119100654D01*
X64233315Y-119101228D01*
G37*
G36*
X60825481Y-123920451D02*
G01*
X60837567Y-123923626D01*
X60866558Y-123931467D01*
X60903956Y-123941776D01*
X60948139Y-123954098D01*
X60997484Y-123967979D01*
X61050368Y-123982962D01*
X61105169Y-123998592D01*
X61160264Y-124014414D01*
X61225908Y-124033240D01*
X61331513Y-124063045D01*
X61427669Y-124089465D01*
X61515232Y-124112676D01*
X61595059Y-124132850D01*
X61668006Y-124150162D01*
X61734931Y-124164786D01*
X61796689Y-124176895D01*
X61854137Y-124186663D01*
X61908132Y-124194264D01*
X61959530Y-124199871D01*
X62009187Y-124203659D01*
X62057960Y-124205802D01*
X62106706Y-124206472D01*
X62126926Y-124206368D01*
X62207373Y-124203492D01*
X62280797Y-124196194D01*
X62350269Y-124183828D01*
X62418860Y-124165748D01*
X62489638Y-124141308D01*
X62565674Y-124109862D01*
X62594700Y-124097357D01*
X62619056Y-124087856D01*
X62638187Y-124081962D01*
X62654687Y-124078890D01*
X62671151Y-124077851D01*
X62676812Y-124077756D01*
X62691342Y-124077805D01*
X62703366Y-124079169D01*
X62713560Y-124082902D01*
X62722603Y-124090062D01*
X62731172Y-124101706D01*
X62739945Y-124118890D01*
X62749598Y-124142670D01*
X62760810Y-124174103D01*
X62774257Y-124214246D01*
X62790619Y-124264155D01*
X62796411Y-124281911D01*
X62809297Y-124321811D01*
X62820658Y-124357552D01*
X62830083Y-124387800D01*
X62837159Y-124411223D01*
X62841474Y-124426487D01*
X62842616Y-124432259D01*
X62840774Y-124432155D01*
X62829705Y-124430220D01*
X62810120Y-124426336D01*
X62783709Y-124420874D01*
X62752163Y-124414200D01*
X62717171Y-124406683D01*
X62680423Y-124398693D01*
X62643611Y-124390596D01*
X62608423Y-124382763D01*
X62576551Y-124375561D01*
X62549684Y-124369358D01*
X62529513Y-124364524D01*
X62517727Y-124361427D01*
X62515286Y-124360787D01*
X62511416Y-124361133D01*
X62509243Y-124365369D01*
X62508542Y-124375366D01*
X62509086Y-124392996D01*
X62510649Y-124420129D01*
X62511042Y-124426205D01*
X62523014Y-124524811D01*
X62545141Y-124618302D01*
X62577291Y-124706484D01*
X62619333Y-124789158D01*
X62671136Y-124866128D01*
X62732568Y-124937198D01*
X62803498Y-125002171D01*
X62883796Y-125060850D01*
X62973328Y-125113038D01*
X63000882Y-125126925D01*
X63036636Y-125144068D01*
X63071778Y-125160126D01*
X63101611Y-125172907D01*
X63104328Y-125174013D01*
X63127944Y-125183927D01*
X63142482Y-125190877D01*
X63147592Y-125194992D01*
X63142919Y-125196403D01*
X63128114Y-125195236D01*
X63102822Y-125191623D01*
X63066691Y-125185690D01*
X62974595Y-125168014D01*
X62842670Y-125134631D01*
X62718576Y-125093037D01*
X62602213Y-125043183D01*
X62493481Y-124985019D01*
X62392279Y-124918494D01*
X62298506Y-124843559D01*
X62212063Y-124760164D01*
X62159419Y-124704450D01*
X62163193Y-124748199D01*
X62163533Y-124751971D01*
X62170435Y-124800592D01*
X62181284Y-124844790D01*
X62195267Y-124881195D01*
X62200628Y-124890497D01*
X62213340Y-124909454D01*
X62231382Y-124934557D01*
X62253623Y-124964318D01*
X62278930Y-124997251D01*
X62306172Y-125031868D01*
X62334217Y-125066682D01*
X62361935Y-125100206D01*
X62425746Y-125172311D01*
X62497512Y-125244778D01*
X62577077Y-125316810D01*
X62602904Y-125338906D01*
X62666818Y-125391743D01*
X62725566Y-125437168D01*
X62780726Y-125476135D01*
X62833875Y-125509599D01*
X62886592Y-125538513D01*
X62940455Y-125563832D01*
X62997041Y-125586508D01*
X63057929Y-125607497D01*
X63070858Y-125611685D01*
X63166215Y-125644495D01*
X63253034Y-125678271D01*
X63333848Y-125714299D01*
X63411188Y-125753861D01*
X63487587Y-125798243D01*
X63565576Y-125848728D01*
X63647687Y-125906601D01*
X63690009Y-125937930D01*
X63738355Y-125974604D01*
X63790402Y-126014844D01*
X63845304Y-126057947D01*
X63902214Y-126103209D01*
X63960283Y-126149926D01*
X64018664Y-126197396D01*
X64076509Y-126244914D01*
X64132972Y-126291777D01*
X64187203Y-126337281D01*
X64238357Y-126380723D01*
X64285585Y-126421399D01*
X64328039Y-126458605D01*
X64364873Y-126491638D01*
X64395238Y-126519795D01*
X64418287Y-126542371D01*
X64433172Y-126558663D01*
X64465213Y-126604548D01*
X64495048Y-126662068D01*
X64519096Y-126725329D01*
X64536563Y-126791819D01*
X64546656Y-126859027D01*
X64548583Y-126924441D01*
X64546931Y-126967929D01*
X64525803Y-126933390D01*
X64523563Y-126929655D01*
X64510513Y-126905935D01*
X64496495Y-126877943D01*
X64484180Y-126850968D01*
X64474426Y-126829068D01*
X64442058Y-126766864D01*
X64403858Y-126708035D01*
X64358938Y-126651627D01*
X64306412Y-126596683D01*
X64245392Y-126542247D01*
X64174990Y-126487364D01*
X64094319Y-126431079D01*
X64079534Y-126421295D01*
X64039897Y-126395857D01*
X64007428Y-126376542D01*
X63980753Y-126362681D01*
X63958498Y-126353606D01*
X63939287Y-126348649D01*
X63921746Y-126347140D01*
X63910299Y-126347864D01*
X63888645Y-126354261D01*
X63869111Y-126367939D01*
X63851092Y-126389716D01*
X63833987Y-126420410D01*
X63817190Y-126460836D01*
X63800098Y-126511812D01*
X63793689Y-126531904D01*
X63783208Y-126563481D01*
X63770283Y-126601511D01*
X63755703Y-126643694D01*
X63740258Y-126687730D01*
X63724736Y-126731318D01*
X63708029Y-126778020D01*
X63680535Y-126855630D01*
X63654204Y-126930890D01*
X63629387Y-127002756D01*
X63606434Y-127070186D01*
X63585696Y-127132137D01*
X63567525Y-127187568D01*
X63552270Y-127235437D01*
X63540282Y-127274700D01*
X63531913Y-127304315D01*
X63525919Y-127328842D01*
X63517838Y-127365936D01*
X63509484Y-127407911D01*
X63501552Y-127451257D01*
X63494736Y-127492463D01*
X63476280Y-127603856D01*
X63450033Y-127739062D01*
X63420761Y-127865216D01*
X63388068Y-127983509D01*
X63351556Y-128095133D01*
X63310828Y-128201279D01*
X63265488Y-128303140D01*
X63215137Y-128401907D01*
X63159380Y-128498771D01*
X63151692Y-128511488D01*
X63110145Y-128583785D01*
X63075486Y-128651149D01*
X63046508Y-128716059D01*
X63022005Y-128780993D01*
X63008970Y-128820969D01*
X62991665Y-128879962D01*
X62975224Y-128942187D01*
X62960839Y-129003066D01*
X62949707Y-129058023D01*
X62949005Y-129062055D01*
X62943932Y-129103105D01*
X62940928Y-129151128D01*
X62939994Y-129202487D01*
X62941130Y-129253545D01*
X62944339Y-129300664D01*
X62949621Y-129340208D01*
X62965313Y-129411902D01*
X62996895Y-129515571D01*
X63038183Y-129617071D01*
X63088273Y-129713963D01*
X63102941Y-129739534D01*
X63120964Y-129771347D01*
X63137828Y-129801491D01*
X63151236Y-129825879D01*
X63176762Y-129873009D01*
X63163418Y-129883824D01*
X63160240Y-129886294D01*
X63150005Y-129891200D01*
X63141521Y-129888016D01*
X63125546Y-129875251D01*
X63099509Y-129853545D01*
X63069304Y-129827664D01*
X63037090Y-129799515D01*
X63005027Y-129771005D01*
X62975273Y-129744041D01*
X62949988Y-129720530D01*
X62931331Y-129702379D01*
X62877782Y-129644073D01*
X62821762Y-129572868D01*
X62770127Y-129495230D01*
X62722338Y-129410190D01*
X62677856Y-129316780D01*
X62636141Y-129214031D01*
X62596656Y-129100973D01*
X62590990Y-129083460D01*
X62571704Y-129021880D01*
X62556319Y-128968656D01*
X62544512Y-128922040D01*
X62535963Y-128880281D01*
X62530349Y-128841630D01*
X62527350Y-128804337D01*
X62526643Y-128766654D01*
X62527908Y-128726829D01*
X62529615Y-128699511D01*
X62533783Y-128656653D01*
X62540040Y-128615114D01*
X62548868Y-128572965D01*
X62560747Y-128528276D01*
X62576160Y-128479116D01*
X62595587Y-128423557D01*
X62619511Y-128359669D01*
X62643486Y-128294897D01*
X62670421Y-128214897D01*
X62691665Y-128142183D01*
X62707072Y-128077312D01*
X62716497Y-128020845D01*
X62719795Y-127973341D01*
X62719675Y-127966035D01*
X62718246Y-127941608D01*
X62715454Y-127910486D01*
X62711611Y-127875910D01*
X62707031Y-127841121D01*
X62694086Y-127750766D01*
X62669533Y-127736376D01*
X62660658Y-127731389D01*
X62648609Y-127725498D01*
X62643072Y-127724105D01*
X62640451Y-127728579D01*
X62634039Y-127740767D01*
X62625524Y-127757581D01*
X62625240Y-127758146D01*
X62615561Y-127775380D01*
X62601138Y-127798701D01*
X62583872Y-127825123D01*
X62565664Y-127851655D01*
X62519598Y-127920173D01*
X62456649Y-128027408D01*
X62404543Y-128135487D01*
X62362951Y-128245325D01*
X62331542Y-128357837D01*
X62309988Y-128473939D01*
X62297959Y-128594545D01*
X62296917Y-128613049D01*
X62295296Y-128651430D01*
X62294681Y-128688126D01*
X62295208Y-128724420D01*
X62297010Y-128761597D01*
X62300222Y-128800941D01*
X62304980Y-128843736D01*
X62311417Y-128891268D01*
X62319669Y-128944819D01*
X62329870Y-129005675D01*
X62342154Y-129075120D01*
X62356656Y-129154439D01*
X62367725Y-129215384D01*
X62388442Y-129337142D01*
X62405718Y-129451183D01*
X62419759Y-129559581D01*
X62430769Y-129664408D01*
X62438949Y-129767737D01*
X62444506Y-129871644D01*
X62447641Y-129978199D01*
X62448560Y-130089478D01*
X62448501Y-130119594D01*
X62448122Y-130181913D01*
X62447279Y-130237136D01*
X62445822Y-130287302D01*
X62443600Y-130334452D01*
X62440462Y-130380623D01*
X62436258Y-130427855D01*
X62430836Y-130478187D01*
X62424045Y-130533659D01*
X62415736Y-130596309D01*
X62405756Y-130668176D01*
X62404747Y-130675343D01*
X62399024Y-130716086D01*
X62393888Y-130752783D01*
X62389542Y-130783984D01*
X62386186Y-130808241D01*
X62384022Y-130824104D01*
X62383252Y-130830126D01*
X62382580Y-130830932D01*
X62377447Y-130827567D01*
X62369676Y-130819666D01*
X62362190Y-130810373D01*
X62357907Y-130802834D01*
X62357334Y-130800319D01*
X62354993Y-130787458D01*
X62351318Y-130765637D01*
X62346555Y-130736427D01*
X62340948Y-130701399D01*
X62334742Y-130662123D01*
X62328183Y-130620170D01*
X62321515Y-130577111D01*
X62314983Y-130534517D01*
X62308832Y-130493959D01*
X62303307Y-130457008D01*
X62298654Y-130425233D01*
X62295117Y-130400207D01*
X62294130Y-130392849D01*
X62290191Y-130361215D01*
X62285842Y-130323504D01*
X62281547Y-130283820D01*
X62277766Y-130246268D01*
X62277686Y-130245435D01*
X62271786Y-130190131D01*
X62264884Y-130138254D01*
X62256579Y-130088265D01*
X62246471Y-130038623D01*
X62234157Y-129987790D01*
X62219237Y-129934226D01*
X62201309Y-129876391D01*
X62179972Y-129812746D01*
X62154826Y-129741752D01*
X62125468Y-129661868D01*
X62099647Y-129591890D01*
X62075984Y-129526153D01*
X62055476Y-129467155D01*
X62037462Y-129412960D01*
X62021284Y-129361631D01*
X62006284Y-129311229D01*
X62005467Y-129308422D01*
X61997948Y-129283438D01*
X61987460Y-129249627D01*
X61974560Y-129208730D01*
X61959802Y-129162485D01*
X61943740Y-129112631D01*
X61926928Y-129060907D01*
X61909921Y-129009051D01*
X61903619Y-128989915D01*
X61876474Y-128907043D01*
X61852742Y-128833387D01*
X61832185Y-128767655D01*
X61814560Y-128708557D01*
X61799626Y-128654802D01*
X61787143Y-128605099D01*
X61776870Y-128558158D01*
X61768566Y-128512688D01*
X61761990Y-128467398D01*
X61756901Y-128420997D01*
X61753059Y-128372195D01*
X61750222Y-128319700D01*
X61748149Y-128262223D01*
X61746599Y-128198472D01*
X61745333Y-128127156D01*
X61745003Y-128106599D01*
X61744124Y-128054228D01*
X61743302Y-128011727D01*
X61742462Y-127977960D01*
X61741531Y-127951789D01*
X61740433Y-127932076D01*
X61739094Y-127917682D01*
X61737440Y-127907470D01*
X61735396Y-127900302D01*
X61732887Y-127895040D01*
X61729840Y-127890546D01*
X61728416Y-127888718D01*
X61717363Y-127879181D01*
X61702238Y-127873947D01*
X61681377Y-127872904D01*
X61653115Y-127875941D01*
X61615788Y-127882948D01*
X61604066Y-127885228D01*
X61566168Y-127890860D01*
X61523136Y-127895254D01*
X61479546Y-127897909D01*
X61471200Y-127898257D01*
X61441817Y-127899964D01*
X61416378Y-127902154D01*
X61397369Y-127904581D01*
X61387273Y-127907001D01*
X61382931Y-127909378D01*
X61375364Y-127915810D01*
X61369627Y-127925370D01*
X61365491Y-127939436D01*
X61362725Y-127959385D01*
X61361100Y-127986596D01*
X61360386Y-128022445D01*
X61360352Y-128068311D01*
X61360872Y-128109713D01*
X61364421Y-128194650D01*
X61371641Y-128275982D01*
X61382968Y-128357117D01*
X61398839Y-128441467D01*
X61419689Y-128532442D01*
X61424127Y-128550567D01*
X61435692Y-128599192D01*
X61444656Y-128639931D01*
X61451391Y-128675106D01*
X61456268Y-128707041D01*
X61459658Y-128738061D01*
X61461931Y-128770490D01*
X61463459Y-128806650D01*
X61464010Y-128826111D01*
X61464277Y-128866503D01*
X61462902Y-128903403D01*
X61459633Y-128941690D01*
X61454219Y-128986245D01*
X61450390Y-129016276D01*
X61441884Y-129100340D01*
X61437930Y-129176926D01*
X61438601Y-129248297D01*
X61443969Y-129316719D01*
X61454106Y-129384453D01*
X61469084Y-129453765D01*
X61469531Y-129455590D01*
X61477689Y-129490801D01*
X61485544Y-129527911D01*
X61492223Y-129562613D01*
X61496852Y-129590600D01*
X61498572Y-129603563D01*
X61504141Y-129674593D01*
X61504507Y-129750994D01*
X61499875Y-129828881D01*
X61490454Y-129904371D01*
X61476449Y-129973580D01*
X61471127Y-129993247D01*
X61463108Y-130020063D01*
X61453774Y-130049311D01*
X61443891Y-130078767D01*
X61434226Y-130106204D01*
X61425547Y-130129399D01*
X61418620Y-130146124D01*
X61414213Y-130154156D01*
X61412043Y-130153527D01*
X61405159Y-130145037D01*
X61394797Y-130128640D01*
X61381762Y-130105846D01*
X61366859Y-130078162D01*
X61350892Y-130047097D01*
X61334665Y-130014160D01*
X61318984Y-129980860D01*
X61304653Y-129948706D01*
X61300609Y-129939317D01*
X61285081Y-129902919D01*
X61273375Y-129874015D01*
X61264921Y-129850173D01*
X61259150Y-129828959D01*
X61255493Y-129807940D01*
X61253380Y-129784685D01*
X61252240Y-129756761D01*
X61251505Y-129721734D01*
X61251021Y-129701613D01*
X61249654Y-129665894D01*
X61247789Y-129632523D01*
X61245605Y-129604519D01*
X61243286Y-129584899D01*
X61229810Y-129518760D01*
X61209300Y-129449184D01*
X61181655Y-129378083D01*
X61146192Y-129303712D01*
X61102229Y-129224327D01*
X61069221Y-129163406D01*
X61030974Y-129079462D01*
X60998009Y-128991264D01*
X60971881Y-128902647D01*
X60965449Y-128876709D01*
X60956269Y-128836841D01*
X60948445Y-128798198D01*
X60941838Y-128759378D01*
X60936305Y-128718976D01*
X60931705Y-128675589D01*
X60927897Y-128627816D01*
X60924740Y-128574252D01*
X60922092Y-128513494D01*
X60919814Y-128444140D01*
X60917762Y-128364786D01*
X60917484Y-128352893D01*
X60915227Y-128256288D01*
X60913217Y-128170351D01*
X60911427Y-128094424D01*
X60909830Y-128027851D01*
X60908401Y-127969976D01*
X60907112Y-127920141D01*
X60905936Y-127877691D01*
X60904847Y-127841970D01*
X60903819Y-127812319D01*
X60902824Y-127788084D01*
X60901836Y-127768607D01*
X60900829Y-127753232D01*
X60899775Y-127741302D01*
X60898648Y-127732161D01*
X60897421Y-127725152D01*
X60896069Y-127719620D01*
X60894563Y-127714906D01*
X60892877Y-127710355D01*
X60890986Y-127705311D01*
X60888279Y-127698086D01*
X60883154Y-127685865D01*
X60876951Y-127673451D01*
X60868906Y-127659763D01*
X60858256Y-127643717D01*
X60844237Y-127624232D01*
X60826084Y-127600225D01*
X60803034Y-127570614D01*
X60774322Y-127534316D01*
X60739186Y-127490250D01*
X60708054Y-127451588D01*
X60667961Y-127402884D01*
X60633695Y-127362680D01*
X60605403Y-127331140D01*
X60583234Y-127308429D01*
X60567338Y-127294711D01*
X60557863Y-127290149D01*
X60554926Y-127290206D01*
X60550250Y-127290752D01*
X60546650Y-127292556D01*
X60544282Y-127296434D01*
X60543302Y-127303196D01*
X60543865Y-127313658D01*
X60546127Y-127328630D01*
X60550245Y-127348927D01*
X60556374Y-127375362D01*
X60564670Y-127408747D01*
X60575289Y-127449896D01*
X60588387Y-127499622D01*
X60604120Y-127558737D01*
X60622643Y-127628054D01*
X60710374Y-127956177D01*
X60687306Y-127944434D01*
X60648612Y-127921921D01*
X60602882Y-127889567D01*
X60556403Y-127851472D01*
X60511694Y-127809852D01*
X60471271Y-127766920D01*
X60437654Y-127724891D01*
X60429578Y-127713525D01*
X60405378Y-127677448D01*
X60383069Y-127640583D01*
X60362185Y-127601775D01*
X60342259Y-127559872D01*
X60322825Y-127513721D01*
X60303415Y-127462169D01*
X60283563Y-127404062D01*
X60262803Y-127338247D01*
X60240667Y-127263572D01*
X60216690Y-127178883D01*
X60212000Y-127162011D01*
X60198726Y-127114202D01*
X60188127Y-127076064D01*
X60179875Y-127046600D01*
X60173641Y-127024817D01*
X60169098Y-127009719D01*
X60165918Y-127000311D01*
X60163773Y-126995598D01*
X60162335Y-126994586D01*
X60161276Y-126996278D01*
X60160267Y-126999681D01*
X60158982Y-127003799D01*
X60158289Y-127006085D01*
X60155369Y-127020272D01*
X60151391Y-127044346D01*
X60146489Y-127077212D01*
X60140799Y-127117774D01*
X60134456Y-127164936D01*
X60127593Y-127217603D01*
X60120347Y-127274680D01*
X60112853Y-127335071D01*
X60105244Y-127397680D01*
X60097657Y-127461413D01*
X60090227Y-127525173D01*
X60083087Y-127587865D01*
X60076374Y-127648393D01*
X60070222Y-127705663D01*
X60064766Y-127758578D01*
X60060141Y-127806043D01*
X60051345Y-127903985D01*
X60044320Y-127992642D01*
X60039174Y-128072434D01*
X60035945Y-128144565D01*
X60034667Y-128210236D01*
X60035375Y-128270648D01*
X60038105Y-128327003D01*
X60042894Y-128380504D01*
X60049775Y-128432351D01*
X60058786Y-128483748D01*
X60069961Y-128535895D01*
X60083336Y-128589994D01*
X60091401Y-128622055D01*
X60097463Y-128650274D01*
X60101100Y-128674679D01*
X60102848Y-128698965D01*
X60103246Y-128726829D01*
X60100950Y-128774179D01*
X60092310Y-128840246D01*
X60077750Y-128912422D01*
X60057798Y-128989045D01*
X60032983Y-129068453D01*
X60003831Y-129148983D01*
X59970871Y-129228974D01*
X59934630Y-129306762D01*
X59895636Y-129380687D01*
X59891072Y-129388761D01*
X59857496Y-129445776D01*
X59822519Y-129500707D01*
X59784745Y-129555517D01*
X59742778Y-129612167D01*
X59695220Y-129672620D01*
X59640674Y-129738838D01*
X59631720Y-129749534D01*
X59604340Y-129782407D01*
X59572841Y-129820413D01*
X59539440Y-129860869D01*
X59506356Y-129901089D01*
X59475806Y-129938389D01*
X59453559Y-129965611D01*
X59430099Y-129994278D01*
X59409788Y-130019057D01*
X59393639Y-130038714D01*
X59382669Y-130052009D01*
X59377891Y-130057706D01*
X59377002Y-130058327D01*
X59376665Y-130053346D01*
X59379668Y-130038720D01*
X59385754Y-130015315D01*
X59394667Y-129983992D01*
X59406150Y-129945615D01*
X59419946Y-129901048D01*
X59435800Y-129851154D01*
X59453454Y-129796796D01*
X59472652Y-129738838D01*
X59476680Y-129726775D01*
X59499901Y-129656407D01*
X59519704Y-129594657D01*
X59536590Y-129539746D01*
X59551061Y-129489895D01*
X59563618Y-129443327D01*
X59574762Y-129398262D01*
X59584995Y-129352922D01*
X59594819Y-129305527D01*
X59598341Y-129287487D01*
X59611870Y-129206360D01*
X59619738Y-129133908D01*
X59621942Y-129069116D01*
X59618482Y-129010973D01*
X59609358Y-128958465D01*
X59594569Y-128910577D01*
X59588598Y-128895022D01*
X59580568Y-128910231D01*
X59580135Y-128911109D01*
X59575652Y-128922053D01*
X59568138Y-128941997D01*
X59558144Y-128969416D01*
X59546220Y-129002785D01*
X59532918Y-129040580D01*
X59518788Y-129081274D01*
X59511803Y-129101489D01*
X59470960Y-129218068D01*
X59432247Y-129325462D01*
X59395012Y-129425253D01*
X59358598Y-129519023D01*
X59322352Y-129608357D01*
X59285619Y-129694836D01*
X59247744Y-129780044D01*
X59208072Y-129865563D01*
X59165950Y-129952976D01*
X59120723Y-130043866D01*
X59092677Y-130100027D01*
X59067614Y-130151423D01*
X59046546Y-130195984D01*
X59029840Y-130232919D01*
X59017864Y-130261433D01*
X59010985Y-130280733D01*
X59009617Y-130285558D01*
X59001510Y-130320136D01*
X58993902Y-130363435D01*
X58986754Y-130415839D01*
X58980029Y-130477730D01*
X58973687Y-130549490D01*
X58967691Y-130631503D01*
X58962003Y-130724151D01*
X58956585Y-130827817D01*
X58955604Y-130847536D01*
X58953620Y-130884486D01*
X58951670Y-130917355D01*
X58949872Y-130944317D01*
X58948344Y-130963542D01*
X58947203Y-130973204D01*
X58945153Y-130980988D01*
X58942028Y-130982766D01*
X58935695Y-130977586D01*
X58923987Y-130964652D01*
X58912751Y-130951561D01*
X58887230Y-130919628D01*
X58860374Y-130883618D01*
X58834421Y-130846673D01*
X58811609Y-130811932D01*
X58794176Y-130782536D01*
X58775478Y-130746447D01*
X58758987Y-130709714D01*
X58745538Y-130672805D01*
X58734689Y-130633849D01*
X58725997Y-130590977D01*
X58719019Y-130542318D01*
X58713314Y-130486004D01*
X58708439Y-130420162D01*
X58707369Y-130403840D01*
X58704813Y-130366423D01*
X58702361Y-130332568D01*
X58700162Y-130304230D01*
X58698366Y-130283364D01*
X58697122Y-130271925D01*
X58696076Y-130264137D01*
X58693425Y-130235883D01*
X58691159Y-130199535D01*
X58689336Y-130157516D01*
X58688019Y-130112250D01*
X58687267Y-130066161D01*
X58687142Y-130021673D01*
X58687703Y-129981209D01*
X58689012Y-129947194D01*
X58692684Y-129892936D01*
X58700019Y-129820146D01*
X58710298Y-129751662D01*
X58724182Y-129683923D01*
X58742334Y-129613368D01*
X58765417Y-129536436D01*
X58779688Y-129489792D01*
X58820783Y-129331595D01*
X58852368Y-129167685D01*
X58874527Y-128997648D01*
X58877866Y-128957579D01*
X58880599Y-128909766D01*
X58882596Y-128857320D01*
X58883862Y-128802021D01*
X58884404Y-128745649D01*
X58884228Y-128689982D01*
X58883340Y-128636801D01*
X58881746Y-128587884D01*
X58879452Y-128545012D01*
X58876464Y-128509963D01*
X58872788Y-128484517D01*
X58862505Y-128433204D01*
X58841352Y-128431446D01*
X58828885Y-128431082D01*
X58820951Y-128434190D01*
X58817454Y-128442849D01*
X58816669Y-128449390D01*
X58815109Y-128466537D01*
X58812936Y-128492830D01*
X58810241Y-128527076D01*
X58807117Y-128568080D01*
X58803656Y-128614649D01*
X58799950Y-128665587D01*
X58796092Y-128719702D01*
X58792583Y-128768608D01*
X58788850Y-128818881D01*
X58785332Y-128864488D01*
X58782123Y-128904312D01*
X58779315Y-128937233D01*
X58777000Y-128962133D01*
X58775272Y-128977893D01*
X58774223Y-128983395D01*
X58772426Y-128982013D01*
X58765350Y-128972651D01*
X58754267Y-128955856D01*
X58740161Y-128933289D01*
X58724019Y-128906608D01*
X58706826Y-128877474D01*
X58689568Y-128847545D01*
X58673230Y-128818482D01*
X58658797Y-128791944D01*
X58647255Y-128769590D01*
X58634022Y-128742314D01*
X58616337Y-128703774D01*
X58598895Y-128663034D01*
X58581135Y-128618633D01*
X58562496Y-128569110D01*
X58542416Y-128513004D01*
X58520333Y-128448854D01*
X58495686Y-128375199D01*
X58485578Y-128344936D01*
X58470135Y-128299695D01*
X58455237Y-128257163D01*
X58441474Y-128218969D01*
X58429436Y-128186742D01*
X58419714Y-128162111D01*
X58412898Y-128146706D01*
X58408065Y-128137217D01*
X58398632Y-128120161D01*
X58391253Y-128110556D01*
X58384022Y-128106320D01*
X58375030Y-128105370D01*
X58374913Y-128105370D01*
X58362960Y-128105792D01*
X58357991Y-128106795D01*
X58357259Y-128111447D01*
X58354873Y-128125702D01*
X58351129Y-128147758D01*
X58346337Y-128175795D01*
X58340805Y-128207996D01*
X58328884Y-128273280D01*
X58306865Y-128375787D01*
X58282206Y-128468922D01*
X58254464Y-128553857D01*
X58223196Y-128631765D01*
X58187958Y-128703820D01*
X58148306Y-128771195D01*
X58103798Y-128835063D01*
X58093572Y-128848563D01*
X58073962Y-128873785D01*
X58060084Y-128890391D01*
X58051423Y-128898921D01*
X58047462Y-128899917D01*
X58047683Y-128893923D01*
X58047787Y-128893450D01*
X58049723Y-128883630D01*
X58053291Y-128864717D01*
X58058138Y-128838613D01*
X58063910Y-128807220D01*
X58070254Y-128772441D01*
X58091511Y-128642153D01*
X58114755Y-128448660D01*
X58129181Y-128250243D01*
X58134820Y-128048227D01*
X58131699Y-127843941D01*
X58119849Y-127638712D01*
X58099297Y-127433867D01*
X58070073Y-127230733D01*
X58032206Y-127030638D01*
X58031247Y-127026099D01*
X58021860Y-126975898D01*
X58015749Y-126928920D01*
X58012934Y-126882813D01*
X58013431Y-126835224D01*
X58017258Y-126783802D01*
X58024433Y-126726195D01*
X58034973Y-126660050D01*
X58037233Y-126646955D01*
X58046560Y-126594021D01*
X58056969Y-126536425D01*
X58068221Y-126475387D01*
X58080077Y-126412131D01*
X58092295Y-126347876D01*
X58104637Y-126283846D01*
X58116863Y-126221262D01*
X58128732Y-126161345D01*
X58140005Y-126105318D01*
X58150442Y-126054402D01*
X58159803Y-126009819D01*
X58167848Y-125972790D01*
X58174338Y-125944538D01*
X58179032Y-125926284D01*
X58176840Y-125916771D01*
X58163908Y-125907334D01*
X58161492Y-125906108D01*
X58149948Y-125901012D01*
X58144449Y-125899910D01*
X58143028Y-125901796D01*
X58135706Y-125911627D01*
X58122900Y-125928867D01*
X58105421Y-125952420D01*
X58084085Y-125981190D01*
X58059704Y-126014080D01*
X58033091Y-126049994D01*
X57923267Y-126198232D01*
X57927153Y-126138367D01*
X57928626Y-126117993D01*
X57935684Y-126054505D01*
X57946679Y-125996662D01*
X57962557Y-125940957D01*
X57984269Y-125883884D01*
X58012763Y-125821936D01*
X58030118Y-125788049D01*
X58053698Y-125746052D01*
X58080767Y-125702092D01*
X58112372Y-125654550D01*
X58149557Y-125601807D01*
X58193368Y-125542246D01*
X58226344Y-125497013D01*
X58271333Y-125430287D01*
X58309377Y-125366401D01*
X58341798Y-125302901D01*
X58369913Y-125237331D01*
X58395044Y-125167238D01*
X58397540Y-125159586D01*
X58409278Y-125121287D01*
X58419606Y-125082936D01*
X58428752Y-125043115D01*
X58436947Y-125000405D01*
X58444421Y-124953390D01*
X58451402Y-124900651D01*
X58458120Y-124840770D01*
X58464806Y-124772330D01*
X58471688Y-124693913D01*
X58473479Y-124672903D01*
X58476602Y-124637649D01*
X58479441Y-124607273D01*
X58481836Y-124583397D01*
X58483630Y-124567642D01*
X58484662Y-124561630D01*
X58486369Y-124561121D01*
X58497497Y-124559418D01*
X58517483Y-124556973D01*
X58544641Y-124553952D01*
X58577289Y-124550524D01*
X58613742Y-124546856D01*
X58652317Y-124543116D01*
X58691330Y-124539472D01*
X58729097Y-124536092D01*
X58763934Y-124533143D01*
X58794159Y-124530793D01*
X58806319Y-124529942D01*
X58847415Y-124527943D01*
X58880963Y-124528381D01*
X58909912Y-124531739D01*
X58937211Y-124538497D01*
X58965808Y-124549134D01*
X58998651Y-124564133D01*
X59069703Y-124602202D01*
X59148015Y-124654324D01*
X59218277Y-124712960D01*
X59279670Y-124777414D01*
X59331373Y-124846986D01*
X59341975Y-124863321D01*
X59369227Y-124904856D01*
X59392411Y-124939148D01*
X59412966Y-124968025D01*
X59432326Y-124993313D01*
X59451930Y-125016836D01*
X59473213Y-125040423D01*
X59497612Y-125065897D01*
X59526564Y-125095086D01*
X59544591Y-125112704D01*
X59571886Y-125138391D01*
X59601882Y-125165745D01*
X59633199Y-125193588D01*
X59664456Y-125220737D01*
X59694275Y-125246011D01*
X59721275Y-125268231D01*
X59744076Y-125286214D01*
X59761299Y-125298781D01*
X59771564Y-125304750D01*
X59774157Y-125303161D01*
X59782154Y-125293525D01*
X59794189Y-125276539D01*
X59809281Y-125253732D01*
X59826446Y-125226636D01*
X59844704Y-125196780D01*
X59863071Y-125165694D01*
X59880566Y-125134910D01*
X59883669Y-125129342D01*
X59920376Y-125066751D01*
X59956245Y-125012348D01*
X59993241Y-124963524D01*
X60033328Y-124917672D01*
X60078473Y-124872182D01*
X60100835Y-124851215D01*
X60122511Y-124832002D01*
X60144540Y-124813924D01*
X60168797Y-124795564D01*
X60197158Y-124775504D01*
X60231496Y-124752328D01*
X60273687Y-124724618D01*
X60286912Y-124715869D01*
X60354804Y-124665804D01*
X60414523Y-124611810D01*
X60468590Y-124551402D01*
X60519523Y-124482093D01*
X60544488Y-124442824D01*
X60569945Y-124397253D01*
X60593952Y-124347691D01*
X60617120Y-124292679D01*
X60640061Y-124230757D01*
X60663386Y-124160465D01*
X60687706Y-124080344D01*
X60691610Y-124067014D01*
X60701934Y-124031869D01*
X60712031Y-123997635D01*
X60720913Y-123967656D01*
X60727591Y-123945279D01*
X60741562Y-123898791D01*
X60825481Y-123920451D01*
G37*
%LPC*%
D12*
X155575000Y-139065000D02*
X72898000Y-139065000D01*
X72898000Y-131445000D01*
X155575000Y-131445000D01*
X155575000Y-139065000D01*
G36*
X155575000Y-139065000D02*
G01*
X72898000Y-139065000D01*
X72898000Y-131445000D01*
X155575000Y-131445000D01*
X155575000Y-139065000D01*
G37*
D13*
X153035000Y-135255000D03*
X150495000Y-135255000D03*
X147955000Y-135255000D03*
X145415000Y-135255000D03*
X142875000Y-135255000D03*
X140335000Y-135255000D03*
X137795000Y-135255000D03*
X135255000Y-135255000D03*
X132715000Y-135255000D03*
X130175000Y-135255000D03*
X127635000Y-135255000D03*
X125095000Y-135255000D03*
X122555000Y-135255000D03*
X120015000Y-135255000D03*
X117475000Y-135255000D03*
X114935000Y-135255000D03*
X112395000Y-135255000D03*
X109855000Y-135255000D03*
X107315000Y-135255000D03*
X104775000Y-135255000D03*
X102235000Y-135255000D03*
X99695000Y-135255000D03*
X97155000Y-135255000D03*
X94615000Y-135255000D03*
X92075000Y-135255000D03*
X89535000Y-135255000D03*
X86995000Y-135255000D03*
X84455000Y-135255000D03*
X81915000Y-135255000D03*
X79375000Y-135255000D03*
X76835000Y-135255000D03*
D14*
X59029600Y-40513000D03*
X59029600Y-45593000D03*
X59029600Y-50673000D03*
X59029600Y-55753000D03*
X59029600Y-60833000D03*
X59029600Y-65913000D03*
X59029600Y-70993000D03*
X59029600Y-76073000D03*
X59029600Y-81153000D03*
X59029600Y-86233000D03*
X59029600Y-91313000D03*
X59029600Y-96393000D03*
X59029600Y-101473000D03*
X59029600Y-106553000D03*
X59039974Y-43053000D03*
X59039974Y-48133000D03*
X59039974Y-53213000D03*
X59039974Y-58293000D03*
X59039974Y-63373000D03*
X59039974Y-68453000D03*
X59039974Y-73533000D03*
X59039974Y-78613000D03*
X59039974Y-83693000D03*
X59039974Y-88773000D03*
X59039974Y-93853000D03*
X59039974Y-98933000D03*
X59039974Y-104013000D03*
X59039974Y-109093000D03*
X61569600Y-40513000D03*
X61569600Y-45593000D03*
X61569600Y-50673000D03*
X61569600Y-55753000D03*
X61569600Y-60833000D03*
X61569600Y-65913000D03*
X61569600Y-70993000D03*
X61569600Y-76073000D03*
X61569600Y-81153000D03*
X61569600Y-86233000D03*
X61569600Y-91313000D03*
X61569600Y-96393000D03*
X61569600Y-101473000D03*
X61569600Y-106553000D03*
X61579974Y-43053000D03*
X61579974Y-48133000D03*
X61579974Y-53213000D03*
X61579974Y-58293000D03*
X61579974Y-63373000D03*
X61579974Y-68453000D03*
X61579974Y-73533000D03*
X61579974Y-78613000D03*
X61579974Y-83693000D03*
X61579974Y-88773000D03*
X61579974Y-93853000D03*
X61579974Y-98933000D03*
X61579974Y-104013000D03*
X61579974Y-109093000D03*
X64109600Y-40513000D03*
X64109600Y-45593000D03*
X64109600Y-50673000D03*
X64109600Y-55753000D03*
X64109600Y-60833000D03*
X64109600Y-65913000D03*
X64109600Y-70993000D03*
X64109600Y-76073000D03*
X64109600Y-81153000D03*
X64109600Y-86233000D03*
X64109600Y-91313000D03*
X64109600Y-96393000D03*
X64109600Y-101473000D03*
X64109600Y-106553000D03*
X64119974Y-43053000D03*
X64119974Y-48133000D03*
X64119974Y-53213000D03*
X64119974Y-58293000D03*
X64119974Y-63373000D03*
X64119974Y-68453000D03*
X64119974Y-73533000D03*
X64119974Y-78613000D03*
X64119974Y-83693000D03*
X64119974Y-88773000D03*
X64119974Y-93853000D03*
X64119974Y-98933000D03*
X64119974Y-104013000D03*
X64119974Y-109093000D03*
X66649600Y-40513000D03*
X66649600Y-45593000D03*
X66649600Y-50673000D03*
X66649600Y-55753000D03*
X66649600Y-60833000D03*
X66649600Y-65913000D03*
X66649600Y-70993000D03*
X66649600Y-76073000D03*
X66649600Y-81153000D03*
X66649600Y-86233000D03*
X66649600Y-91313000D03*
X66649600Y-96393000D03*
X66649600Y-101473000D03*
X66649600Y-106553000D03*
X66659974Y-43053000D03*
X66659974Y-48133000D03*
X66659974Y-53213000D03*
X66659974Y-58293000D03*
X66659974Y-63373000D03*
X66659974Y-68453000D03*
X66659974Y-73533000D03*
X66659974Y-78613000D03*
X66659974Y-83693000D03*
X66659974Y-88773000D03*
X66659974Y-93853000D03*
X66659974Y-98933000D03*
X66659974Y-104013000D03*
X66659974Y-109093000D03*
X69189600Y-40513000D03*
X69189600Y-45593000D03*
X69189600Y-50673000D03*
X69189600Y-55753000D03*
X69189600Y-60833000D03*
X69189600Y-65913000D03*
X69189600Y-70993000D03*
X69189600Y-76073000D03*
X69189600Y-81153000D03*
X69189600Y-86233000D03*
X69189600Y-91313000D03*
X69189600Y-96393000D03*
X69189600Y-101473000D03*
X69189600Y-106553000D03*
X69199974Y-43053000D03*
X69199974Y-48133000D03*
X69199974Y-53213000D03*
X69199974Y-58293000D03*
X69199974Y-63373000D03*
X69199974Y-68453000D03*
X69199974Y-73533000D03*
X69199974Y-78613000D03*
X69199974Y-83693000D03*
X69199974Y-88773000D03*
X69199974Y-93853000D03*
X69199974Y-98933000D03*
X69199974Y-104013000D03*
X69199974Y-109093000D03*
X71729600Y-40513000D03*
X71729600Y-45593000D03*
X71729600Y-50673000D03*
X71729600Y-55753000D03*
X71729600Y-60833000D03*
X71729600Y-65913000D03*
X71729600Y-70993000D03*
X71729600Y-76073000D03*
X71729600Y-81153000D03*
X71729600Y-86233000D03*
X71729600Y-91313000D03*
X71729600Y-96393000D03*
X71729600Y-101473000D03*
X71729600Y-106553000D03*
X71739974Y-43053000D03*
X71739974Y-48133000D03*
X71739974Y-53213000D03*
X71739974Y-58293000D03*
X71739974Y-63373000D03*
X71739974Y-68453000D03*
X71739974Y-73533000D03*
X71739974Y-78613000D03*
X71739974Y-83693000D03*
X71739974Y-88773000D03*
X71739974Y-93853000D03*
X71739974Y-98933000D03*
X71739974Y-104013000D03*
X71739974Y-109093000D03*
X74269600Y-40513000D03*
X74269600Y-45593000D03*
X74269600Y-50673000D03*
X74269600Y-55753000D03*
X74269600Y-60833000D03*
X74269600Y-65913000D03*
X74269600Y-70993000D03*
X74269600Y-76073000D03*
X74269600Y-81153000D03*
X74269600Y-86233000D03*
X74269600Y-91313000D03*
X74269600Y-96393000D03*
X74269600Y-101473000D03*
X74269600Y-106553000D03*
X74279974Y-43053000D03*
X74279974Y-48133000D03*
X74279974Y-53213000D03*
X74279974Y-58293000D03*
X74279974Y-63373000D03*
X74279974Y-68453000D03*
X74279974Y-73533000D03*
X74279974Y-78613000D03*
X74279974Y-83693000D03*
X74279974Y-88773000D03*
X74279974Y-93853000D03*
X74279974Y-98933000D03*
X74279974Y-104013000D03*
X74279974Y-109093000D03*
X76809600Y-40513000D03*
X76809600Y-45593000D03*
X76809600Y-50673000D03*
X76809600Y-55753000D03*
X76809600Y-60833000D03*
X76809600Y-65913000D03*
X76809600Y-70993000D03*
X76809600Y-76073000D03*
X76809600Y-81153000D03*
X76809600Y-86233000D03*
X76809600Y-91313000D03*
X76809600Y-96393000D03*
X76809600Y-101473000D03*
X76809600Y-106553000D03*
X76819974Y-43053000D03*
X76819974Y-48133000D03*
X76819974Y-53213000D03*
X76819974Y-58293000D03*
X76819974Y-63373000D03*
X76819974Y-68453000D03*
X76819974Y-73533000D03*
X76819974Y-78613000D03*
X76819974Y-83693000D03*
X76819974Y-88773000D03*
X76819974Y-93853000D03*
X76819974Y-98933000D03*
X76819974Y-104013000D03*
X76819974Y-109093000D03*
X79349600Y-40513000D03*
X79349600Y-45593000D03*
X79349600Y-50673000D03*
X79349600Y-55753000D03*
X79349600Y-60833000D03*
X79349600Y-65913000D03*
X79349600Y-70993000D03*
X79349600Y-76073000D03*
X79349600Y-81153000D03*
X79349600Y-86233000D03*
X79349600Y-91313000D03*
X79349600Y-96393000D03*
X79349600Y-101473000D03*
X79349600Y-106553000D03*
X79359974Y-43053000D03*
X79359974Y-48133000D03*
X79359974Y-53213000D03*
X79359974Y-58293000D03*
X79359974Y-63373000D03*
X79359974Y-68453000D03*
X79359974Y-73533000D03*
X79359974Y-78613000D03*
X79359974Y-83693000D03*
X79359974Y-88773000D03*
X79359974Y-93853000D03*
X79359974Y-98933000D03*
X79359974Y-104013000D03*
X79359974Y-109093000D03*
X81889600Y-40513000D03*
X81889600Y-45593000D03*
X81889600Y-50673000D03*
X81889600Y-55753000D03*
X81889600Y-60833000D03*
X81889600Y-65913000D03*
X81889600Y-70993000D03*
X81889600Y-76073000D03*
X81889600Y-81153000D03*
X81889600Y-86233000D03*
X81889600Y-91313000D03*
X81889600Y-96393000D03*
X81889600Y-101473000D03*
X81889600Y-106553000D03*
X81899974Y-43053000D03*
X81899974Y-48133000D03*
X81899974Y-53213000D03*
X81899974Y-58293000D03*
X81899974Y-63373000D03*
X81899974Y-68453000D03*
X81899974Y-73533000D03*
X81899974Y-78613000D03*
X81899974Y-83693000D03*
X81899974Y-88773000D03*
X81899974Y-93853000D03*
X81899974Y-98933000D03*
X81899974Y-104013000D03*
X81899974Y-109093000D03*
X84429600Y-40513000D03*
X84429600Y-45593000D03*
X84429600Y-50673000D03*
X84429600Y-55753000D03*
X84429600Y-60833000D03*
X84429600Y-65913000D03*
X84429600Y-70993000D03*
X84429600Y-76073000D03*
X84429600Y-81153000D03*
X84429600Y-86233000D03*
X84429600Y-91313000D03*
X84429600Y-96393000D03*
X84429600Y-101473000D03*
X84429600Y-106553000D03*
X84439974Y-43053000D03*
X84439974Y-48133000D03*
X84439974Y-53213000D03*
X84439974Y-58293000D03*
X84439974Y-63373000D03*
X84439974Y-68453000D03*
X84439974Y-73533000D03*
X84439974Y-78613000D03*
X84439974Y-83693000D03*
X84439974Y-88773000D03*
X84439974Y-93853000D03*
X84439974Y-98933000D03*
X84439974Y-104013000D03*
X84439974Y-109093000D03*
X86969600Y-40513000D03*
X86969600Y-45593000D03*
X86969600Y-50673000D03*
X86969600Y-55753000D03*
X86969600Y-60833000D03*
X86969600Y-65913000D03*
X86969600Y-70993000D03*
X86969600Y-76073000D03*
X86969600Y-81153000D03*
X86969600Y-86233000D03*
X86969600Y-91313000D03*
X86969600Y-96393000D03*
X86969600Y-101473000D03*
X86969600Y-106553000D03*
X86979974Y-43053000D03*
X86979974Y-48133000D03*
X86979974Y-53213000D03*
X86979974Y-58293000D03*
X86979974Y-63373000D03*
X86979974Y-68453000D03*
X86979974Y-73533000D03*
X86979974Y-78613000D03*
X86979974Y-83693000D03*
X86979974Y-88773000D03*
X86979974Y-93853000D03*
X86979974Y-98933000D03*
X86979974Y-104013000D03*
X86979974Y-109093000D03*
X89509600Y-40513000D03*
X89509600Y-45593000D03*
X89509600Y-50673000D03*
X89509600Y-55753000D03*
X89509600Y-60833000D03*
X89509600Y-65913000D03*
X89509600Y-70993000D03*
X89509600Y-76073000D03*
X89509600Y-81153000D03*
X89509600Y-86233000D03*
X89509600Y-91313000D03*
X89509600Y-96393000D03*
X89509600Y-101473000D03*
X89509600Y-106553000D03*
X89519974Y-43053000D03*
X89519974Y-48133000D03*
X89519974Y-53213000D03*
X89519974Y-58293000D03*
X89519974Y-63373000D03*
X89519974Y-68453000D03*
X89519974Y-73533000D03*
X89519974Y-78613000D03*
X89519974Y-83693000D03*
X89519974Y-88773000D03*
X89519974Y-93853000D03*
X89519974Y-98933000D03*
X89519974Y-104013000D03*
X89519974Y-109093000D03*
X92049600Y-40513000D03*
X92049600Y-45593000D03*
X92049600Y-50673000D03*
X92049600Y-55753000D03*
X92049600Y-60833000D03*
X92049600Y-65913000D03*
X92049600Y-70993000D03*
X92049600Y-76073000D03*
X92049600Y-81153000D03*
X92049600Y-86233000D03*
X92049600Y-91313000D03*
X92049600Y-96393000D03*
X92049600Y-101473000D03*
X92049600Y-106553000D03*
X92059974Y-43053000D03*
X92059974Y-48133000D03*
X92059974Y-53213000D03*
X92059974Y-58293000D03*
X92059974Y-63373000D03*
X92059974Y-68453000D03*
X92059974Y-73533000D03*
X92059974Y-78613000D03*
X92059974Y-83693000D03*
X92059974Y-88773000D03*
X92059974Y-93853000D03*
X92059974Y-98933000D03*
X92059974Y-104013000D03*
X92059974Y-109093000D03*
X94589600Y-40513000D03*
X94589600Y-45593000D03*
X94589600Y-50673000D03*
X94589600Y-55753000D03*
X94589600Y-60833000D03*
X94589600Y-65913000D03*
X94589600Y-70993000D03*
X94589600Y-76073000D03*
X94589600Y-81153000D03*
X94589600Y-86233000D03*
X94589600Y-91313000D03*
X94589600Y-96393000D03*
X94589600Y-101473000D03*
X94589600Y-106553000D03*
X94599974Y-43053000D03*
X94599974Y-48133000D03*
X94599974Y-53213000D03*
X94599974Y-58293000D03*
X94599974Y-63373000D03*
X94599974Y-68453000D03*
X94599974Y-73533000D03*
X94599974Y-78613000D03*
X94599974Y-83693000D03*
X94599974Y-88773000D03*
X94599974Y-93853000D03*
X94599974Y-98933000D03*
X94599974Y-104013000D03*
X94599974Y-109093000D03*
X97129600Y-40513000D03*
X97129600Y-45593000D03*
X97129600Y-50673000D03*
X97129600Y-55753000D03*
X97129600Y-60833000D03*
X97129600Y-65913000D03*
X97129600Y-70993000D03*
X97129600Y-76073000D03*
X97129600Y-81153000D03*
X97129600Y-86233000D03*
X97129600Y-91313000D03*
X97129600Y-96393000D03*
X97129600Y-101473000D03*
X97129600Y-106553000D03*
X97139974Y-43053000D03*
X97139974Y-48133000D03*
X97139974Y-53213000D03*
X97139974Y-58293000D03*
X97139974Y-63373000D03*
X97139974Y-68453000D03*
X97139974Y-73533000D03*
X97139974Y-78613000D03*
X97139974Y-83693000D03*
X97139974Y-88773000D03*
X97139974Y-93853000D03*
X97139974Y-98933000D03*
X97139974Y-104013000D03*
X97139974Y-109093000D03*
X99669600Y-40513000D03*
X99669600Y-45593000D03*
X99669600Y-50673000D03*
X99669600Y-55753000D03*
X99669600Y-60833000D03*
X99669600Y-65913000D03*
X99669600Y-70993000D03*
X99669600Y-76073000D03*
X99669600Y-81153000D03*
X99669600Y-86233000D03*
X99669600Y-91313000D03*
X99669600Y-96393000D03*
X99669600Y-101473000D03*
X99669600Y-106553000D03*
X99679974Y-43053000D03*
X99679974Y-48133000D03*
X99679974Y-53213000D03*
X99679974Y-58293000D03*
X99679974Y-63373000D03*
X99679974Y-68453000D03*
X99679974Y-73533000D03*
X99679974Y-78613000D03*
X99679974Y-83693000D03*
X99679974Y-88773000D03*
X99679974Y-93853000D03*
X99679974Y-98933000D03*
X99679974Y-104013000D03*
X99679974Y-109093000D03*
X102209600Y-40513000D03*
X102209600Y-45593000D03*
X102209600Y-50673000D03*
X102209600Y-55753000D03*
X102209600Y-60833000D03*
X102209600Y-65913000D03*
X102209600Y-70993000D03*
X102209600Y-76073000D03*
X102209600Y-81153000D03*
X102209600Y-86233000D03*
X102209600Y-91313000D03*
X102209600Y-96393000D03*
X102209600Y-101473000D03*
X102209600Y-106553000D03*
X102219974Y-43053000D03*
X102219974Y-48133000D03*
X102219974Y-53213000D03*
X102219974Y-58293000D03*
X102219974Y-63373000D03*
X102219974Y-68453000D03*
X102219974Y-73533000D03*
X102219974Y-78613000D03*
X102219974Y-83693000D03*
X102219974Y-88773000D03*
X102219974Y-93853000D03*
X102219974Y-98933000D03*
X102219974Y-104013000D03*
X102219974Y-109093000D03*
X104749600Y-40513000D03*
X104749600Y-45593000D03*
X104749600Y-50673000D03*
X104749600Y-55753000D03*
X104749600Y-60833000D03*
X104749600Y-65913000D03*
X104749600Y-70993000D03*
X104749600Y-76073000D03*
X104749600Y-81153000D03*
X104749600Y-86233000D03*
X104749600Y-91313000D03*
X104749600Y-96393000D03*
X104749600Y-101473000D03*
X104749600Y-106553000D03*
X104759974Y-43053000D03*
X104759974Y-48133000D03*
X104759974Y-53213000D03*
X104759974Y-58293000D03*
X104759974Y-63373000D03*
X104759974Y-68453000D03*
X104759974Y-73533000D03*
X104759974Y-78613000D03*
X104759974Y-83693000D03*
X104759974Y-88773000D03*
X104759974Y-93853000D03*
X104759974Y-98933000D03*
X104759974Y-104013000D03*
X104759974Y-109093000D03*
X107289600Y-40513000D03*
X107289600Y-45593000D03*
X107289600Y-50673000D03*
X107289600Y-55753000D03*
X107289600Y-60833000D03*
X107289600Y-65913000D03*
X107289600Y-70993000D03*
X107289600Y-76073000D03*
X107289600Y-81153000D03*
X107289600Y-86233000D03*
X107289600Y-91313000D03*
X107289600Y-96393000D03*
X107289600Y-101473000D03*
X107289600Y-106553000D03*
X107299974Y-43053000D03*
X107299974Y-48133000D03*
X107299974Y-53213000D03*
X107299974Y-58293000D03*
X107299974Y-63373000D03*
X107299974Y-68453000D03*
X107299974Y-73533000D03*
X107299974Y-78613000D03*
X107299974Y-83693000D03*
X107299974Y-88773000D03*
X107299974Y-93853000D03*
X107299974Y-98933000D03*
X107299974Y-104013000D03*
X107299974Y-109093000D03*
X109829600Y-40513000D03*
X109829600Y-45593000D03*
X109829600Y-50673000D03*
X109829600Y-55753000D03*
X109829600Y-60833000D03*
X109829600Y-65913000D03*
X109829600Y-70993000D03*
X109829600Y-76073000D03*
X109829600Y-81153000D03*
X109829600Y-86233000D03*
X109829600Y-91313000D03*
X109829600Y-96393000D03*
X109829600Y-101473000D03*
X109829600Y-106553000D03*
X109839974Y-43053000D03*
X109839974Y-48133000D03*
X109839974Y-53213000D03*
X109839974Y-58293000D03*
X109839974Y-63373000D03*
X109839974Y-68453000D03*
X109839974Y-73533000D03*
X109839974Y-78613000D03*
X109839974Y-83693000D03*
X109839974Y-88773000D03*
X109839974Y-93853000D03*
X109839974Y-98933000D03*
X109839974Y-104013000D03*
X109839974Y-109093000D03*
X112369600Y-40513000D03*
X112369600Y-45593000D03*
X112369600Y-50673000D03*
X112369600Y-55753000D03*
X112369600Y-60833000D03*
X112369600Y-65913000D03*
X112369600Y-70993000D03*
X112369600Y-76073000D03*
X112369600Y-81153000D03*
X112369600Y-86233000D03*
X112369600Y-91313000D03*
X112369600Y-96393000D03*
X112369600Y-101473000D03*
X112369600Y-106553000D03*
X112379974Y-43053000D03*
X112379974Y-48133000D03*
X112379974Y-53213000D03*
X112379974Y-58293000D03*
X112379974Y-63373000D03*
X112379974Y-68453000D03*
X112379974Y-73533000D03*
X112379974Y-78613000D03*
X112379974Y-83693000D03*
X112379974Y-88773000D03*
X112379974Y-93853000D03*
X112379974Y-98933000D03*
X112379974Y-104013000D03*
X112379974Y-109093000D03*
X114909600Y-40513000D03*
X114909600Y-45593000D03*
X114909600Y-50673000D03*
X114909600Y-55753000D03*
X114909600Y-60833000D03*
X114909600Y-65913000D03*
X114909600Y-70993000D03*
X114909600Y-76073000D03*
X114909600Y-81153000D03*
X114909600Y-86233000D03*
X114909600Y-91313000D03*
X114909600Y-96393000D03*
X114909600Y-101473000D03*
X114909600Y-106553000D03*
X114919974Y-43053000D03*
X114919974Y-48133000D03*
X114919974Y-53213000D03*
X114919974Y-58293000D03*
X114919974Y-63373000D03*
X114919974Y-68453000D03*
X114919974Y-73533000D03*
X114919974Y-78613000D03*
X114919974Y-83693000D03*
X114919974Y-88773000D03*
X114919974Y-93853000D03*
X114919974Y-98933000D03*
X114919974Y-104013000D03*
X114919974Y-109093000D03*
X117449600Y-40513000D03*
X117449600Y-45593000D03*
X117449600Y-50673000D03*
X117449600Y-55753000D03*
X117449600Y-60833000D03*
X117449600Y-65913000D03*
X117449600Y-70993000D03*
X117449600Y-76073000D03*
X117449600Y-81153000D03*
X117449600Y-86233000D03*
X117449600Y-91313000D03*
X117449600Y-96393000D03*
X117449600Y-101473000D03*
X117449600Y-106553000D03*
X117459974Y-43053000D03*
X117459974Y-48133000D03*
X117459974Y-53213000D03*
X117459974Y-58293000D03*
X117459974Y-63373000D03*
X117459974Y-68453000D03*
X117459974Y-73533000D03*
X117459974Y-78613000D03*
X117459974Y-83693000D03*
X117459974Y-88773000D03*
X117459974Y-93853000D03*
X117459974Y-98933000D03*
X117459974Y-104013000D03*
X117459974Y-109093000D03*
X119989600Y-40513000D03*
X119989600Y-45593000D03*
X119989600Y-50673000D03*
X119989600Y-55753000D03*
X119989600Y-60833000D03*
X119989600Y-65913000D03*
X119989600Y-70993000D03*
X119989600Y-76073000D03*
X119989600Y-81153000D03*
X119989600Y-86233000D03*
X119989600Y-91313000D03*
X119989600Y-96393000D03*
X119989600Y-101473000D03*
X119989600Y-106553000D03*
X119999974Y-43053000D03*
X119999974Y-48133000D03*
X119999974Y-53213000D03*
X119999974Y-58293000D03*
X119999974Y-63373000D03*
X119999974Y-68453000D03*
X119999974Y-73533000D03*
X119999974Y-78613000D03*
X119999974Y-83693000D03*
X119999974Y-88773000D03*
X119999974Y-93853000D03*
X119999974Y-98933000D03*
X119999974Y-104013000D03*
X119999974Y-109093000D03*
X122529600Y-40513000D03*
X122529600Y-45593000D03*
X122529600Y-50673000D03*
X122529600Y-55753000D03*
X122529600Y-60833000D03*
X122529600Y-65913000D03*
X122529600Y-70993000D03*
X122529600Y-76073000D03*
X122529600Y-81153000D03*
X122529600Y-86233000D03*
X122529600Y-91313000D03*
X122529600Y-96393000D03*
X122529600Y-101473000D03*
X122529600Y-106553000D03*
X122539974Y-43053000D03*
X122539974Y-48133000D03*
X122539974Y-53213000D03*
X122539974Y-58293000D03*
X122539974Y-63373000D03*
X122539974Y-68453000D03*
X122539974Y-73533000D03*
X122539974Y-78613000D03*
X122539974Y-83693000D03*
X122539974Y-88773000D03*
X122539974Y-93853000D03*
X122539974Y-98933000D03*
X122539974Y-104013000D03*
X122539974Y-109093000D03*
X125069600Y-40513000D03*
X125069600Y-45593000D03*
X125069600Y-50673000D03*
X125069600Y-55753000D03*
X125069600Y-60833000D03*
X125069600Y-65913000D03*
X125069600Y-70993000D03*
X125069600Y-76073000D03*
X125069600Y-81153000D03*
X125069600Y-86233000D03*
X125069600Y-91313000D03*
X125069600Y-96393000D03*
X125069600Y-101473000D03*
X125069600Y-106553000D03*
X125079974Y-43053000D03*
X125079974Y-48133000D03*
X125079974Y-53213000D03*
X125079974Y-58293000D03*
X125079974Y-63373000D03*
X125079974Y-68453000D03*
X125079974Y-73533000D03*
X125079974Y-78613000D03*
X125079974Y-83693000D03*
X125079974Y-88773000D03*
X125079974Y-93853000D03*
X125079974Y-98933000D03*
X125079974Y-104013000D03*
X125079974Y-109093000D03*
X127609600Y-40513000D03*
X127609600Y-45593000D03*
X127609600Y-50673000D03*
X127609600Y-55753000D03*
X127609600Y-60833000D03*
X127609600Y-65913000D03*
X127609600Y-70993000D03*
X127609600Y-76073000D03*
X127609600Y-81153000D03*
X127609600Y-86233000D03*
X127609600Y-91313000D03*
X127609600Y-96393000D03*
X127609600Y-101473000D03*
X127609600Y-106553000D03*
X127619974Y-43053000D03*
X127619974Y-48133000D03*
X127619974Y-53213000D03*
X127619974Y-58293000D03*
X127619974Y-63373000D03*
X127619974Y-68453000D03*
X127619974Y-73533000D03*
X127619974Y-78613000D03*
X127619974Y-83693000D03*
X127619974Y-88773000D03*
X127619974Y-93853000D03*
X127619974Y-98933000D03*
X127619974Y-104013000D03*
X127619974Y-109093000D03*
X130149600Y-40513000D03*
X130149600Y-45593000D03*
X130149600Y-50673000D03*
X130149600Y-55753000D03*
X130149600Y-60833000D03*
X130149600Y-65913000D03*
X130149600Y-70993000D03*
X130149600Y-76073000D03*
X130149600Y-81153000D03*
X130149600Y-86233000D03*
X130149600Y-91313000D03*
X130149600Y-96393000D03*
X130149600Y-101473000D03*
X130149600Y-106553000D03*
X130159974Y-43053000D03*
X130159974Y-48133000D03*
X130159974Y-53213000D03*
X130159974Y-58293000D03*
X130159974Y-63373000D03*
X130159974Y-68453000D03*
X130159974Y-73533000D03*
X130159974Y-78613000D03*
X130159974Y-83693000D03*
X130159974Y-88773000D03*
X130159974Y-93853000D03*
X130159974Y-98933000D03*
X130159974Y-104013000D03*
X130159974Y-109093000D03*
X132689600Y-40513000D03*
X132689600Y-45593000D03*
X132689600Y-50673000D03*
X132689600Y-55753000D03*
X132689600Y-60833000D03*
X132689600Y-65913000D03*
X132689600Y-70993000D03*
X132689600Y-76073000D03*
X132689600Y-81153000D03*
X132689600Y-86233000D03*
X132689600Y-91313000D03*
X132689600Y-96393000D03*
X132689600Y-101473000D03*
X132689600Y-106553000D03*
X132699974Y-43053000D03*
X132699974Y-48133000D03*
X132699974Y-53213000D03*
X132699974Y-58293000D03*
X132699974Y-63373000D03*
X132699974Y-68453000D03*
X132699974Y-73533000D03*
X132699974Y-78613000D03*
X132699974Y-83693000D03*
X132699974Y-88773000D03*
X132699974Y-93853000D03*
X132699974Y-98933000D03*
X132699974Y-104013000D03*
X132699974Y-109093000D03*
X135229600Y-40513000D03*
X135229600Y-45593000D03*
X135229600Y-50673000D03*
X135229600Y-55753000D03*
X135229600Y-60833000D03*
X135229600Y-65913000D03*
X135229600Y-70993000D03*
X135229600Y-76073000D03*
X135229600Y-81153000D03*
X135229600Y-86233000D03*
X135229600Y-91313000D03*
X135229600Y-96393000D03*
X135229600Y-101473000D03*
X135229600Y-106553000D03*
X135239974Y-43053000D03*
X135239974Y-48133000D03*
X135239974Y-53213000D03*
X135239974Y-58293000D03*
X135239974Y-63373000D03*
X135239974Y-68453000D03*
X135239974Y-73533000D03*
X135239974Y-78613000D03*
X135239974Y-83693000D03*
X135239974Y-88773000D03*
X135239974Y-93853000D03*
X135239974Y-98933000D03*
X135239974Y-104013000D03*
X135239974Y-109093000D03*
X137769600Y-40513000D03*
X137769600Y-45593000D03*
X137769600Y-50673000D03*
X137769600Y-55753000D03*
X137769600Y-60833000D03*
X137769600Y-65913000D03*
X137769600Y-70993000D03*
X137769600Y-76073000D03*
X137769600Y-81153000D03*
X137769600Y-86233000D03*
X137769600Y-91313000D03*
X137769600Y-96393000D03*
X137769600Y-101473000D03*
X137769600Y-106553000D03*
X137779974Y-43053000D03*
X137779974Y-48133000D03*
X137779974Y-53213000D03*
X137779974Y-58293000D03*
X137779974Y-63373000D03*
X137779974Y-68453000D03*
X137779974Y-73533000D03*
X137779974Y-78613000D03*
X137779974Y-83693000D03*
X137779974Y-88773000D03*
X137779974Y-93853000D03*
X137779974Y-98933000D03*
X137779974Y-104013000D03*
X137779974Y-109093000D03*
X140309600Y-40513000D03*
X140309600Y-45593000D03*
X140309600Y-50673000D03*
X140309600Y-55753000D03*
X140309600Y-60833000D03*
X140309600Y-65913000D03*
X140309600Y-70993000D03*
X140309600Y-76073000D03*
X140309600Y-81153000D03*
X140309600Y-86233000D03*
X140309600Y-91313000D03*
X140309600Y-96393000D03*
X140309600Y-101473000D03*
X140309600Y-106553000D03*
X140319974Y-43053000D03*
X140319974Y-48133000D03*
X140319974Y-53213000D03*
X140319974Y-58293000D03*
X140319974Y-63373000D03*
X140319974Y-68453000D03*
X140319974Y-73533000D03*
X140319974Y-78613000D03*
X140319974Y-83693000D03*
X140319974Y-88773000D03*
X140319974Y-93853000D03*
X140319974Y-98933000D03*
X140319974Y-104013000D03*
X140319974Y-109093000D03*
X142849600Y-40513000D03*
X142849600Y-45593000D03*
X142849600Y-50673000D03*
X142849600Y-55753000D03*
X142849600Y-60833000D03*
X142849600Y-65913000D03*
X142849600Y-70993000D03*
X142849600Y-76073000D03*
X142849600Y-81153000D03*
X142849600Y-86233000D03*
X142849600Y-91313000D03*
X142849600Y-96393000D03*
X142849600Y-101473000D03*
X142849600Y-106553000D03*
X142859974Y-43053000D03*
X142859974Y-48133000D03*
X142859974Y-53213000D03*
X142859974Y-58293000D03*
X142859974Y-63373000D03*
X142859974Y-68453000D03*
X142859974Y-73533000D03*
X142859974Y-78613000D03*
X142859974Y-83693000D03*
X142859974Y-88773000D03*
X142859974Y-93853000D03*
X142859974Y-98933000D03*
X142859974Y-104013000D03*
X142859974Y-109093000D03*
X145389600Y-40513000D03*
X145389600Y-45593000D03*
X145389600Y-50673000D03*
X145389600Y-55753000D03*
X145389600Y-60833000D03*
X145389600Y-65913000D03*
X145389600Y-70993000D03*
X145389600Y-76073000D03*
X145389600Y-81153000D03*
X145389600Y-86233000D03*
X145389600Y-91313000D03*
X145389600Y-96393000D03*
X145389600Y-101473000D03*
X145389600Y-106553000D03*
X145399974Y-43053000D03*
X145399974Y-48133000D03*
X145399974Y-53213000D03*
X145399974Y-58293000D03*
X145399974Y-63373000D03*
X145399974Y-68453000D03*
X145399974Y-73533000D03*
X145399974Y-78613000D03*
X145399974Y-83693000D03*
X145399974Y-88773000D03*
X145399974Y-93853000D03*
X145399974Y-98933000D03*
X145399974Y-104013000D03*
X145399974Y-109093000D03*
X147929600Y-40513000D03*
X147929600Y-45593000D03*
X147929600Y-50673000D03*
X147929600Y-55753000D03*
X147929600Y-60833000D03*
X147929600Y-65913000D03*
X147929600Y-70993000D03*
X147929600Y-76073000D03*
X147929600Y-81153000D03*
X147929600Y-86233000D03*
X147929600Y-91313000D03*
X147929600Y-96393000D03*
X147929600Y-101473000D03*
X147929600Y-106553000D03*
X147939974Y-43053000D03*
X147939974Y-48133000D03*
X147939974Y-53213000D03*
X147939974Y-58293000D03*
X147939974Y-63373000D03*
X147939974Y-68453000D03*
X147939974Y-73533000D03*
X147939974Y-78613000D03*
X147939974Y-83693000D03*
X147939974Y-88773000D03*
X147939974Y-93853000D03*
X147939974Y-98933000D03*
X147939974Y-104013000D03*
X147939974Y-109093000D03*
X150469600Y-40513000D03*
X150469600Y-45593000D03*
X150469600Y-50673000D03*
X150469600Y-55753000D03*
X150469600Y-60833000D03*
X150469600Y-65913000D03*
X150469600Y-70993000D03*
X150469600Y-76073000D03*
X150469600Y-81153000D03*
X150469600Y-86233000D03*
X150469600Y-91313000D03*
X150469600Y-96393000D03*
X150469600Y-101473000D03*
X150469600Y-106553000D03*
X150479974Y-43053000D03*
X150479974Y-48133000D03*
X150479974Y-53213000D03*
X150479974Y-58293000D03*
X150479974Y-63373000D03*
X150479974Y-68453000D03*
X150479974Y-73533000D03*
X150479974Y-78613000D03*
X150479974Y-83693000D03*
X150479974Y-88773000D03*
X150479974Y-93853000D03*
X150479974Y-98933000D03*
X150479974Y-104013000D03*
X150479974Y-109093000D03*
X153009600Y-40513000D03*
X153009600Y-45593000D03*
X153009600Y-50673000D03*
X153009600Y-55753000D03*
X153009600Y-60833000D03*
X153009600Y-65913000D03*
X153009600Y-70993000D03*
X153009600Y-76073000D03*
X153009600Y-81153000D03*
X153009600Y-86233000D03*
X153009600Y-91313000D03*
X153009600Y-96393000D03*
X153009600Y-101473000D03*
X153009600Y-106553000D03*
X153019974Y-43053000D03*
X153019974Y-48133000D03*
X153019974Y-53213000D03*
X153019974Y-58293000D03*
X153019974Y-63373000D03*
X153019974Y-68453000D03*
X153019974Y-73533000D03*
X153019974Y-78613000D03*
X153019974Y-83693000D03*
X153019974Y-88773000D03*
X153019974Y-93853000D03*
X153019974Y-98933000D03*
X153019974Y-104013000D03*
X153019974Y-109093000D03*
D15*
X153035000Y-119507000D03*
D16*
X153035000Y-122047000D03*
X150495000Y-119507000D03*
X150495000Y-122047000D03*
X147955000Y-119507000D03*
X147955000Y-122047000D03*
X145415000Y-119507000D03*
X145415000Y-122047000D03*
X142875000Y-119507000D03*
X142875000Y-122047000D03*
X140335000Y-119507000D03*
X140335000Y-122047000D03*
X137795000Y-119507000D03*
X137795000Y-122047000D03*
X135255000Y-119507000D03*
X135255000Y-122047000D03*
X132715000Y-119507000D03*
X132715000Y-122047000D03*
X130175000Y-119507000D03*
X130175000Y-122047000D03*
X127635000Y-119507000D03*
X127635000Y-122047000D03*
X125095000Y-119507000D03*
X125095000Y-122047000D03*
X122555000Y-119507000D03*
X122555000Y-122047000D03*
X120015000Y-119507000D03*
X120015000Y-122047000D03*
X117475000Y-119507000D03*
X117475000Y-122047000D03*
X114935000Y-119507000D03*
X114935000Y-122047000D03*
X112395000Y-119507000D03*
X112395000Y-122047000D03*
X109855000Y-119507000D03*
X109855000Y-122047000D03*
X107315000Y-119507000D03*
X107315000Y-122047000D03*
X104775000Y-119507000D03*
X104775000Y-122047000D03*
X102235000Y-119507000D03*
X102235000Y-122047000D03*
X99695000Y-119507000D03*
X99695000Y-122047000D03*
X97155000Y-119507000D03*
X97155000Y-122047000D03*
X94615000Y-119507000D03*
X94615000Y-122047000D03*
X92075000Y-119507000D03*
X92075000Y-122047000D03*
X89535000Y-119507000D03*
X89535000Y-122047000D03*
X86995000Y-119507000D03*
X86995000Y-122047000D03*
X84455000Y-119507000D03*
X84455000Y-122047000D03*
X81915000Y-119507000D03*
X81915000Y-122047000D03*
X79375000Y-119507000D03*
X79375000Y-122047000D03*
X76835000Y-119507000D03*
X76835000Y-122047000D03*
%LPD*%
M02*
