M48
; DRILL file {KiCad 8.0.4} date 2025-02-18T09:49:32-0300
; FORMAT={-:-/ absolute / metric / decimal}
; #@! TF.CreationDate,2025-02-18T09:49:32-03:00
; #@! TF.GenerationSoftware,Kicad,Pcbnew,8.0.4
; #@! TF.FileFunction,Plated,1,2,PTH
FMAT,2
METRIC
; #@! TA.AperFunction,Plated,PTH,ComponentDrill
T1C1.000
%
G90
G05
T1
X59.03Y-40.513
X59.03Y-45.593
X59.03Y-50.673
X59.03Y-55.753
X59.03Y-60.833
X59.03Y-65.913
X59.03Y-70.993
X59.03Y-76.073
X59.03Y-81.153
X59.03Y-86.233
X59.03Y-91.313
X59.03Y-96.393
X59.03Y-101.473
X59.03Y-106.553
X59.04Y-43.053
X59.04Y-48.133
X59.04Y-53.213
X59.04Y-58.293
X59.04Y-63.373
X59.04Y-68.453
X59.04Y-73.533
X59.04Y-78.613
X59.04Y-83.693
X59.04Y-88.773
X59.04Y-93.853
X59.04Y-98.933
X59.04Y-104.013
X59.04Y-109.093
X61.57Y-40.513
X61.57Y-45.593
X61.57Y-50.673
X61.57Y-55.753
X61.57Y-60.833
X61.57Y-65.913
X61.57Y-70.993
X61.57Y-76.073
X61.57Y-81.153
X61.57Y-86.233
X61.57Y-91.313
X61.57Y-96.393
X61.57Y-101.473
X61.57Y-106.553
X61.58Y-43.053
X61.58Y-48.133
X61.58Y-53.213
X61.58Y-58.293
X61.58Y-63.373
X61.58Y-68.453
X61.58Y-73.533
X61.58Y-78.613
X61.58Y-83.693
X61.58Y-88.773
X61.58Y-93.853
X61.58Y-98.933
X61.58Y-104.013
X61.58Y-109.093
X64.11Y-40.513
X64.11Y-45.593
X64.11Y-50.673
X64.11Y-55.753
X64.11Y-60.833
X64.11Y-65.913
X64.11Y-70.993
X64.11Y-76.073
X64.11Y-81.153
X64.11Y-86.233
X64.11Y-91.313
X64.11Y-96.393
X64.11Y-101.473
X64.11Y-106.553
X64.12Y-43.053
X64.12Y-48.133
X64.12Y-53.213
X64.12Y-58.293
X64.12Y-63.373
X64.12Y-68.453
X64.12Y-73.533
X64.12Y-78.613
X64.12Y-83.693
X64.12Y-88.773
X64.12Y-93.853
X64.12Y-98.933
X64.12Y-104.013
X64.12Y-109.093
X66.65Y-40.513
X66.65Y-45.593
X66.65Y-50.673
X66.65Y-55.753
X66.65Y-60.833
X66.65Y-65.913
X66.65Y-70.993
X66.65Y-76.073
X66.65Y-81.153
X66.65Y-86.233
X66.65Y-91.313
X66.65Y-96.393
X66.65Y-101.473
X66.65Y-106.553
X66.66Y-43.053
X66.66Y-48.133
X66.66Y-53.213
X66.66Y-58.293
X66.66Y-63.373
X66.66Y-68.453
X66.66Y-73.533
X66.66Y-78.613
X66.66Y-83.693
X66.66Y-88.773
X66.66Y-93.853
X66.66Y-98.933
X66.66Y-104.013
X66.66Y-109.093
X69.19Y-40.513
X69.19Y-45.593
X69.19Y-50.673
X69.19Y-55.753
X69.19Y-60.833
X69.19Y-65.913
X69.19Y-70.993
X69.19Y-76.073
X69.19Y-81.153
X69.19Y-86.233
X69.19Y-91.313
X69.19Y-96.393
X69.19Y-101.473
X69.19Y-106.553
X69.2Y-43.053
X69.2Y-48.133
X69.2Y-53.213
X69.2Y-58.293
X69.2Y-63.373
X69.2Y-68.453
X69.2Y-73.533
X69.2Y-78.613
X69.2Y-83.693
X69.2Y-88.773
X69.2Y-93.853
X69.2Y-98.933
X69.2Y-104.013
X69.2Y-109.093
X71.73Y-40.513
X71.73Y-45.593
X71.73Y-50.673
X71.73Y-55.753
X71.73Y-60.833
X71.73Y-65.913
X71.73Y-70.993
X71.73Y-76.073
X71.73Y-81.153
X71.73Y-86.233
X71.73Y-91.313
X71.73Y-96.393
X71.73Y-101.473
X71.73Y-106.553
X71.74Y-43.053
X71.74Y-48.133
X71.74Y-53.213
X71.74Y-58.293
X71.74Y-63.373
X71.74Y-68.453
X71.74Y-73.533
X71.74Y-78.613
X71.74Y-83.693
X71.74Y-88.773
X71.74Y-93.853
X71.74Y-98.933
X71.74Y-104.013
X71.74Y-109.093
X74.27Y-40.513
X74.27Y-45.593
X74.27Y-50.673
X74.27Y-55.753
X74.27Y-60.833
X74.27Y-65.913
X74.27Y-70.993
X74.27Y-76.073
X74.27Y-81.153
X74.27Y-86.233
X74.27Y-91.313
X74.27Y-96.393
X74.27Y-101.473
X74.27Y-106.553
X74.28Y-43.053
X74.28Y-48.133
X74.28Y-53.213
X74.28Y-58.293
X74.28Y-63.373
X74.28Y-68.453
X74.28Y-73.533
X74.28Y-78.613
X74.28Y-83.693
X74.28Y-88.773
X74.28Y-93.853
X74.28Y-98.933
X74.28Y-104.013
X74.28Y-109.093
X76.81Y-40.513
X76.81Y-45.593
X76.81Y-50.673
X76.81Y-55.753
X76.81Y-60.833
X76.81Y-65.913
X76.81Y-70.993
X76.81Y-76.073
X76.81Y-81.153
X76.81Y-86.233
X76.81Y-91.313
X76.81Y-96.393
X76.81Y-101.473
X76.81Y-106.553
X76.82Y-43.053
X76.82Y-48.133
X76.82Y-53.213
X76.82Y-58.293
X76.82Y-63.373
X76.82Y-68.453
X76.82Y-73.533
X76.82Y-78.613
X76.82Y-83.693
X76.82Y-88.773
X76.82Y-93.853
X76.82Y-98.933
X76.82Y-104.013
X76.82Y-109.093
X76.835Y-119.507
X76.835Y-122.047
X79.35Y-40.513
X79.35Y-45.593
X79.35Y-50.673
X79.35Y-55.753
X79.35Y-60.833
X79.35Y-65.913
X79.35Y-70.993
X79.35Y-76.073
X79.35Y-81.153
X79.35Y-86.233
X79.35Y-91.313
X79.35Y-96.393
X79.35Y-101.473
X79.35Y-106.553
X79.36Y-43.053
X79.36Y-48.133
X79.36Y-53.213
X79.36Y-58.293
X79.36Y-63.373
X79.36Y-68.453
X79.36Y-73.533
X79.36Y-78.613
X79.36Y-83.693
X79.36Y-88.773
X79.36Y-93.853
X79.36Y-98.933
X79.36Y-104.013
X79.36Y-109.093
X79.375Y-119.507
X79.375Y-122.047
X81.89Y-40.513
X81.89Y-45.593
X81.89Y-50.673
X81.89Y-55.753
X81.89Y-60.833
X81.89Y-65.913
X81.89Y-70.993
X81.89Y-76.073
X81.89Y-81.153
X81.89Y-86.233
X81.89Y-91.313
X81.89Y-96.393
X81.89Y-101.473
X81.89Y-106.553
X81.9Y-43.053
X81.9Y-48.133
X81.9Y-53.213
X81.9Y-58.293
X81.9Y-63.373
X81.9Y-68.453
X81.9Y-73.533
X81.9Y-78.613
X81.9Y-83.693
X81.9Y-88.773
X81.9Y-93.853
X81.9Y-98.933
X81.9Y-104.013
X81.9Y-109.093
X81.915Y-119.507
X81.915Y-122.047
X84.43Y-40.513
X84.43Y-45.593
X84.43Y-50.673
X84.43Y-55.753
X84.43Y-60.833
X84.43Y-65.913
X84.43Y-70.993
X84.43Y-76.073
X84.43Y-81.153
X84.43Y-86.233
X84.43Y-91.313
X84.43Y-96.393
X84.43Y-101.473
X84.43Y-106.553
X84.44Y-43.053
X84.44Y-48.133
X84.44Y-53.213
X84.44Y-58.293
X84.44Y-63.373
X84.44Y-68.453
X84.44Y-73.533
X84.44Y-78.613
X84.44Y-83.693
X84.44Y-88.773
X84.44Y-93.853
X84.44Y-98.933
X84.44Y-104.013
X84.44Y-109.093
X84.455Y-119.507
X84.455Y-122.047
X86.97Y-40.513
X86.97Y-45.593
X86.97Y-50.673
X86.97Y-55.753
X86.97Y-60.833
X86.97Y-65.913
X86.97Y-70.993
X86.97Y-76.073
X86.97Y-81.153
X86.97Y-86.233
X86.97Y-91.313
X86.97Y-96.393
X86.97Y-101.473
X86.97Y-106.553
X86.98Y-43.053
X86.98Y-48.133
X86.98Y-53.213
X86.98Y-58.293
X86.98Y-63.373
X86.98Y-68.453
X86.98Y-73.533
X86.98Y-78.613
X86.98Y-83.693
X86.98Y-88.773
X86.98Y-93.853
X86.98Y-98.933
X86.98Y-104.013
X86.98Y-109.093
X86.995Y-119.507
X86.995Y-122.047
X89.51Y-40.513
X89.51Y-45.593
X89.51Y-50.673
X89.51Y-55.753
X89.51Y-60.833
X89.51Y-65.913
X89.51Y-70.993
X89.51Y-76.073
X89.51Y-81.153
X89.51Y-86.233
X89.51Y-91.313
X89.51Y-96.393
X89.51Y-101.473
X89.51Y-106.553
X89.52Y-43.053
X89.52Y-48.133
X89.52Y-53.213
X89.52Y-58.293
X89.52Y-63.373
X89.52Y-68.453
X89.52Y-73.533
X89.52Y-78.613
X89.52Y-83.693
X89.52Y-88.773
X89.52Y-93.853
X89.52Y-98.933
X89.52Y-104.013
X89.52Y-109.093
X89.535Y-119.507
X89.535Y-122.047
X92.05Y-40.513
X92.05Y-45.593
X92.05Y-50.673
X92.05Y-55.753
X92.05Y-60.833
X92.05Y-65.913
X92.05Y-70.993
X92.05Y-76.073
X92.05Y-81.153
X92.05Y-86.233
X92.05Y-91.313
X92.05Y-96.393
X92.05Y-101.473
X92.05Y-106.553
X92.06Y-43.053
X92.06Y-48.133
X92.06Y-53.213
X92.06Y-58.293
X92.06Y-63.373
X92.06Y-68.453
X92.06Y-73.533
X92.06Y-78.613
X92.06Y-83.693
X92.06Y-88.773
X92.06Y-93.853
X92.06Y-98.933
X92.06Y-104.013
X92.06Y-109.093
X92.075Y-119.507
X92.075Y-122.047
X94.59Y-40.513
X94.59Y-45.593
X94.59Y-50.673
X94.59Y-55.753
X94.59Y-60.833
X94.59Y-65.913
X94.59Y-70.993
X94.59Y-76.073
X94.59Y-81.153
X94.59Y-86.233
X94.59Y-91.313
X94.59Y-96.393
X94.59Y-101.473
X94.59Y-106.553
X94.6Y-43.053
X94.6Y-48.133
X94.6Y-53.213
X94.6Y-58.293
X94.6Y-63.373
X94.6Y-68.453
X94.6Y-73.533
X94.6Y-78.613
X94.6Y-83.693
X94.6Y-88.773
X94.6Y-93.853
X94.6Y-98.933
X94.6Y-104.013
X94.6Y-109.093
X94.615Y-119.507
X94.615Y-122.047
X97.13Y-40.513
X97.13Y-45.593
X97.13Y-50.673
X97.13Y-55.753
X97.13Y-60.833
X97.13Y-65.913
X97.13Y-70.993
X97.13Y-76.073
X97.13Y-81.153
X97.13Y-86.233
X97.13Y-91.313
X97.13Y-96.393
X97.13Y-101.473
X97.13Y-106.553
X97.14Y-43.053
X97.14Y-48.133
X97.14Y-53.213
X97.14Y-58.293
X97.14Y-63.373
X97.14Y-68.453
X97.14Y-73.533
X97.14Y-78.613
X97.14Y-83.693
X97.14Y-88.773
X97.14Y-93.853
X97.14Y-98.933
X97.14Y-104.013
X97.14Y-109.093
X97.155Y-119.507
X97.155Y-122.047
X99.67Y-40.513
X99.67Y-45.593
X99.67Y-50.673
X99.67Y-55.753
X99.67Y-60.833
X99.67Y-65.913
X99.67Y-70.993
X99.67Y-76.073
X99.67Y-81.153
X99.67Y-86.233
X99.67Y-91.313
X99.67Y-96.393
X99.67Y-101.473
X99.67Y-106.553
X99.68Y-43.053
X99.68Y-48.133
X99.68Y-53.213
X99.68Y-58.293
X99.68Y-63.373
X99.68Y-68.453
X99.68Y-73.533
X99.68Y-78.613
X99.68Y-83.693
X99.68Y-88.773
X99.68Y-93.853
X99.68Y-98.933
X99.68Y-104.013
X99.68Y-109.093
X99.695Y-119.507
X99.695Y-122.047
X102.21Y-40.513
X102.21Y-45.593
X102.21Y-50.673
X102.21Y-55.753
X102.21Y-60.833
X102.21Y-65.913
X102.21Y-70.993
X102.21Y-76.073
X102.21Y-81.153
X102.21Y-86.233
X102.21Y-91.313
X102.21Y-96.393
X102.21Y-101.473
X102.21Y-106.553
X102.22Y-43.053
X102.22Y-48.133
X102.22Y-53.213
X102.22Y-58.293
X102.22Y-63.373
X102.22Y-68.453
X102.22Y-73.533
X102.22Y-78.613
X102.22Y-83.693
X102.22Y-88.773
X102.22Y-93.853
X102.22Y-98.933
X102.22Y-104.013
X102.22Y-109.093
X102.235Y-119.507
X102.235Y-122.047
X104.75Y-40.513
X104.75Y-45.593
X104.75Y-50.673
X104.75Y-55.753
X104.75Y-60.833
X104.75Y-65.913
X104.75Y-70.993
X104.75Y-76.073
X104.75Y-81.153
X104.75Y-86.233
X104.75Y-91.313
X104.75Y-96.393
X104.75Y-101.473
X104.75Y-106.553
X104.76Y-43.053
X104.76Y-48.133
X104.76Y-53.213
X104.76Y-58.293
X104.76Y-63.373
X104.76Y-68.453
X104.76Y-73.533
X104.76Y-78.613
X104.76Y-83.693
X104.76Y-88.773
X104.76Y-93.853
X104.76Y-98.933
X104.76Y-104.013
X104.76Y-109.093
X104.775Y-119.507
X104.775Y-122.047
X107.29Y-40.513
X107.29Y-45.593
X107.29Y-50.673
X107.29Y-55.753
X107.29Y-60.833
X107.29Y-65.913
X107.29Y-70.993
X107.29Y-76.073
X107.29Y-81.153
X107.29Y-86.233
X107.29Y-91.313
X107.29Y-96.393
X107.29Y-101.473
X107.29Y-106.553
X107.3Y-43.053
X107.3Y-48.133
X107.3Y-53.213
X107.3Y-58.293
X107.3Y-63.373
X107.3Y-68.453
X107.3Y-73.533
X107.3Y-78.613
X107.3Y-83.693
X107.3Y-88.773
X107.3Y-93.853
X107.3Y-98.933
X107.3Y-104.013
X107.3Y-109.093
X107.315Y-119.507
X107.315Y-122.047
X109.83Y-40.513
X109.83Y-45.593
X109.83Y-50.673
X109.83Y-55.753
X109.83Y-60.833
X109.83Y-65.913
X109.83Y-70.993
X109.83Y-76.073
X109.83Y-81.153
X109.83Y-86.233
X109.83Y-91.313
X109.83Y-96.393
X109.83Y-101.473
X109.83Y-106.553
X109.84Y-43.053
X109.84Y-48.133
X109.84Y-53.213
X109.84Y-58.293
X109.84Y-63.373
X109.84Y-68.453
X109.84Y-73.533
X109.84Y-78.613
X109.84Y-83.693
X109.84Y-88.773
X109.84Y-93.853
X109.84Y-98.933
X109.84Y-104.013
X109.84Y-109.093
X109.855Y-119.507
X109.855Y-122.047
X112.37Y-40.513
X112.37Y-45.593
X112.37Y-50.673
X112.37Y-55.753
X112.37Y-60.833
X112.37Y-65.913
X112.37Y-70.993
X112.37Y-76.073
X112.37Y-81.153
X112.37Y-86.233
X112.37Y-91.313
X112.37Y-96.393
X112.37Y-101.473
X112.37Y-106.553
X112.38Y-43.053
X112.38Y-48.133
X112.38Y-53.213
X112.38Y-58.293
X112.38Y-63.373
X112.38Y-68.453
X112.38Y-73.533
X112.38Y-78.613
X112.38Y-83.693
X112.38Y-88.773
X112.38Y-93.853
X112.38Y-98.933
X112.38Y-104.013
X112.38Y-109.093
X112.395Y-119.507
X112.395Y-122.047
X114.91Y-40.513
X114.91Y-45.593
X114.91Y-50.673
X114.91Y-55.753
X114.91Y-60.833
X114.91Y-65.913
X114.91Y-70.993
X114.91Y-76.073
X114.91Y-81.153
X114.91Y-86.233
X114.91Y-91.313
X114.91Y-96.393
X114.91Y-101.473
X114.91Y-106.553
X114.92Y-43.053
X114.92Y-48.133
X114.92Y-53.213
X114.92Y-58.293
X114.92Y-63.373
X114.92Y-68.453
X114.92Y-73.533
X114.92Y-78.613
X114.92Y-83.693
X114.92Y-88.773
X114.92Y-93.853
X114.92Y-98.933
X114.92Y-104.013
X114.92Y-109.093
X114.935Y-119.507
X114.935Y-122.047
X117.45Y-40.513
X117.45Y-45.593
X117.45Y-50.673
X117.45Y-55.753
X117.45Y-60.833
X117.45Y-65.913
X117.45Y-70.993
X117.45Y-76.073
X117.45Y-81.153
X117.45Y-86.233
X117.45Y-91.313
X117.45Y-96.393
X117.45Y-101.473
X117.45Y-106.553
X117.46Y-43.053
X117.46Y-48.133
X117.46Y-53.213
X117.46Y-58.293
X117.46Y-63.373
X117.46Y-68.453
X117.46Y-73.533
X117.46Y-78.613
X117.46Y-83.693
X117.46Y-88.773
X117.46Y-93.853
X117.46Y-98.933
X117.46Y-104.013
X117.46Y-109.093
X117.475Y-119.507
X117.475Y-122.047
X119.99Y-40.513
X119.99Y-45.593
X119.99Y-50.673
X119.99Y-55.753
X119.99Y-60.833
X119.99Y-65.913
X119.99Y-70.993
X119.99Y-76.073
X119.99Y-81.153
X119.99Y-86.233
X119.99Y-91.313
X119.99Y-96.393
X119.99Y-101.473
X119.99Y-106.553
X120.0Y-43.053
X120.0Y-48.133
X120.0Y-53.213
X120.0Y-58.293
X120.0Y-63.373
X120.0Y-68.453
X120.0Y-73.533
X120.0Y-78.613
X120.0Y-83.693
X120.0Y-88.773
X120.0Y-93.853
X120.0Y-98.933
X120.0Y-104.013
X120.0Y-109.093
X120.015Y-119.507
X120.015Y-122.047
X122.53Y-40.513
X122.53Y-45.593
X122.53Y-50.673
X122.53Y-55.753
X122.53Y-60.833
X122.53Y-65.913
X122.53Y-70.993
X122.53Y-76.073
X122.53Y-81.153
X122.53Y-86.233
X122.53Y-91.313
X122.53Y-96.393
X122.53Y-101.473
X122.53Y-106.553
X122.54Y-43.053
X122.54Y-48.133
X122.54Y-53.213
X122.54Y-58.293
X122.54Y-63.373
X122.54Y-68.453
X122.54Y-73.533
X122.54Y-78.613
X122.54Y-83.693
X122.54Y-88.773
X122.54Y-93.853
X122.54Y-98.933
X122.54Y-104.013
X122.54Y-109.093
X122.555Y-119.507
X122.555Y-122.047
X125.07Y-40.513
X125.07Y-45.593
X125.07Y-50.673
X125.07Y-55.753
X125.07Y-60.833
X125.07Y-65.913
X125.07Y-70.993
X125.07Y-76.073
X125.07Y-81.153
X125.07Y-86.233
X125.07Y-91.313
X125.07Y-96.393
X125.07Y-101.473
X125.07Y-106.553
X125.08Y-43.053
X125.08Y-48.133
X125.08Y-53.213
X125.08Y-58.293
X125.08Y-63.373
X125.08Y-68.453
X125.08Y-73.533
X125.08Y-78.613
X125.08Y-83.693
X125.08Y-88.773
X125.08Y-93.853
X125.08Y-98.933
X125.08Y-104.013
X125.08Y-109.093
X125.095Y-119.507
X125.095Y-122.047
X127.61Y-40.513
X127.61Y-45.593
X127.61Y-50.673
X127.61Y-55.753
X127.61Y-60.833
X127.61Y-65.913
X127.61Y-70.993
X127.61Y-76.073
X127.61Y-81.153
X127.61Y-86.233
X127.61Y-91.313
X127.61Y-96.393
X127.61Y-101.473
X127.61Y-106.553
X127.62Y-43.053
X127.62Y-48.133
X127.62Y-53.213
X127.62Y-58.293
X127.62Y-63.373
X127.62Y-68.453
X127.62Y-73.533
X127.62Y-78.613
X127.62Y-83.693
X127.62Y-88.773
X127.62Y-93.853
X127.62Y-98.933
X127.62Y-104.013
X127.62Y-109.093
X127.635Y-119.507
X127.635Y-122.047
X130.15Y-40.513
X130.15Y-45.593
X130.15Y-50.673
X130.15Y-55.753
X130.15Y-60.833
X130.15Y-65.913
X130.15Y-70.993
X130.15Y-76.073
X130.15Y-81.153
X130.15Y-86.233
X130.15Y-91.313
X130.15Y-96.393
X130.15Y-101.473
X130.15Y-106.553
X130.16Y-43.053
X130.16Y-48.133
X130.16Y-53.213
X130.16Y-58.293
X130.16Y-63.373
X130.16Y-68.453
X130.16Y-73.533
X130.16Y-78.613
X130.16Y-83.693
X130.16Y-88.773
X130.16Y-93.853
X130.16Y-98.933
X130.16Y-104.013
X130.16Y-109.093
X130.175Y-119.507
X130.175Y-122.047
X132.69Y-40.513
X132.69Y-45.593
X132.69Y-50.673
X132.69Y-55.753
X132.69Y-60.833
X132.69Y-65.913
X132.69Y-70.993
X132.69Y-76.073
X132.69Y-81.153
X132.69Y-86.233
X132.69Y-91.313
X132.69Y-96.393
X132.69Y-101.473
X132.69Y-106.553
X132.7Y-43.053
X132.7Y-48.133
X132.7Y-53.213
X132.7Y-58.293
X132.7Y-63.373
X132.7Y-68.453
X132.7Y-73.533
X132.7Y-78.613
X132.7Y-83.693
X132.7Y-88.773
X132.7Y-93.853
X132.7Y-98.933
X132.7Y-104.013
X132.7Y-109.093
X132.715Y-119.507
X132.715Y-122.047
X135.23Y-40.513
X135.23Y-45.593
X135.23Y-50.673
X135.23Y-55.753
X135.23Y-60.833
X135.23Y-65.913
X135.23Y-70.993
X135.23Y-76.073
X135.23Y-81.153
X135.23Y-86.233
X135.23Y-91.313
X135.23Y-96.393
X135.23Y-101.473
X135.23Y-106.553
X135.24Y-43.053
X135.24Y-48.133
X135.24Y-53.213
X135.24Y-58.293
X135.24Y-63.373
X135.24Y-68.453
X135.24Y-73.533
X135.24Y-78.613
X135.24Y-83.693
X135.24Y-88.773
X135.24Y-93.853
X135.24Y-98.933
X135.24Y-104.013
X135.24Y-109.093
X135.255Y-119.507
X135.255Y-122.047
X137.77Y-40.513
X137.77Y-45.593
X137.77Y-50.673
X137.77Y-55.753
X137.77Y-60.833
X137.77Y-65.913
X137.77Y-70.993
X137.77Y-76.073
X137.77Y-81.153
X137.77Y-86.233
X137.77Y-91.313
X137.77Y-96.393
X137.77Y-101.473
X137.77Y-106.553
X137.78Y-43.053
X137.78Y-48.133
X137.78Y-53.213
X137.78Y-58.293
X137.78Y-63.373
X137.78Y-68.453
X137.78Y-73.533
X137.78Y-78.613
X137.78Y-83.693
X137.78Y-88.773
X137.78Y-93.853
X137.78Y-98.933
X137.78Y-104.013
X137.78Y-109.093
X137.795Y-119.507
X137.795Y-122.047
X140.31Y-40.513
X140.31Y-45.593
X140.31Y-50.673
X140.31Y-55.753
X140.31Y-60.833
X140.31Y-65.913
X140.31Y-70.993
X140.31Y-76.073
X140.31Y-81.153
X140.31Y-86.233
X140.31Y-91.313
X140.31Y-96.393
X140.31Y-101.473
X140.31Y-106.553
X140.32Y-43.053
X140.32Y-48.133
X140.32Y-53.213
X140.32Y-58.293
X140.32Y-63.373
X140.32Y-68.453
X140.32Y-73.533
X140.32Y-78.613
X140.32Y-83.693
X140.32Y-88.773
X140.32Y-93.853
X140.32Y-98.933
X140.32Y-104.013
X140.32Y-109.093
X140.335Y-119.507
X140.335Y-122.047
X142.85Y-40.513
X142.85Y-45.593
X142.85Y-50.673
X142.85Y-55.753
X142.85Y-60.833
X142.85Y-65.913
X142.85Y-70.993
X142.85Y-76.073
X142.85Y-81.153
X142.85Y-86.233
X142.85Y-91.313
X142.85Y-96.393
X142.85Y-101.473
X142.85Y-106.553
X142.86Y-43.053
X142.86Y-48.133
X142.86Y-53.213
X142.86Y-58.293
X142.86Y-63.373
X142.86Y-68.453
X142.86Y-73.533
X142.86Y-78.613
X142.86Y-83.693
X142.86Y-88.773
X142.86Y-93.853
X142.86Y-98.933
X142.86Y-104.013
X142.86Y-109.093
X142.875Y-119.507
X142.875Y-122.047
X145.39Y-40.513
X145.39Y-45.593
X145.39Y-50.673
X145.39Y-55.753
X145.39Y-60.833
X145.39Y-65.913
X145.39Y-70.993
X145.39Y-76.073
X145.39Y-81.153
X145.39Y-86.233
X145.39Y-91.313
X145.39Y-96.393
X145.39Y-101.473
X145.39Y-106.553
X145.4Y-43.053
X145.4Y-48.133
X145.4Y-53.213
X145.4Y-58.293
X145.4Y-63.373
X145.4Y-68.453
X145.4Y-73.533
X145.4Y-78.613
X145.4Y-83.693
X145.4Y-88.773
X145.4Y-93.853
X145.4Y-98.933
X145.4Y-104.013
X145.4Y-109.093
X145.415Y-119.507
X145.415Y-122.047
X147.93Y-40.513
X147.93Y-45.593
X147.93Y-50.673
X147.93Y-55.753
X147.93Y-60.833
X147.93Y-65.913
X147.93Y-70.993
X147.93Y-76.073
X147.93Y-81.153
X147.93Y-86.233
X147.93Y-91.313
X147.93Y-96.393
X147.93Y-101.473
X147.93Y-106.553
X147.94Y-43.053
X147.94Y-48.133
X147.94Y-53.213
X147.94Y-58.293
X147.94Y-63.373
X147.94Y-68.453
X147.94Y-73.533
X147.94Y-78.613
X147.94Y-83.693
X147.94Y-88.773
X147.94Y-93.853
X147.94Y-98.933
X147.94Y-104.013
X147.94Y-109.093
X147.955Y-119.507
X147.955Y-122.047
X150.47Y-40.513
X150.47Y-45.593
X150.47Y-50.673
X150.47Y-55.753
X150.47Y-60.833
X150.47Y-65.913
X150.47Y-70.993
X150.47Y-76.073
X150.47Y-81.153
X150.47Y-86.233
X150.47Y-91.313
X150.47Y-96.393
X150.47Y-101.473
X150.47Y-106.553
X150.48Y-43.053
X150.48Y-48.133
X150.48Y-53.213
X150.48Y-58.293
X150.48Y-63.373
X150.48Y-68.453
X150.48Y-73.533
X150.48Y-78.613
X150.48Y-83.693
X150.48Y-88.773
X150.48Y-93.853
X150.48Y-98.933
X150.48Y-104.013
X150.48Y-109.093
X150.495Y-119.507
X150.495Y-122.047
X153.01Y-40.513
X153.01Y-45.593
X153.01Y-50.673
X153.01Y-55.753
X153.01Y-60.833
X153.01Y-65.913
X153.01Y-70.993
X153.01Y-76.073
X153.01Y-81.153
X153.01Y-86.233
X153.01Y-91.313
X153.01Y-96.393
X153.01Y-101.473
X153.01Y-106.553
X153.02Y-43.053
X153.02Y-48.133
X153.02Y-53.213
X153.02Y-58.293
X153.02Y-63.373
X153.02Y-68.453
X153.02Y-73.533
X153.02Y-78.613
X153.02Y-83.693
X153.02Y-88.773
X153.02Y-93.853
X153.02Y-98.933
X153.02Y-104.013
X153.02Y-109.093
X153.035Y-119.507
X153.035Y-122.047
M30
